<svg xmlns="http://www.w3.org/2000/svg" width="10" height="10" fill="none"><path fill-rule="evenodd" clip-rule="evenodd" d="m2.774 2.75.297-.236-.517-.653-.336.265-.017.018a3.959 3.959 0 0 0 2.083 6.692l.15-.82a3.125 3.125 0 0 1-1.66-5.267ZM5.716 1.048A3.958 3.958 0 0 1 7.799 7.74l-.295.295-.59-.589.295-.295a3.125 3.125 0 0 0-1.644-5.283l.15-.82Z" fill="#CCC"/><path fill-rule="evenodd" clip-rule="evenodd" d="M7.5 7.667a.208.208 0 0 1-.208-.209v-.937a.208.208 0 0 0-.209-.209h-.416a.208.208 0 0 0-.209.209v1.562c0 .23.187.417.417.417h1.562a.208.208 0 0 0 .209-.208v-.417a.208.208 0 0 0-.209-.208H7.5ZM2.604 2.292c.115 0 .208.093.208.208v.937c0 .116.094.209.209.209h.416a.208.208 0 0 0 .209-.209V1.875a.417.417 0 0 0-.417-.417H1.667a.208.208 0 0 0-.209.209v.416c0 .115.094.209.209.209h.937Z" fill="#CCC"/></svg>