<svg width="10" height="2" fill="none" xmlns="http://www.w3.org/2000/svg"><g fill="#DADDE6"><path d="M8.824 1.932c-.286 0-.517-.09-.693-.268a.897.897 0 0 1-.257-.634c0-.272.085-.5.257-.682.176-.187.407-.28.693-.28.29 0 .521.09.693.269.172.179.258.39.258.634a.969.969 0 0 1-.258.682c-.172.186-.403.28-.693.28ZM5 1.932c-.286 0-.517-.09-.693-.268a.897.897 0 0 1-.258-.634c0-.272.086-.5.258-.682.176-.187.407-.28.693-.28.29 0 .521.09.693.269.172.179.258.39.258.634a.969.969 0 0 1-.258.682c-.172.186-.403.28-.693.28ZM1.176 1.932c-.287 0-.518-.09-.693-.268a.897.897 0 0 1-.258-.634c0-.272.086-.5.258-.682.175-.187.406-.28.693-.28.29 0 .52.09.693.269.172.179.257.39.257.634a.969.969 0 0 1-.257.682c-.172.186-.403.28-.693.28Z"/></g></svg>