<svg xmlns="http://www.w3.org/2000/svg" width="27" height="35" fill="none"><g filter="url(#a)"><path fill-rule="evenodd" clip-rule="evenodd" d="M13.941 20.12a.54.54 0 0 1 .54.539v1.402a.54.54 0 0 1-.54.539H12.54a.54.54 0 0 1-.539-.54V20.66a.54.54 0 0 1 .54-.54h1.401Zm0-7.92a.54.54 0 0 1 .54.54v5.672a.54.54 0 0 1-.54.54H12.54a.54.54 0 0 1-.539-.54v-5.673a.54.54 0 0 1 .54-.539h1.401Z" fill="#EB9B61"/></g><defs><filter id="a" x="-7" y="-3" width="40" height="40" filterUnits="userSpaceOnUse" color-interpolation-filters="sRGB"><feFlood flood-opacity="0" result="BackgroundImageFix"/><feColorMatrix in="SourceAlpha" values="0 0 0 0 0 0 0 0 0 0 0 0 0 0 0 0 0 0 127 0" result="hardAlpha"/><feOffset/><feGaussianBlur stdDeviation="6"/><feComposite in2="hardAlpha" operator="out"/><feColorMatrix values="0 0 0 0 0.784314 0 0 0 0 0.54902 0 0 0 0 0.321569 0 0 0 0.4 0"/><feBlend in2="BackgroundImageFix" result="effect1_dropShadow_6152_223606"/><feBlend in="SourceGraphic" in2="effect1_dropShadow_6152_223606" result="shape"/></filter></defs></svg>