<svg xmlns="http://www.w3.org/2000/svg" width="16" height="16" fill="none"><path fill-rule="evenodd" clip-rule="evenodd" d="M13.628 2.36a.866.866 0 0 1 .014 1.204l-1.438 1.453a.864.864 0 0 1-1.203.014.874.874 0 0 1-.014-1.21l1.438-1.447c.325-.326.885-.34 1.203-.014ZM2.634 14.976a1.086 1.086 0 0 1-1.528 0 1.108 1.108 0 0 1 0-1.53L7.668 6.83a1.093 1.093 0 0 1 1.528 0 1.093 1.093 0 0 1 0 1.523l-6.562 6.623Zm11.022-1.357c.318-.318.311-.879-.014-1.204l-1.445-1.44a.88.88 0 0 0-1.21.015.872.872 0 0 0 .014 1.204l1.445 1.446a.872.872 0 0 0 1.21-.02ZM5.02 3.82a.874.874 0 0 1-.014 1.211.864.864 0 0 1-1.203-.014L2.358 3.571c-.325-.318-.318-.879.014-1.211.318-.325.878-.312 1.203.014L5.02 3.82ZM8 0a.865.865 0 0 0-.85.858v2.11A.86.86 0 0 0 8 3.82a.865.865 0 0 0 .857-.851V.859A.871.871 0 0 0 8 0Zm8 8a.86.86 0 0 0-.85-.851h-2.11a.865.865 0 0 0-.857.851c0 .464.394.851.858.851h2.108A.86.86 0 0 0 16 8ZM0 8c0 .464.394.851.857.851H2.96A.865.865 0 0 0 3.817 8a.865.865 0 0 0-.858-.851H.857A.865.865 0 0 0 0 8Zm8 4.18a.865.865 0 0 0-.85.858v2.104c0 .463.387.858.85.858a.871.871 0 0 0 .857-.858v-2.104A.871.871 0 0 0 8 12.18Z" fill="url(#a)"/><defs><linearGradient id="a" x1="16.828" y1="28.571" x2=".139" y2="30.097" gradientUnits="userSpaceOnUse"><stop stop-color="#4891FF"/><stop offset=".271" stop-color="#94BFFF"/><stop offset=".479" stop-color="#FFC69D"/><stop offset=".656" stop-color="#FF8A4F"/><stop offset=".844" stop-color="#C25EFF"/></linearGradient></defs></svg>