<svg width="14" height="14" fill="none" xmlns="http://www.w3.org/2000/svg"><path fill-rule="evenodd" clip-rule="evenodd" d="M2.075 2.065a.757.757 0 0 0-.012 1.054L3.322 4.39c.284.29.774.29 1.052.012.29-.29.29-.775.012-1.06L3.128 2.078c-.284-.285-.775-.297-1.053-.012Zm9.62 11.039a.95.95 0 0 0 1.337 0 .97.97 0 0 0 0-1.338L7.29 5.975a.956.956 0 0 0-1.337 0 .957.957 0 0 0 0 1.333l5.742 5.795ZM2.05 11.917c-.278-.279-.272-.77.012-1.054l1.265-1.26a.77.77 0 0 1 1.058.013.763.763 0 0 1-.012 1.053L3.11 11.935a.763.763 0 0 1-1.059-.018Zm7.557-8.574a.765.765 0 0 0 .012 1.06.756.756 0 0 0 1.052-.013l1.265-1.265c.284-.279.278-.77-.012-1.06-.279-.285-.769-.273-1.053.012L9.608 3.343ZM7 0c.405 0 .744.345.744.75v1.848A.752.752 0 0 1 7 3.343a.757.757 0 0 1-.75-.745V.75C6.25.345 6.595 0 7 0ZM0 7c0-.406.339-.745.744-.745H2.59c.406 0 .75.34.75.745a.757.757 0 0 1-.75.745H.744A.752.752 0 0 1 0 7Zm14 0a.757.757 0 0 1-.75.745h-1.84A.757.757 0 0 1 10.66 7c0-.406.345-.745.75-.745h1.84c.405 0 .75.34.75.745Zm-7 3.657c.405 0 .744.346.744.751v1.841c0 .406-.339.751-.744.751a.762.762 0 0 1-.75-.75v-1.842c0-.405.345-.75.75-.75Z" fill="url(#a)"/><defs><linearGradient id="a" x1="-.724" y1="25" x2="13.878" y2="26.335" gradientUnits="userSpaceOnUse"><stop stop-color="#0167FF"/><stop offset=".271" stop-color="#155AFF"/><stop offset=".565" stop-color="#933EFF"/><stop offset=".79" stop-color="#FA7533"/><stop offset="1" stop-color="#FF620A"/></linearGradient></defs></svg>