<svg width="16" height="16" viewBox="0 0 16 16" fill="none" xmlns="http://www.w3.org/2000/svg">
<g clip-path="url(#clip0_24344_73806)">
<path d="M7.99967 14.6666C11.6816 14.6666 14.6663 11.6818 14.6663 7.99992C14.6663 4.31802 11.6816 1.33325 7.99967 1.33325C4.31777 1.33325 1.33301 4.31802 1.33301 7.99992C1.33301 11.6818 4.31777 14.6666 7.99967 14.6666Z" stroke="#333940" stroke-width="1.2" stroke-linejoin="round"/>
<path d="M5 11L6.5 6.5L11 5L9.5 9.5L5 11Z" fill="#333940" stroke="#333940" stroke-linejoin="round"/>
<path fill-rule="evenodd" clip-rule="evenodd" d="M7.99967 8.66659C8.36787 8.66659 8.66634 8.36812 8.66634 7.99992C8.66634 7.63172 8.36787 7.33325 7.99967 7.33325C7.63147 7.33325 7.33301 7.63172 7.33301 7.99992C7.33301 8.36812 7.63147 8.66659 7.99967 8.66659Z" fill="#333940"/>
</g>
<defs>
<clipPath id="clip0_24344_73806">
<rect width="16" height="16" fill="white"/>
</clipPath>
</defs>
</svg>
