<svg xmlns="http://www.w3.org/2000/svg" width="16" height="12" fill="none"><g clip-path="url(#a)"><path fill-rule="evenodd" clip-rule="evenodd" d="M10.286.914v2.972c0 .505-.41.914-.915.914H6.746c-.303 0-.593.12-.808.335l-.803.803a1.14 1.14 0 0 0-.335.808v2.625c0 .506-.41.915-.914.915H.914A.914.914 0 0 1 0 9.37V6.4c0-.505.41-.914.914-.914h2.628c.303 0 .593-.12.808-.335l.8-.801a1.14 1.14 0 0 0 .336-.808V.914C5.486.41 5.895 0 6.4 0h2.971c.506 0 .915.41.915.914Zm2.113 3.45a.107.107 0 0 0-.204 0l-.037.123a4.53 4.53 0 0 1-3.02 3.02l-.123.038c-.101.03-.101.173 0 .204l.122.037a4.53 4.53 0 0 1 3.02 3.02l.038.123c.03.1.173.1.204 0l.037-.123a4.53 4.53 0 0 1 3.02-3.02l.123-.037c.101-.031.101-.174 0-.204l-.122-.038a4.53 4.53 0 0 1-3.02-3.02l-.038-.123Z" fill="url(#b)"/></g><defs><linearGradient id="b" x1="0" y1="5.502" x2="15.655" y2="5.502" gradientUnits="userSpaceOnUse"><stop offset=".15" stop-color="#FF7979"/><stop offset=".5" stop-color="#EEA8FF"/><stop offset=".85" stop-color="#E5DCFF"/></linearGradient><clipPath id="a"><path fill="#fff" d="M0 0h16v11.034H0z"/></clipPath></defs></svg>