<svg width="210" height="210" fill="none" xmlns="http://www.w3.org/2000/svg"><g filter="url(#a)"><circle cx="105" cy="105" r="25" fill="#787f8d"/></g><path d="M117.705 109.13h3.63c.481 0 .943-.191 1.283-.532a1.812 1.812 0 0 0 0-2.566 1.812 1.812 0 0 0-1.283-.532h-3.63v-1.815a9.339 9.339 0 0 0-.381-2.468 9.072 9.072 0 0 0 5.826-8.422 1.813 1.813 0 0 0-1.815-1.815 1.814 1.814 0 0 0-1.815 1.815 5.443 5.443 0 0 1-3.884 5.209 9.073 9.073 0 0 0-3.376-2.668 4.63 4.63 0 0 0 0-.726 7.262 7.262 0 0 0-7.26-7.26 7.26 7.26 0 0 0-7.26 7.26 4.68 4.68 0 0 0 0 .726 9.076 9.076 0 0 0-3.448 2.668 5.445 5.445 0 0 1-3.812-5.209 1.815 1.815 0 1 0-3.63 0 9.075 9.075 0 0 0 5.826 8.422 9.347 9.347 0 0 0-.38 2.468v1.815h-3.63a1.812 1.812 0 0 0-1.816 1.815 1.814 1.814 0 0 0 1.815 1.815h3.63v1.815c.002.841.087 1.68.254 2.505a9.08 9.08 0 0 0-5.699 8.385 1.814 1.814 0 1 0 3.63 0 5.446 5.446 0 0 1 3.285-4.973 12.702 12.702 0 0 0 17.794 4.948 12.698 12.698 0 0 0 4.676-4.948 5.442 5.442 0 0 1 3.285 4.973c0 .481.191.943.532 1.283a1.812 1.812 0 0 0 2.566 0c.341-.34.532-.802.532-1.283a9.081 9.081 0 0 0-1.569-5.063 9.082 9.082 0 0 0-4.13-3.322c.167-.825.253-1.664.254-2.505v-1.815Zm-14.52 10.709a9.077 9.077 0 0 1-7.26-8.894v-7.26a5.445 5.445 0 0 1 5.445-5.445h1.815v21.599ZM101.37 94.61a3.633 3.633 0 0 1 3.63-3.63 3.63 3.63 0 0 1 3.63 3.63h-7.26Zm12.705 16.335a9.073 9.073 0 0 1-7.26 8.894V98.24h1.815a5.445 5.445 0 0 1 5.445 5.445v7.26Z" fill="#5C6373"/><defs><filter id="a" x="0" y="0" width="210" height="210" filterUnits="userSpaceOnUse" color-interpolation-filters="sRGB"><feFlood flood-opacity="0" result="BackgroundImageFix"/><feBlend in="SourceGraphic" in2="BackgroundImageFix" result="shape"/><feGaussianBlur stdDeviation="40" result="effect1_foregroundBlur_1897_595115"/></filter></defs></svg>