<svg xmlns="http://www.w3.org/2000/svg" width="160" height="160" fill="none"><path d="M35 20h70l20 20v100H35V20Z" fill="url(#a)"/><path opacity=".4" fill-rule="evenodd" clip-rule="evenodd" d="m87.895 20-35.837-9.602L49.485 20h38.41Zm23.366 6.26L125 40v45.909l8.815-32.9-14.142-24.494-8.412-2.254ZM110.506 140h-38.41l35.837 9.602 2.573-9.602ZM35 130.06v-56l-14 52.249 14 3.751Z" fill="url(#b)"/><path d="M105 40V20l20 20h-20Z" fill="#617080"/><path d="M105 40h20v10.5L105 40Z" fill="#fff"/><rect x="10.024" y="96.98" width="48.336" height="23.858" rx="11.929" transform="rotate(-15 10.024 96.98)" fill="#617080"/><path opacity=".64" d="m55.526 115.89-2.058-7.681-7.682 2.058 9.74 5.623Z" fill="#617080"/><path fill-rule="evenodd" clip-rule="evenodd" d="M21.82 123.25a11.881 11.881 0 0 0 6.585-1.019l18.981-8.851 8.22 2.992-.278-.596-7.377-4.259-20.23 5.42a11.909 11.909 0 0 1-4.303.348l-1.598 5.965Zm32.03-13.62.002.013.033-.032-.036.019Z" fill="#fff"/><path d="M58.036 128.117c3.463.927 7.807 2.941 11.328 1.456 2.522-1.064 4.207-4.138 5.826-6.185 1.52-1.921 3.828-4.304 4.162-6.878.138-1.058-1.438 1.725-1.584 2.783-.39 2.819.986 4.931 2.954 6.835 5.091 4.926 10.095 1.484 13.39-3.566.736-1.128 1.456-2.498 2.41-3.474.097-.099 1.784 2.515 2.057 2.821 4.05 4.53 9.171 3.285 12.654-1.1 1.262-1.588 2.1-3.371 2.989-5.169.368-.744 3.021.817 3.545.95 6.028 1.524 11.761-4.65 14.286-9.494" stroke="#617080" stroke-linecap="round"/><defs><radialGradient id="a" cx="0" cy="0" r="1" gradientUnits="userSpaceOnUse" gradientTransform="matrix(-101.50037 105.0003 -116.38332 -112.50397 103.5 29.5)"><stop stop-color="#ADBDCC"/><stop offset="1" stop-color="#ADBDCC" stop-opacity=".24"/></radialGradient><radialGradient id="b" cx="0" cy="0" r="1" gradientUnits="userSpaceOnUse" gradientTransform="rotate(149.029 52.715 34.688) scale(146.039 161.871)"><stop stop-color="#ADBDCC"/><stop offset="1" stop-color="#ADBDCC" stop-opacity=".24"/></radialGradient></defs></svg>