<svg width="210" height="210" fill="none" xmlns="http://www.w3.org/2000/svg"><g filter="url(#a)"><circle cx="105" cy="105" r="25" fill="#787f8d"/></g><path fill-rule="evenodd" clip-rule="evenodd" d="m97.084 96.11-.416.24v10.317l1.334-1.001a11.609 11.609 0 0 1 7-2.333 8.335 8.335 0 0 0 8.115-6.432l.134-.573-.496-.318a4.166 4.166 0 1 1 4.208.167l-.367.197-.063.412c-.859 5.595-5.696 9.881-11.531 9.881a8.336 8.336 0 0 0-8.116 6.432l-.133.573.495.318a4.167 4.167 0 1 1-4.329-.1l.416-.24v-17.3l-.416-.24a4.167 4.167 0 1 1 4.166 0Z" fill="#5C6373"/><defs><filter id="a" x="0" y="0" width="210" height="210" filterUnits="userSpaceOnUse" color-interpolation-filters="sRGB"><feFlood flood-opacity="0" result="BackgroundImageFix"/><feBlend in="SourceGraphic" in2="BackgroundImageFix" result="shape"/><feGaussianBlur stdDeviation="40" result="effect1_foregroundBlur_1897_594836"/></filter></defs></svg>