<svg xmlns="http://www.w3.org/2000/svg" width="14" height="14" fill="none"><path fill-rule="evenodd" clip-rule="evenodd" d="M11.925 2.065c.29.284.29.775.012 1.054L10.679 4.39a.756.756 0 0 1-1.053.012.765.765 0 0 1-.012-1.06l1.258-1.265c.284-.285.774-.297 1.053-.012Zm-9.62 11.039a.95.95 0 0 1-1.337 0 .97.97 0 0 1 0-1.338l5.742-5.79a.956.956 0 0 1 1.337 0 .957.957 0 0 1 0 1.333l-5.742 5.795Zm9.644-1.187c.278-.279.272-.77-.012-1.054l-1.265-1.26a.77.77 0 0 0-1.058.013.763.763 0 0 0 .012 1.053l1.264 1.266a.763.763 0 0 0 1.059-.018ZM4.392 3.343a.765.765 0 0 1-.012 1.06.756.756 0 0 1-1.052-.013L2.063 3.125c-.284-.279-.278-.77.012-1.06.279-.285.769-.273 1.053.012l1.264 1.266ZM7 0a.757.757 0 0 0-.744.75v1.848c0 .405.339.745.744.745.405 0 .75-.34.75-.745V.75A.762.762 0 0 0 7 0Zm7 7a.752.752 0 0 0-.744-.745H11.41c-.406 0-.75.34-.75.745 0 .406.344.745.75.745h1.845c.405 0 .744-.34.744-.745ZM0 7c0 .406.345.745.75.745h1.84c.405 0 .75-.34.75-.745a.757.757 0 0 0-.75-.745H.75c-.405 0-.75.34-.75.745Zm7 3.657a.757.757 0 0 0-.744.751v1.841c0 .406.339.751.744.751.405 0 .75-.345.75-.75v-1.842a.762.762 0 0 0-.75-.75Z" fill="#5C6373"/></svg>