<svg width="14" height="14" fill="var(--vscode-icube-colorAlert, #C4BA60)" xmlns="http://www.w3.org/2000/svg"><path fill-rule="evenodd" clip-rule="evenodd" d="M11.959 5.378C11.959 2.573 9.743.292 7 .292c-2.742 0-4.958 2.28-4.958 5.086 0 1.218.691 2.488 2.029 3.828.382.383.596.902.596 1.443v.134a.88.88 0 0 0 .875.883h2.917a.88.88 0 0 0 .875-.883v-.134c0-.541.214-1.06.596-1.443 1.338-1.34 2.029-2.61 2.029-3.828Zm-2.917 7.163a.292.292 0 0 0-.292-.291h-3.5a.292.292 0 0 0-.291.291v.584a.292.292 0 0 0 .291.291h3.5a.292.292 0 0 0 .292-.291v-.584ZM7 1.458c-2.09 0-3.791 1.752-3.791 3.92 0 .855.547 1.862 1.687 3.004.564.565.897 1.32.934 2.118h2.34c.038-.798.37-1.553.934-2.118 1.14-1.142 1.688-2.15 1.688-3.004 0-2.168-1.702-3.92-3.792-3.92Zm.37 1.3-.031-.014a.292.292 0 0 0-.361.14l-1.192 2.34-.014.032a.29.29 0 0 0-.018.099l-.014.03a.292.292 0 0 0 .141.362l1.3.662-.795 1.56-.013.03a.292.292 0 0 0 .14.361l.52.265.032.014a.292.292 0 0 0 .36-.141l1.193-2.339.013-.031a.292.292 0 0 0-.14-.361l-.52-.265-.808-.411.854-1.677.014-.03a.292.292 0 0 0-.141-.362l-.52-.265Z"/></svg>