<svg xmlns="http://www.w3.org/2000/svg" width="12" height="12" viewBox="0 0 13 12" fill="none"><path fill-rule="evenodd" clip-rule="evenodd" d="M12.25 6a5.5 5.5 0 1 1-11 0 5.5 5.5 0 0 1 11 0ZM7.223 4.897a.133.133 0 0 0-.133-.133H6.013a.133.133 0 0 0-.133.133v.723c0 .073.06.133.133.133h.21v1.993h-.611a.133.133 0 0 0-.133.133v.724c0 .073.06.133.133.133h2.227c.074 0 .133-.06.133-.133v-.724a.133.133 0 0 0-.133-.133h-.615l-.001-2.85Zm-.11-1.5a.133.133 0 0 0-.133-.133h-.76a.133.133 0 0 0-.133.133v.73c0 .073.06.133.133.133h.76c.074 0 .134-.06.134-.133v-.73Z" fill="#2161E0"/></svg>