<svg width="346" height="177" fill="none" xmlns="http://www.w3.org/2000/svg"><g fill="#BCC8D5"><path d="M161.37 58.043V15.24c0-7.882-6.384-14.267-14.267-14.267h-46.37c-7.883 0-14.268 6.385-14.268 14.267v41.02c0 4.726-1.872 9.274-5.225 12.609L68.756 81.353a17.818 17.818 0 0 1-12.61 5.226H15.128c-7.883 0-14.268 6.384-14.268 14.267v46.37c0 7.883 6.385 14.268 14.268 14.268h46.37c7.883 0 14.267-6.385 14.267-14.268v-40.948c0-4.726 1.873-9.274 5.226-12.609l12.556-12.556a17.818 17.818 0 0 1 12.609-5.225h37.381c9.845 0 17.834-7.99 17.834-17.835Z"/><path d="M266.594 61.607v-46.37c0-7.883-6.385-14.268-14.268-14.268h-46.37c-7.883 0-14.268 6.385-14.268 14.268V56.24c0 4.726-1.872 9.274-5.225 12.609L173.961 81.35a17.819 17.819 0 0 1-12.609 5.225H120.35c-7.883 0-14.267 6.385-14.267 14.268v46.37c0 7.883 6.384 14.268 14.267 14.268h46.37c7.883 0 14.268-6.385 14.268-14.268v-40.966c0-4.726 1.872-9.274 5.225-12.61L198.751 81.1a17.819 17.819 0 0 1 12.609-5.225h40.966c7.883 0 14.268-6.385 14.268-14.268Z"/><path d="m243.907 153.285.604-.155V90.426l-.604-.156-15.203-3.903-1.005-.258V157.446l1.005-.258 15.203-3.903Z" stroke="#BCC8D5" stroke-width="1.61"/><path d="m317.34 157.339.605-.155V86.37l-.605-.155-15.203-3.903-1.005-.258V161.5l1.005-.258 15.203-3.903Z" stroke="#C2CAF2" stroke-width="1.61"/><path d="m268.014 155.389.605-.155V121.008l-.605-.155-15.203-3.903-1.005-.258v42.858l1.005-.258 15.203-3.903ZM277.558 110.906l-.605.155v34.226l.605.155 15.203 3.903 1.005.258v-42.858l-1.005.258-15.203 3.903Z" stroke="#BCC8D5" stroke-width="1.61"/></g></svg>