<svg width="81" height="40" fill="none" xmlns="http://www.w3.org/2000/svg"><path fill-rule="evenodd" clip-rule="evenodd" d="M63.804 14.56V3.425A3.425 3.425 0 0 0 60.378 0H49.245a3.425 3.425 0 0 0-3.426 3.426v9.844a4.27 4.27 0 0 1-1.255 3.028L41.562 19.3a4.278 4.278 0 0 1-3.027 1.254H28.69a3.425 3.425 0 0 0-3.425 3.426v11.134a3.425 3.425 0 0 0 3.425 3.425h11.134a3.425 3.425 0 0 0 3.426-3.425v-9.836c0-1.135.45-2.227 1.254-3.028l3.01-3.01a4.278 4.278 0 0 1 3.028-1.255h9.836a3.425 3.425 0 0 0 3.426-3.426Zm-25.265-.857V3.426A3.425 3.425 0 0 0 35.114 0H23.98a3.425 3.425 0 0 0-3.426 3.426v9.849a4.27 4.27 0 0 1-1.254 3.027L16.302 19.3a4.278 4.278 0 0 1-3.027 1.255h-9.85A3.425 3.425 0 0 0 0 23.98v11.134a3.425 3.425 0 0 0 3.426 3.426h11.133a3.425 3.425 0 0 0 3.426-3.426v-9.832a4.27 4.27 0 0 1 1.255-3.027l3.014-3.015a4.278 4.278 0 0 1 3.028-1.255h8.975a4.284 4.284 0 0 0 4.282-4.282Zm30.407 2.168a.387.387 0 0 0-.74 0l-.135.444a16.425 16.425 0 0 1-10.95 10.95l-.443.135a.387.387 0 0 0 0 .74l.444.134a16.425 16.425 0 0 1 10.95 10.95l.134.444c.111.365.629.365.74 0l.134-.444a16.425 16.425 0 0 1 10.95-10.95l.444-.135a.387.387 0 0 0 0-.74l-.444-.134a16.425 16.425 0 0 1-10.95-10.95l-.134-.444Z" fill="#BCC8D5"/></svg>