<svg width="12" height="12" fill="none" xmlns="http://www.w3.org/2000/svg"><path d="M5.7 1.5a.6.6 0 0 1-.6-.6.3.3 0 0 0-.6 0 .6.6 0 0 1-.6.6.3.3 0 1 0 0 .6.6.6 0 0 1 .6.6.3.3 0 0 0 .6 0 .6.6 0 0 1 .6-.6.3.3 0 0 0 0-.6ZM3.35 3.65a1 1 0 0 1-1-1 .25.25 0 0 0-.5 0 1 1 0 0 1-1 1 .25.25 0 1 0 0 .5 1 1 0 0 1 1 1 .25.25 0 1 0 .5 0 1 1 0 0 1 1-1 .25.25 0 0 0 0-.5ZM7.714 9.686a2.571 2.571 0 0 1 2.571-2.572.514.514 0 0 0 0-1.028 2.571 2.571 0 0 1-2.571-2.572.514.514 0 0 0-1.029 0 2.571 2.571 0 0 1-2.571 2.572.514.514 0 0 0 0 1.028 2.571 2.571 0 0 1 2.571 2.572.514.514 0 0 0 1.029 0Z" fill="#66B2FF"/></svg>