<svg width="14" height="14" fill="none" xmlns="http://www.w3.org/2000/svg"><path d="M6.65 1.75a.7.7 0 0 1-.7-.7.35.35 0 1 0-.7 0 .7.7 0 0 1-.7.7.35.35 0 1 0 0 .7.7.7 0 0 1 .7.7.35.35 0 0 0 .7 0 .7.7 0 0 1 .7-.7.35.35 0 0 0 0-.7Z" fill="#A3C7FF"/><path d="M3.908 4.259a1.167 1.167 0 0 1-1.166-1.167.292.292 0 1 0-.584 0A1.167 1.167 0 0 1 .992 4.259a.292.292 0 0 0 0 .583 1.167 1.167 0 0 1 1.166 1.167.292.292 0 0 0 .584 0 1.167 1.167 0 0 1 1.166-1.167.292.292 0 1 0 0-.583Z" fill="#2B6EF4"/><path d="M9 11.3a3 3 0 0 1 3-3 .6.6 0 1 0 0-1.2 3 3 0 0 1-3-3 .6.6 0 1 0-1.2 0 3 3 0 0 1-3 3 .6.6 0 1 0 0 1.2 3 3 0 0 1 3 3 .6.6 0 0 0 1.2 0Z" fill="#E56B2E"/></svg>