<svg xmlns="http://www.w3.org/2000/svg" width="16" height="16" fill="none"><path d="M5.646 10.484c.775.788.865 1.634.006 2.507-.532.54-1.393.865-2.579 1.004a.807.807 0 0 1-.886-.844l.005-.056.017-.14c.145-1.13.46-1.957.97-2.477.86-.872 1.692-.78 2.467.006Zm7.097-8.27.134.04.131.044a1.126 1.126 0 0 1 .694.7c.522 1.527.356 3.073-.486 4.606a8.533 8.533 0 0 1-1.33 1.792l-.15.153-.142.139-.004.043c-.099.918-.795 2.132-2.078 3.702l-.111.135-.205.245a.473.473 0 0 1-.8-.126l-.016-.044-.717-2.29-.065-.044c-.403-.288-.787-.6-1.15-.938l-.178-.17-.174-.173a11.506 11.506 0 0 1-1.387-1.712l-.04-.062L2.333 7.5a.488.488 0 0 1-.226-.768l.028-.032.03-.028c1.921-1.678 3.34-2.51 4.354-2.441l.066.005.038.005.085-.087a8.59 8.59 0 0 1 1.448-1.168l.168-.104.155-.09c1.408-.799 2.836-.995 4.264-.577ZM8.437 5.436a1.5 1.5 0 0 0 .005 2.121 1.5 1.5 0 0 0 2.121.005 1.5 1.5 0 0 0-.005-2.121 1.5 1.5 0 0 0-2.12-.005Z" fill="#ADB0B8"/></svg>