<svg xmlns="http://www.w3.org/2000/svg" width="16" height="16" fill="none"><path fill-rule="evenodd" clip-rule="evenodd" d="M8 .667a7.333 7.333 0 1 1 0 14.667A7.333 7.333 0 0 1 8 .667ZM8 2a6 6 0 1 0 0 12A6 6 0 0 0 8 2Zm.333 8.667a.333.333 0 0 1 .334.333v.667a.333.333 0 0 1-.334.333h-.666a.333.333 0 0 1-.334-.333V11a.333.333 0 0 1 .334-.333h.666ZM7.905 4c.793 0 1.451.192 1.975.576.525.384.787.952.787 1.706 0 .462-.114.85-.342 1.167-.134.192-.39.437-.768.736l-.373.293c-.204.16-.339.347-.406.56a1.816 1.816 0 0 0-.047.324.333.333 0 0 1-.332.305h-.747a.333.333 0 0 1-.333-.334v-.015l.001-.015c.043-.464.09-.758.138-.881.091-.23.326-.493.705-.792l.384-.304c.126-.096.777-.554.777-.959 0-.406-.07-.555-.275-.777-.203-.223-.662-.295-1.075-.295-.407 0-.755.108-.925.382-.078.126-.142.26-.19.4a1.393 1.393 0 0 0-.048.205.333.333 0 0 1-.328.277h-.785a.333.333 0 0 1-.334-.334l.001-.018.002-.02c.008-.074.017-.136.026-.185.13-.724.459-1.256.987-1.597.414-.27.922-.405 1.525-.405Z" fill="#ADB0B8"/></svg>