<svg width="14" height="14" fill="none" xmlns="http://www.w3.org/2000/svg"><path fill-rule="evenodd" clip-rule="evenodd" d="M12.25 8.983H1.75v3.15c0 .258.209.467.467.467h9.566a.467.467 0 0 0 .467-.467v-3.15Zm-9.042 1.225a.292.292 0 0 0-.291.292v.583c0 .161.13.292.291.292h1.167c.161 0 .292-.13.292-.292V10.5a.292.292 0 0 0-.292-.292H3.208Z" fill="#2F74FF"/><path opacity=".5" d="M3.858 1.458a.583.583 0 0 0-.487.262L1.847 4.024a.583.583 0 0 0-.097.322v.083h10.5v-.057a.583.583 0 0 0-.095-.32l-1.526-2.33a.583.583 0 0 0-.488-.264H3.858Z" fill="#2F74FF"/><path fill-rule="evenodd" clip-rule="evenodd" d="M12.25 4.43H1.75v3.15c0 .257.209.466.467.466h9.566a.467.467 0 0 0 .467-.467V4.43ZM3.208 5.653a.292.292 0 0 0-.291.292v.583c0 .161.13.292.291.292h1.167c.161 0 .292-.13.292-.292v-.583a.292.292 0 0 0-.292-.292H3.208Z" fill="#2F74FF"/><path opacity=".5" d="m2.199 8.046-.352.532a.583.583 0 0 0-.097.322v.083h10.5v-.057a.583.583 0 0 0-.095-.32l-.368-.56h-9.57a.47.47 0 0 1-.018 0Z" fill="#2F74FF"/><path d="M9.986 13.996a3.987 3.987 0 0 0 3.985-3.989A3.987 3.987 0 0 0 9.986 6.02 3.987 3.987 0 0 0 6 10.008a3.987 3.987 0 0 0 3.986 3.988Z" fill="#E92D25"/><path fill-rule="evenodd" clip-rule="evenodd" d="M10.004 13.331A3.331 3.331 0 0 0 13.334 10a3.331 3.331 0 1 0-6.66 0c0 1.84 1.491 3.332 3.33 3.332ZM14 10a3.997 3.997 0 0 1-3.996 3.999 3.997 3.997 0 0 1-3.996-4A3.997 3.997 0 0 1 10.004 6 3.997 3.997 0 0 1 14 9.999Z" fill="#B11B15"/><path fill-rule="evenodd" clip-rule="evenodd" d="m11.211 8.509.282.281a.228.228 0 0 1 0 .322l-.905.905.905.904a.228.228 0 0 1 0 .322l-.282.281a.227.227 0 0 1-.321 0l-.904-.905-.904.905a.227.227 0 0 1-.321 0l-.282-.281a.228.228 0 0 1 0-.322l.904-.904-.904-.905a.228.228 0 0 1 0-.321l.282-.282a.227.227 0 0 1 .321 0l.904.904.904-.904a.227.227 0 0 1 .321 0Z" fill="#fff"/></svg>