<svg width="14" height="14" fill="none" xmlns="http://www.w3.org/2000/svg"><path fill-rule="evenodd" clip-rule="evenodd" d="M12.25 8.983H1.75v3.15c0 .258.209.467.467.467h9.566a.467.467 0 0 0 .467-.467v-3.15Zm-9.042 1.225a.292.292 0 0 0-.291.292v.583c0 .161.13.292.291.292h1.167c.161 0 .292-.13.292-.292V10.5a.292.292 0 0 0-.292-.292H3.208Z" fill="#2F74FF"/><path opacity=".5" d="M3.858 1.458a.583.583 0 0 0-.487.262L1.847 4.024a.583.583 0 0 0-.097.322v.083h10.5v-.057a.583.583 0 0 0-.095-.32l-1.526-2.33a.583.583 0 0 0-.488-.264H3.858Z" fill="#2F74FF"/><path fill-rule="evenodd" clip-rule="evenodd" d="M12.25 4.43H1.75v3.15c0 .257.209.466.467.466h9.566a.467.467 0 0 0 .467-.467V4.43ZM3.208 5.653a.292.292 0 0 0-.291.292v.583c0 .161.13.292.291.292h1.167c.161 0 .292-.13.292-.292v-.583a.292.292 0 0 0-.292-.292H3.208Z" fill="#2F74FF"/><path opacity=".5" d="m2.199 8.046-.352.532a.583.583 0 0 0-.097.322v.083h10.5v-.057a.583.583 0 0 0-.095-.32l-.368-.56h-9.57a.47.47 0 0 1-.018 0Z" fill="#2F74FF"/><path d="M10 6a4 4 0 1 1 0 8 4 4 0 0 1 0-8Z" fill="#EB6200"/><path fill-rule="evenodd" clip-rule="evenodd" d="M13.333 10a3.333 3.333 0 1 0-6.666 0 3.333 3.333 0 0 0 6.666 0ZM14 10a4 4 0 1 0-8 0 4 4 0 0 0 8 0Z" fill="#C25304"/><path fill-rule="evenodd" clip-rule="evenodd" d="M11.68 10.326a.1.1 0 0 1-.099.1H8.377a.1.1 0 0 1-.1-.1v-.653a.1.1 0 0 1 .1-.1h3.204a.1.1 0 0 1 .1.1v.653Z" fill="#fff"/></svg>