<svg xmlns="http://www.w3.org/2000/svg" width="14" height="14" viewBox="0 0 14 14" fill="none">
  <path fill-rule="evenodd" clip-rule="evenodd" d="M7.26326 13.6684C6.73728 13.9721 6.08924 13.9721 5.56326 13.6684L1.06326 11.0704C0.537276 10.7667 0.213257 10.2055 0.213257 9.59811V4.40196C0.213257 3.79461 0.537275 3.23339 1.06326 2.92971L5.56326 0.331639C6.08924 0.0279633 6.73727 0.0279625 7.26326 0.331638L10.5708 2.24124L9.51706 3.24945L6.56326 1.54407C6.47044 1.49048 6.35608 1.49048 6.26326 1.54407L1.76326 4.14215C1.67044 4.19574 1.61326 4.29478 1.61326 4.40196V9.59811C1.61326 9.70529 1.67044 9.80433 1.76326 9.85792L6.26326 12.456C6.35608 12.5096 6.47044 12.5096 6.56326 12.456L9.59739 10.7042L10.6262 11.7268L7.26326 13.6684ZM9.11334 5.52191C8.74996 5.00295 8.23161 4.61234 7.63259 4.40609C7.03357 4.19983 6.38462 4.1885 5.77877 4.37373C5.17291 4.55895 4.64125 4.93123 4.25998 5.4372C3.87871 5.94316 3.6674 6.55684 3.65634 7.19028C3.64528 7.82372 3.83505 8.44441 4.19843 8.96337C4.56181 9.48233 5.08016 9.87294 5.67918 10.0792C6.2782 10.2855 6.92714 10.2968 7.533 10.1116C8.13885 9.92633 8.67052 9.55405 9.05179 9.04809L7.95602 8.22236C7.74912 8.49692 7.46061 8.69894 7.13185 8.79945C6.80308 8.89996 6.45093 8.89382 6.12588 8.78189C5.80082 8.66996 5.51954 8.458 5.32235 8.17639C5.12516 7.89478 5.02219 7.55796 5.02819 7.21423C5.03419 6.87049 5.14886 6.53748 5.35575 6.26292C5.56265 5.98836 5.85115 5.78635 6.17992 5.68583C6.50869 5.58532 6.86083 5.59146 7.18589 5.70339C7.51095 5.81532 7.79223 6.02728 7.98942 6.30889L9.11334 5.52191ZM12.6572 8.26201H12.8754C13.1515 8.26201 13.3754 8.03815 13.3754 7.76201C13.3754 7.50243 13.1776 7.28904 12.9245 7.26439L13.1127 6.56201H13.2867C13.5628 6.56201 13.7867 6.33815 13.7867 6.06201C13.7867 5.81593 13.6089 5.61136 13.3747 5.56975C13.4098 5.32299 13.2558 5.0833 13.009 5.01716C12.7422 4.94569 12.4681 5.10398 12.3966 5.37071L12.3453 5.56201H11.6757C11.7064 5.318 11.5531 5.08262 11.3089 5.01718C11.0421 4.94571 10.768 5.104 10.6965 5.37073L10.6452 5.56201H10.3237C10.0476 5.56201 9.82371 5.78587 9.82371 6.06201C9.82371 6.33815 10.0476 6.56201 10.3237 6.56201H10.3773L10.1897 7.26201H9.91245C9.63631 7.26201 9.41245 7.48587 9.41245 7.76201C9.41245 8.03815 9.63631 8.26201 9.91245 8.26201H9.92269C9.86987 8.51924 10.0262 8.77624 10.2832 8.8451C10.5499 8.91657 10.8241 8.75828 10.8955 8.49154L10.957 8.26201H11.6228C11.57 8.51924 11.7263 8.77622 11.9833 8.84508C12.25 8.91655 12.5242 8.75826 12.5957 8.49152L12.6572 8.26201ZM11.225 7.26201H11.8898L12.0774 6.56201H11.4126L11.225 7.26201Z" fill="#4BBFC6"/>
</svg>
