<svg xmlns="http://www.w3.org/2000/svg" width="14" height="14" viewBox="0 0 14 14" fill="none">
  <path opacity="0.2" d="M7.20017 11.5C9.9079 11.5 12.2102 8.68607 13.0551 7.50856C13.2755 7.20131 13.2755 6.79869 13.0551 6.49144C12.2102 5.31393 9.9079 2.5 7.20017 2.5C4.49245 2.5 2.19011 5.31391 1.3452 6.49143C1.12474 6.79868 1.12474 7.20132 1.3452 7.50857C2.19011 8.68609 4.49245 11.5 7.20017 11.5Z" fill="#8D93A6"/>
  <path d="M7 12C10.1597 12 12.4715 8.67747 13.1759 7.52967C13.325 7.28677 13.3447 6.99461 13.2254 6.73578C12.664 5.51759 10.7208 2 7 2C3.27921 2 1.33595 5.51757 0.774521 6.73577C0.655233 6.99461 0.674982 7.28677 0.824051 7.52967C1.52845 8.67749 3.84034 12 7 12Z" stroke="#8D93A6" stroke-width="1.2" stroke-linejoin="round"/>
  <path d="M7 9C8.10456 9 9 8.10456 9 7C9 5.89544 8.10456 5 7 5C5.89544 5 5 5.89544 5 7C5 8.10456 5.89544 9 7 9Z" stroke="#8D93A6" stroke-linejoin="round"/>
</svg>
