<svg xmlns="http://www.w3.org/2000/svg" width="14" height="12" viewBox="0 0 14 12" fill="none">
  <path d="M12.8258 4.17247V9.5C12.8258 10.3284 12.1542 11 11.3258 11H2.67419C1.84577 11 1.17419 10.3284 1.17419 9.5V2.5C1.17419 1.67157 1.84577 1 2.6742 1H4.86078C5.20344 1 5.52225 1.17546 5.7056 1.46495L6.17589 2.20753C6.35924 2.49702 6.67805 2.67247 7.02071 2.67247H11.3258C12.1542 2.67247 12.8258 3.34405 12.8258 4.17247Z" stroke="#8D93A6" stroke-width="1.2" stroke-linecap="round"/>
  <path opacity="0.2" d="M11.8258 3.17247V8.5C11.8258 9.32843 11.1542 10 10.3258 10H1.67419C0.845766 10 0.174194 9.32843 0.174194 8.5V1.5C0.174194 0.671573 0.845768 0 1.6742 0H3.86078C4.20344 0 4.52225 0.175456 4.7056 0.464948L5.17589 1.20753C5.35924 1.49702 5.67805 1.67247 6.02071 1.67247H10.3258C11.1542 1.67247 11.8258 2.34405 11.8258 3.17247Z" fill="#8D93A6"/>
</svg>
