<svg xmlns="http://www.w3.org/2000/svg" width="12" height="12" fill="none"><path fill-rule="evenodd" clip-rule="evenodd" d="M8 8.75a.25.25 0 0 1 .25.25v1a.25.25 0 0 1-.25.25H7a.25.25 0 0 1-.25-.25V9A.25.25 0 0 1 7 8.75h1Zm-3 0a.25.25 0 0 1 .25.25v1a.25.25 0 0 1-.25.25H4a.25.25 0 0 1-.25-.25V9A.25.25 0 0 1 4 8.75h1Zm2-3.5h1a.25.25 0 0 1 .25.25v1a.25.25 0 0 1-.25.25H7a.25.25 0 0 1-.25-.25v-1A.25.25 0 0 1 7 5.25Zm-3 0h1a.25.25 0 0 1 .25.25v1a.25.25 0 0 1-.25.25H4a.25.25 0 0 1-.25-.25v-1A.25.25 0 0 1 4 5.25Zm4-3.5a.25.25 0 0 1 .25.25v1a.25.25 0 0 1-.25.25H7A.25.25 0 0 1 6.75 3V2A.25.25 0 0 1 7 1.75h1Zm-3 0a.25.25 0 0 1 .25.25v1a.25.25 0 0 1-.25.25H4A.25.25 0 0 1 3.75 3V2A.25.25 0 0 1 4 1.75h1Z" fill="#ADB0B8"/></svg>