<svg xmlns="http://www.w3.org/2000/svg" width="14" height="12" viewBox="0 0 14 12" fill="none">
  <path opacity="0.2" fill-rule="evenodd" clip-rule="evenodd" d="M1.77441 2.49999C1.77441 2.00293 2.17736 1.59999 2.67441 1.59999H4.861C4.99806 1.59999 5.12559 1.67017 5.19892 1.78597L5.66922 2.52855C5.96257 2.99174 6.47266 3.27246 7.02093 3.27246H11.326C11.823 3.27246 12.226 3.67541 12.226 4.17246V9.49999C12.226 9.99705 11.823 10.4 11.326 10.4H2.67441C2.17736 10.4 1.77441 9.99705 1.77441 9.49999V2.49999Z" fill="black"/>
  <path fill-rule="evenodd" clip-rule="evenodd" d="M0.574219 2.49999C0.574219 1.3402 1.51442 0.399994 2.67422 0.399994H4.8608C5.40907 0.399994 5.91916 0.680723 6.21251 1.14391L6.68281 1.88649C6.75615 2.00229 6.88367 2.07247 7.02074 2.07247H11.3258C12.4856 2.07247 13.4258 3.01267 13.4258 4.17247V9.49999C13.4258 10.6598 12.4856 11.6 11.3258 11.6H2.67422C1.51442 11.6 0.574219 10.6598 0.574219 9.49999V2.49999ZM2.67422 1.59999C2.17716 1.59999 1.77422 2.00294 1.77422 2.49999V9.49999C1.77422 9.99705 2.17716 10.4 2.67422 10.4H11.3258C11.8228 10.4 12.2258 9.99705 12.2258 9.49999V4.17247C12.2258 3.67541 11.8228 3.27247 11.3258 3.27247H7.02074C6.47247 3.27247 5.96238 2.99174 5.66903 2.52855L5.19873 1.78597C5.12539 1.67018 4.99787 1.59999 4.8608 1.59999H2.67422Z" fill="black"/>
</svg>
