<svg xmlns="http://www.w3.org/2000/svg" width="14" height="12" viewBox="0 0 14 12" fill="none">
  <path d="M5.42838 1.46189C5.09175 1.46189 4.81885 1.73478 4.81885 2.07141C4.81885 2.40804 5.09175 2.68094 5.42838 2.68094H6.7379V4.08094H3.4998C2.78183 4.08094 2.1998 4.66297 2.1998 5.38094V6.61903C2.1998 7.31024 2.73926 7.87546 3.42011 7.91663C3.46416 6.46403 4.65557 5.29998 6.11885 5.29998H7.88076C8.59873 5.29998 9.18076 4.71796 9.18076 3.99999V2.76189C9.18076 2.04392 8.59873 1.46189 7.88076 1.46189H5.42838ZM3.42001 9.31788C1.96575 9.27567 0.799805 8.08351 0.799805 6.61903V5.38094C0.799805 3.88977 2.00863 2.68094 3.4998 2.68094H3.51296C3.45183 2.48869 3.41885 2.2839 3.41885 2.07141C3.41885 0.961584 4.31855 0.0618896 5.42838 0.0618896H7.88076C9.34523 0.0618896 10.5374 1.22783 10.5796 2.6821C12.0339 2.7243 13.1998 3.91646 13.1998 5.38094V6.61903C13.1998 8.1102 11.991 9.31903 10.4998 9.31903H10.4867C10.5478 9.51128 10.5808 9.71607 10.5808 9.92856C10.5808 11.0384 9.68106 11.9381 8.57123 11.9381H6.11885C4.65437 11.9381 3.46222 10.7721 3.42001 9.31788ZM10.4998 7.91903C11.2178 7.91903 11.7998 7.337 11.7998 6.61903V5.38094C11.7998 4.68973 11.2604 4.12451 10.5795 4.08334C10.5354 5.53594 9.34404 6.69999 7.88076 6.69999H6.11885C5.40088 6.69999 4.81885 7.28202 4.81885 7.99999V9.23808C4.81885 9.95605 5.40088 10.5381 6.11885 10.5381H8.57123C8.90786 10.5381 9.18076 10.2652 9.18076 9.92856C9.18076 9.59193 8.90786 9.31903 8.57123 9.31903H6.7379V7.91903H10.4998Z" fill="black"/>
</svg>
