<svg xmlns="http://www.w3.org/2000/svg" width="14" height="12" viewBox="0 0 14 12" fill="none">
  <path d="M9.57938 0.102171C9.91284 0.0825179 10.2193 0.198847 10.4806 0.362107C11.0485 0.717064 11.3393 1.25456 11.3195 1.87785C11.3019 2.43555 11.0385 2.9859 10.7069 3.47375C10.3899 3.94005 9.96217 4.41896 9.46874 4.88728C9.51567 5.3682 9.58427 5.86637 9.67323 6.36304C9.72798 6.66871 9.78952 6.96861 9.85696 7.25893C10.5188 7.5428 11.126 7.85125 11.6295 8.17132C12.1646 8.51152 12.652 8.90763 12.9351 9.35615C13.0815 9.58818 13.1943 9.86751 13.1982 10.1809C13.2023 10.5067 13.0877 10.8047 12.8875 11.055C12.443 11.6105 11.8591 11.996 11.1661 11.879C10.5378 11.773 10.0788 11.2858 9.75826 10.8018C9.33053 10.156 8.97638 9.25209 8.70274 8.26491C8.1651 8.058 7.59337 7.86624 7.01357 7.69882C6.67145 7.60003 6.33108 7.51104 5.99771 7.43306C5.2514 7.86088 4.51144 8.21539 3.8495 8.44923C3.28412 8.64896 2.7141 8.7832 2.22224 8.7604C1.71529 8.73689 1.12023 8.52073 0.90128 7.86386C0.802451 7.56736 0.765055 7.2504 0.843595 6.93768C0.924351 6.61613 1.11154 6.36393 1.34823 6.1809C1.78505 5.84312 2.40068 5.72983 2.98514 5.702C3.77586 5.66434 4.74898 5.7755 5.76413 5.98288C6.1228 5.76305 6.48305 5.52517 6.83498 5.27475C7.26863 4.96619 7.68014 4.64534 8.05403 4.32363C8.00613 3.50321 8.02154 2.73159 8.11501 2.09404C8.19974 1.51613 8.3672 0.902636 8.73869 0.507634C8.9459 0.287311 9.22947 0.122795 9.57938 0.102171ZM9.40636 2.94028C9.46747 2.86083 9.52433 2.78251 9.57667 2.70551C9.85047 2.30269 9.948 2.01185 9.95361 1.83461C9.95714 1.72296 9.9335 1.63175 9.75629 1.521C9.73426 1.50723 9.7156 1.49687 9.70015 1.48908C9.6319 1.59592 9.53333 1.84093 9.46716 2.29228C9.43824 2.48953 9.41807 2.70687 9.40636 2.94028ZM8.22164 5.94821C8.02652 6.09857 7.82779 6.24557 7.62728 6.38824C7.60524 6.40392 7.58316 6.41957 7.56103 6.43517C7.8224 6.51284 8.08359 6.59557 8.34231 6.68275C8.3375 6.65648 8.33274 6.63023 8.32804 6.60397C8.28914 6.38678 8.25359 6.1677 8.22164 5.94821ZM3.63808 7.0698C3.42794 7.05956 3.23106 7.05844 3.05014 7.06705C2.53439 7.09161 2.27624 7.19081 2.1842 7.26198C2.17625 7.26814 2.17131 7.27264 2.1684 7.2756C2.1673 7.28798 2.16687 7.32195 2.18351 7.38445C2.20478 7.38871 2.2374 7.39303 2.28554 7.39526C2.51552 7.40593 2.88856 7.33933 3.3943 7.16067C3.47384 7.13257 3.55517 7.10224 3.63808 7.0698ZM2.14893 7.37288C2.14984 7.37241 2.15527 7.37407 2.16248 7.37929C2.15162 7.37595 2.14801 7.37335 2.14893 7.37288ZM2.16476 7.27993C2.16467 7.27994 2.16502 7.27935 2.16607 7.27811C2.16538 7.27931 2.16485 7.27992 2.16476 7.27993ZM10.3914 9.02941C10.5497 9.43282 10.7201 9.77918 10.8976 10.0472C11.1593 10.4422 11.3406 10.5226 11.3935 10.5315C11.4044 10.5333 11.4301 10.5376 11.4897 10.5066C11.5594 10.4704 11.6728 10.3857 11.8203 10.2013C11.8244 10.1962 11.8274 10.1921 11.8296 10.189C11.8254 10.1731 11.8133 10.1393 11.7793 10.0855C11.6592 9.89514 11.3776 9.63056 10.8963 9.32461C10.741 9.22587 10.572 9.12723 10.3914 9.02941Z" fill="black"/>
</svg>
