<svg xmlns="http://www.w3.org/2000/svg" width="14" height="14" viewBox="0 0 14 14" fill="none">
  <path d="M7.8498 0.331608C7.32382 0.027932 6.67579 0.0279328 6.1498 0.331608L1.6498 2.92968C1.12382 3.23336 0.799805 3.79458 0.799805 4.40193V9.59808C0.799805 10.2054 1.12382 10.7666 1.64981 11.0703L6.1498 13.6684C6.67579 13.9721 7.32382 13.9721 7.8498 13.6684L12.3498 11.0703C12.8758 10.7666 13.1998 10.2054 13.1998 9.59808V4.40193C13.1998 3.79458 12.8758 3.23336 12.3498 2.92968L7.8498 0.331608ZM6.8498 1.54404C6.94262 1.49045 7.05698 1.49045 7.1498 1.54404L11.6498 4.14212C11.7426 4.19571 11.7998 4.29475 11.7998 4.40193V9.59808C11.7998 9.70526 11.7426 9.8043 11.6498 9.85789L7.14981 12.456C7.05698 12.5096 6.94262 12.5096 6.8498 12.456L2.34981 9.85789C2.25698 9.8043 2.1998 9.70526 2.1998 9.59808V4.40193C2.1998 4.29475 2.25698 4.19571 2.3498 4.14212L6.8498 1.54404ZM5.89985 4.50007C5.89985 4.11347 5.58645 3.80007 5.19985 3.80007C4.81325 3.80007 4.49985 4.11347 4.49985 4.50007V6.9917L4.4998 7.00007L4.49985 7.00844L4.49985 9.50007C4.49985 9.88667 4.81325 10.2001 5.19985 10.2001C5.58645 10.2001 5.89985 9.88667 5.89985 9.50007V7.70007H8.24985V9.50007C8.24985 9.88667 8.56325 10.2001 8.94985 10.2001C9.33645 10.2001 9.64985 9.88667 9.64985 9.50007V4.50007C9.64985 4.11347 9.33645 3.80007 8.94985 3.80007C8.56325 3.80007 8.24985 4.11347 8.24985 4.50007V6.30007H5.89985V4.50007Z" fill="black"/>
</svg>
