<svg xmlns="http://www.w3.org/2000/svg" width="4" height="14" viewBox="0 0 4 14" fill="none">
  <path d="M1.49455 0.5H3.73841C3.895 0.5 4.01603 0.637407 3.99633 0.792753L2.95594 8.98549C2.93943 9.11543 2.82893 9.2128 2.69802 9.2128H1.10442C0.955965 9.2128 0.837651 9.08871 0.84471 8.94038L1.23484 0.747633C1.24144 0.609004 1.35576 0.5 1.49455 0.5ZM1.66153 13.5C2.5781 13.5 3.32111 12.757 3.32111 11.8404C3.32111 10.9239 2.5781 10.1808 1.66153 10.1808C0.744968 10.1808 0.00195312 10.9239 0.00195312 11.8404C0.00195312 12.757 0.744968 13.5 1.66153 13.5Z" fill="black"/>
</svg>
