<svg xmlns="http://www.w3.org/2000/svg" width="12" height="12" viewBox="0 0 12 12" fill="none">
  <path d="M10.5441 2.66901L10.5288 2.34732L9.13073 2.34792V4.70548C9.98394 4.43293 10.5889 3.61368 10.5441 2.66901ZM9.04191 6.16084C8.69438 7.62944 7.36825 8.73068 5.79739 8.73068H3.57516C1.74182 8.73068 0.241821 7.23067 0.241821 5.39733V1.50841C0.241821 1.17508 0.464044 0.952854 0.797378 0.952854H3.45126C3.47093 0.951185 3.49083 0.950329 3.51093 0.95032L11.0606 0.947083C11.5103 0.94689 11.8807 1.30007 11.902 1.74925L11.9425 2.60268C12.0269 4.3813 10.7463 5.89645 9.04191 6.16084ZM3.57516 7.33067H5.79739C6.85753 7.33067 7.73073 6.45747 7.73073 5.39733V2.35286H1.64182V5.39733C1.64182 6.45747 2.51502 7.33067 3.57516 7.33067ZM0.0532227 10.3529C0.0532227 9.9663 0.366623 9.6529 0.753223 9.6529H8.75322C9.13982 9.6529 9.45322 9.9663 9.45322 10.3529C9.45322 10.7395 9.13982 11.0529 8.75322 11.0529H0.753223C0.366623 11.0529 0.0532227 10.7395 0.0532227 10.3529Z" fill="black"/>
</svg>
