<svg xmlns="http://www.w3.org/2000/svg" width="14" height="10" viewBox="0 0 14 10" fill="none">
  <path d="M4.42917 1.95915C4.68275 1.66734 4.65176 1.2252 4.35995 0.971623C4.06813 0.718041 3.626 0.749034 3.37242 1.04085L0.22143 4.66691C-0.0136739 4.93746 -0.0064279 5.34189 0.238216 5.60384L3.38921 8.97778C3.65308 9.26032 4.09604 9.27546 4.37858 9.01159C4.66112 8.74772 4.67626 8.30476 4.41238 8.02222L1.69184 5.10918L4.42917 1.95915ZM10.6273 1.04085C10.3737 0.749034 9.93159 0.718041 9.63978 0.971623C9.34796 1.2252 9.31697 1.66734 9.57055 1.95915L12.3079 5.10918L9.58734 8.02222C9.32347 8.30476 9.3386 8.74772 9.62114 9.01159C9.90369 9.27546 10.3466 9.26032 10.6105 8.97778L13.7615 5.60384C14.0061 5.34189 14.0134 4.93746 13.7783 4.66691L10.6273 1.04085Z" fill="black"/>
</svg>
