<svg xmlns="http://www.w3.org/2000/svg" width="14" height="12" viewBox="0 0 14 12" fill="none">
  <path d="M7.02378 1.72771C7.02378 1.56199 6.88941 1.42766 6.72369 1.42771L3.60345 1.42863C3.43779 1.42868 3.30353 1.56298 3.30353 1.72863V4.45317C3.30353 4.61885 3.43785 4.75317 3.60353 4.75317L6.72378 4.75317C6.88946 4.75317 7.02378 4.61886 7.02378 4.45317V1.72771ZM6.72328 0.02771C7.66236 0.0274323 8.42378 0.78863 8.42378 1.72771V4.45317C8.42378 5.39206 7.66266 6.15317 6.72378 6.15317L3.60353 6.15317C2.66465 6.15317 1.90353 5.39205 1.90353 4.45317V1.72863C1.90353 0.789944 2.66435 0.0289105 3.60303 0.0286329L6.72328 0.02771ZM10.2353 3.88592L10.9289 4.43607C11.2594 4.68962 11.5707 5.02095 11.7706 5.43405C12.2144 5.42417 12.6808 5.51844 13.0804 5.76162L13.0859 5.76495L13.8147 6.21778L13.3923 6.94202C12.9643 7.78364 12.1734 8.07556 11.4589 8.13759C10.1722 10.7698 7.6863 11.9723 4.81079 11.9723C3.17958 11.9723 1.57606 11.3388 0.664912 9.83002L0.56412 9.66312V9.61966L0.515348 9.53218L0.502324 9.50276C0.327816 9.1085 0.233547 8.65341 0.192598 8.22895C0.0951238 7.21855 0.959959 6.56089 1.79086 6.56089H8.93646C9.04178 6.56229 9.14678 6.5552 9.25068 6.53964C9.22825 6.43953 9.21221 6.34008 9.20173 6.24315L9.20075 6.23407L9.20001 6.22498C9.17831 5.95969 9.20272 5.66539 9.27255 5.38786C9.33996 5.11997 9.4629 4.81566 9.67846 4.56618L10.2353 3.88592ZM10.0754 7.7651L10.0384 7.78427L9.98153 7.80239C9.6398 7.91121 9.28295 7.96515 8.92274 7.96089H1.79086C1.70985 7.96089 1.64804 7.99231 1.61526 8.02392C1.59992 8.03871 1.59291 8.05136 1.58974 8.05951C1.58706 8.06641 1.5844 8.07658 1.58613 8.09451C1.61667 8.41112 1.68194 8.69723 1.771 8.90938L1.96412 9.25578V9.2618C2.57239 10.1376 3.5972 10.5723 4.81079 10.5723C7.16185 10.5723 9.03499 9.66422 10.0754 7.7651Z" fill="black"/>
</svg>
