<svg xmlns="http://www.w3.org/2000/svg" width="14" height="14" viewBox="0 0 14 14" fill="none">
  <path d="M7.49093 3.08423L11.6832 2.43927V6.3067H7.49093V3.08423ZM6.09093 3.29962V6.3067H2.3165V3.8803L6.09093 3.29962ZM2.3165 7.7067H6.09093V10.4672L2.3165 9.74131V7.7067ZM7.47141 10.7326C7.48417 10.6798 7.49093 10.6246 7.49093 10.5678V7.7067H11.6832V11.5426L7.47141 10.7326ZM13.0832 1.97302C13.0832 1.36014 12.5369 0.891458 11.9311 0.984652L1.76445 2.54876C1.27661 2.62381 0.916504 3.04356 0.916504 3.53713V10.0717C0.916504 10.5512 1.25681 10.9632 1.72766 11.0537L11.8944 13.0089C12.5111 13.1275 13.0832 12.6549 13.0832 12.0269V1.97302Z" fill="black"/>
</svg>
