<svg xmlns="http://www.w3.org/2000/svg" width="14" height="10" viewBox="0 0 14 10" fill="none">
  <path d="M13.2861 5.55707C13.489 5.85903 13.5826 6.22056 13.5826 6.65158V6.65695C13.5826 8.13937 12.4279 9.0632 10.6232 9.0632C9.85487 9.0632 9.20652 8.87914 8.71171 8.56227C9.20652 8.87915 9.85488 9.06323 10.6232 9.06323C12.4279 9.06323 13.5827 8.1394 13.5827 6.65698V6.65161C13.5827 6.22057 13.489 5.85903 13.2861 5.55707ZM8.99983 7.30414C8.97845 7.27249 8.95592 7.2409 8.93227 7.20987L8.99983 7.30414ZM9.17845 3.65727C9.07933 3.50771 9.03333 3.33719 9.03333 3.14426V3.13889C9.03333 2.40842 9.70471 1.9841 10.6124 1.9841C11.0436 1.98164 11.4069 2.09218 11.6838 2.27374C11.4069 2.09219 11.0436 1.98166 10.6125 1.98412C9.70474 1.98412 9.03335 2.40844 9.03335 3.13891V3.14428C9.03335 3.3372 9.07935 3.50772 9.17845 3.65727ZM12.4428 3.03806C12.5468 3.10365 12.6623 3.14428 12.7877 3.14428C13.1389 3.14428 13.4231 2.83964 13.2948 2.51266C13.2063 2.28678 13.0794 2.07535 12.9179 1.88526C13.0794 2.07535 13.2062 2.28677 13.2948 2.51263C13.423 2.83962 13.1389 3.14426 12.7876 3.14426C12.6623 3.14426 12.5468 3.10364 12.4428 3.03806ZM8.70497 4.89345C9.04978 5.11833 9.50132 5.29055 10.07 5.41088L10.9186 5.5935C11.4315 5.70361 11.7927 5.85534 12.0257 6.05407C11.7928 5.85533 11.4315 5.70359 10.9186 5.59348L10.0699 5.41086C9.50131 5.29053 9.04978 5.11832 8.70497 4.89345ZM8.28374 4.68184C8.66866 5.06817 9.25238 5.34007 10.0491 5.50869L10.8976 5.69127C11.404 5.79997 11.7463 5.94715 11.9608 6.13015C12.1703 6.30881 12.2634 6.52612 12.2634 6.79662V6.802C12.2634 7.12538 12.1067 7.40012 11.83 7.5974C11.5514 7.79607 11.1502 7.91586 10.6715 7.91586C9.92383 7.91586 9.34957 7.64305 9.08271 7.24817C8.90989 6.99244 8.63951 6.702 8.27887 6.702C8.07747 6.702 7.89299 6.78959 7.77559 6.92851C7.65671 7.06919 7.60714 7.26304 7.68172 7.46201C8.06534 8.48552 9.13649 9.16323 10.6232 9.16323C11.5415 9.16323 12.3058 8.92822 12.8426 8.49374C13.3817 8.05739 13.6827 7.42657 13.6827 6.65698V6.65161C13.6827 6.05533 13.5088 5.57577 13.1151 5.20206C12.7257 4.8325 12.131 4.57615 11.3102 4.40002L10.4669 4.21202C9.97116 4.10599 9.63682 3.96279 9.42762 3.78567C9.22354 3.6129 9.13335 3.40367 9.13335 3.14428V3.13891C9.13335 2.80872 9.28324 2.54957 9.53995 2.36945C9.79979 2.18712 10.1732 2.08412 10.613 2.08412C11.2748 2.08034 11.7567 2.35334 12.0013 2.72331C12.1698 2.97806 12.4378 3.24428 12.7877 3.24428C12.9916 3.24428 13.1788 3.15601 13.2974 3.01564C13.4177 2.87332 13.4667 2.67709 13.3879 2.47615C13.0161 1.5279 12.0071 0.836761 10.6286 0.836761C9.78873 0.836761 9.06437 1.07279 8.54712 1.48786C8.02836 1.90413 7.72229 2.49792 7.71948 3.19799V3.20336C7.71948 3.79693 7.89596 4.29264 8.28374 4.68184ZM2.75586 8.27368C2.75586 8.66114 3.06996 8.97524 3.45742 8.97524C3.84488 8.97524 4.15898 8.66114 4.15898 8.27368V2.26137H5.97378C6.31526 2.26137 6.59209 1.98454 6.59209 1.64306C6.59209 1.30158 6.31526 1.02475 5.97378 1.02475H0.935693C0.59421 1.02475 0.317383 1.30158 0.317383 1.64306C0.317383 1.98454 0.59421 2.26137 0.935693 2.26137H2.75586V8.27368ZM5.97378 2.16137H4.05898V8.27368C4.05898 8.60591 3.78966 8.87524 3.45742 8.87524C3.29 8.87524 3.13855 8.80684 3.0295 8.69647C3.13855 8.80683 3.28999 8.87521 3.4574 8.87521C3.78963 8.87521 4.05896 8.60588 4.05896 8.27365V2.16135H5.97375C6.26001 2.16135 6.49207 1.92929 6.49207 1.64304C6.49207 1.50103 6.43496 1.37237 6.34246 1.27875C6.43497 1.37237 6.49209 1.50104 6.49209 1.64306C6.49209 1.92932 6.26003 2.16137 5.97378 2.16137ZM2.85583 2.16137V2.16135H0.935669C0.791429 2.16135 0.660951 2.10243 0.566989 2.00734C0.660953 2.10244 0.791441 2.16137 0.935693 2.16137H2.85583Z" fill="black"/>
</svg>
