<svg xmlns="http://www.w3.org/2000/svg" width="14" height="14" viewBox="0 0 14 14" fill="none">
  <path d="M7.49678 13.6684L9.50889 12.5067L8.28035 11.5994L6.79678 12.456C6.70396 12.5096 6.5896 12.5096 6.49678 12.456L1.99678 9.85789C1.90396 9.8043 1.84678 9.70526 1.84678 9.59808V4.40193C1.84678 4.29475 1.90396 4.19571 1.99678 4.14212L6.49678 1.54404C6.5896 1.49045 6.70396 1.49045 6.79678 1.54404L8.25787 2.38761L9.48199 1.47777L7.49678 0.331608C6.97079 0.027932 6.32276 0.0279328 5.79678 0.331608L1.29678 2.92968C0.770795 3.23336 0.446777 3.79458 0.446777 4.40193V9.59808C0.446777 10.2054 0.770796 10.7666 1.29678 11.0703L5.79678 13.6684C6.32276 13.9721 6.9708 13.9721 7.49678 13.6684ZM11.4949 6.18284C11.1083 6.18284 10.7949 5.86944 10.7949 5.48284V4.82464H10.1366C9.74996 4.82464 9.43656 4.51123 9.43656 4.12463C9.43656 3.73804 9.74996 3.42463 10.1366 3.42463H10.7949V2.76638C10.7949 2.37978 11.1083 2.06638 11.4949 2.06638C11.8815 2.06638 12.1949 2.37978 12.1949 2.76638V3.42463H12.853C13.2396 3.42463 13.553 3.73804 13.553 4.12463C13.553 4.51123 13.2396 4.82464 12.853 4.82464H12.1949V5.48284C12.1949 5.86944 11.8815 6.18284 11.4949 6.18284ZM11.4949 11.9335C11.1083 11.9335 10.7949 11.6201 10.7949 11.2335V10.5752H10.1366C9.74996 10.5752 9.43656 10.2618 9.43656 9.87525C9.43656 9.48865 9.74996 9.17525 10.1366 9.17525H10.7949V8.51699C10.7949 8.13039 11.1083 7.81699 11.4949 7.81699C11.8815 7.81699 12.1949 8.13039 12.1949 8.51699V9.17525H12.853C13.2396 9.17525 13.553 9.48865 13.553 9.87525C13.553 10.2618 13.2396 10.5752 12.853 10.5752H12.1949V11.2335C12.1949 11.6201 11.8815 11.9335 11.4949 11.9335ZM9.20965 5.31794C8.84627 4.79898 8.32792 4.40837 7.7289 4.20212C7.12988 3.99586 6.48094 3.98453 5.87508 4.16976C5.26923 4.35498 4.73756 4.72726 4.35629 5.23323C3.97502 5.73919 3.76371 6.35287 3.75265 6.98631C3.7416 7.61975 3.93136 8.24044 4.29474 8.7594C4.65812 9.27836 5.17647 9.66897 5.77549 9.87523C6.37451 10.0815 7.02346 10.0928 7.62931 9.90759C8.23517 9.72236 8.76683 9.35008 9.1481 8.84412L8.05233 8.01839C7.84543 8.29295 7.55693 8.49497 7.22816 8.59548C6.8994 8.69599 6.54725 8.68985 6.22219 8.57792C5.89713 8.46599 5.61585 8.25403 5.41867 7.97242C5.22148 7.6908 5.1185 7.35399 5.1245 7.01026C5.1305 6.66652 5.24517 6.33351 5.45207 6.05895C5.65896 5.78439 5.94747 5.58238 6.27623 5.48186C6.605 5.38135 6.95715 5.3875 7.2822 5.49942C7.60726 5.61135 7.88854 5.82331 8.08573 6.10492L9.20965 5.31794Z" fill="black"/>
</svg>
