<svg xmlns="http://www.w3.org/2000/svg" width="14" height="10" viewBox="0 0 14 10" fill="none">
  <path d="M8.44154 1.15369C8.52643 0.776527 8.28949 0.401959 7.91233 0.31707C7.53516 0.232182 7.16059 0.469118 7.07571 0.846282L5.27514 8.84628C5.19025 9.22345 5.42719 9.59802 5.80435 9.6829C6.18152 9.76779 6.55608 9.53086 6.64097 9.15369L8.44154 1.15369ZM4.35995 1.06316C4.65176 1.31675 4.68275 1.75888 4.42917 2.05069L1.69184 5.20072L4.41238 8.11376C4.67626 8.3963 4.66112 8.83926 4.37858 9.10313C4.09604 9.367 3.65308 9.35187 3.38921 9.06932L0.238216 5.69538C-0.0064279 5.43343 -0.0136739 5.029 0.22143 4.75845L3.37242 1.13239C3.626 0.840575 4.06813 0.809582 4.35995 1.06316ZM9.63978 1.06316C9.93159 0.809582 10.3737 0.840575 10.6273 1.13239L13.7783 4.75845C14.0134 5.029 14.0061 5.43343 13.7615 5.69538L10.6105 9.06932C10.3466 9.35187 9.90369 9.367 9.62114 9.10313C9.3386 8.83926 9.32347 8.3963 9.58734 8.11376L12.3079 5.20072L9.57055 2.05069C9.31697 1.75888 9.34796 1.31675 9.63978 1.06316Z" fill="black"/>
</svg>
