<svg xmlns="http://www.w3.org/2000/svg" width="14" height="14" viewBox="0 0 14 14" fill="none">
  <path d="M7.0001 0.100037C3.18933 0.100037 0.100098 3.18927 0.100098 7.00004C0.100098 10.8108 3.18933 13.9 7.0001 13.9C7.31781 13.9 7.61907 13.8407 7.88854 13.6996C8.16192 13.5565 8.36215 13.3504 8.50529 13.1197C8.7705 12.6922 8.84737 12.1605 8.89291 11.7415C8.90953 11.5885 8.9225 11.4449 8.93494 11.3071V11.3071C8.96151 11.0129 8.98565 10.7455 9.03778 10.4714C9.11069 10.0879 9.2206 9.81873 9.38406 9.63422L8.90949 9.21379L9.38406 9.63421C9.48818 9.51669 9.7157 9.38744 10.1426 9.26328C10.4389 9.1771 10.752 9.11321 11.0935 9.04351L11.0935 9.04351L11.0936 9.04349C11.2376 9.0141 11.3867 8.98369 11.5417 8.95013C12.0199 8.84659 12.5719 8.70941 13.0092 8.45604C13.4862 8.17966 13.9001 7.71558 13.9001 7.00004C13.9001 3.18927 10.8109 0.100037 7.0001 0.100037ZM1.5001 7.00004C1.5001 3.96247 3.96253 1.50004 7.0001 1.50004C10.0377 1.50004 12.5001 3.96247 12.5001 7.00004C12.5001 7.07276 12.4926 7.13732 12.3073 7.24467C12.0823 7.37503 11.731 7.47669 11.2454 7.58183C11.1284 7.60717 11.0023 7.63291 10.8712 7.65967L10.8712 7.65967C10.5082 7.73376 10.1067 7.81571 9.7516 7.91899C9.27388 8.05793 8.71661 8.27637 8.33614 8.70586C7.93166 9.16242 7.75605 9.71749 7.66242 10.2099C7.59691 10.5544 7.56246 10.9339 7.53317 11.2567C7.52221 11.3774 7.51198 11.4902 7.5011 11.5902C7.45458 12.0184 7.3949 12.2538 7.31563 12.3816C7.28653 12.4285 7.26253 12.4471 7.23927 12.4593C7.21209 12.4735 7.14429 12.5 7.0001 12.5C3.96253 12.5 1.5001 10.0376 1.5001 7.00004ZM9.28037 4.04689C9.28037 4.51634 8.89982 4.89689 8.43037 4.89689C7.96091 4.89689 7.58037 4.51634 7.58037 4.04689C7.58037 3.57743 7.96091 3.19689 8.43037 3.19689C8.89982 3.19689 9.28037 3.57743 9.28037 4.04689ZM5.70005 5.24029C5.70005 5.70974 5.3195 6.09029 4.85005 6.09029C4.38059 6.09029 4.00005 5.70974 4.00005 5.24029C4.00005 4.77083 4.38059 4.39029 4.85005 4.39029C5.3195 4.39029 5.70005 4.77083 5.70005 5.24029ZM5.14843 9.96899C5.61788 9.96899 5.99843 9.58844 5.99843 9.11899C5.99843 8.64953 5.61788 8.26899 5.14843 8.26899C4.67897 8.26899 4.29843 8.64953 4.29843 9.11899C4.29843 9.58844 4.67897 9.96899 5.14843 9.96899Z" fill="black"/>
</svg>
