<svg xmlns="http://www.w3.org/2000/svg" width="14" height="14" viewBox="0 0 14 14" fill="none">
  <path d="M7.26338 13.6684C6.7374 13.9721 6.08936 13.9721 5.56338 13.6684L1.06338 11.0703C0.537398 10.7666 0.213379 10.2054 0.213379 9.59808V4.40193C0.213379 3.79458 0.537397 3.23336 1.06338 2.92968L5.56338 0.331608C6.08936 0.0279328 6.7374 0.027932 7.26338 0.331608L10.5709 2.24121L9.51718 3.24942L6.56338 1.54404C6.47056 1.49045 6.3562 1.49045 6.26338 1.54404L1.76338 4.14212C1.67056 4.19571 1.61338 4.29475 1.61338 4.40193V9.59808C1.61338 9.70526 1.67056 9.8043 1.76338 9.85789L6.26338 12.456C6.3562 12.5096 6.47056 12.5096 6.56338 12.456L9.59752 10.7042L10.6263 11.7268L7.26338 13.6684ZM9.11346 5.52188C8.75008 5.00292 8.23173 4.61231 7.63271 4.40605C7.03369 4.19979 6.38475 4.18847 5.77889 4.3737C5.17304 4.55892 4.64137 4.9312 4.2601 5.43716C3.87883 5.94313 3.66752 6.55681 3.65646 7.19025C3.64541 7.82369 3.83517 8.44438 4.19855 8.96334C4.56193 9.4823 5.08028 9.87291 5.6793 10.0792C6.27832 10.2854 6.92727 10.2968 7.53312 10.1115C8.13898 9.9263 8.67064 9.55402 9.05191 9.04806L7.95614 8.22233C7.74924 8.49689 7.46074 8.6989 7.13197 8.79942C6.8032 8.89993 6.45106 8.89379 6.126 8.78186C5.80094 8.66993 5.51966 8.45797 5.32247 8.17636C5.12529 7.89474 5.02231 7.55793 5.02831 7.2142C5.03431 6.87046 5.14898 6.53745 5.35587 6.26289C5.56277 5.98833 5.85128 5.78631 6.18004 5.6858C6.50881 5.58529 6.86095 5.59143 7.18601 5.70336C7.51107 5.81529 7.79235 6.02725 7.98954 6.30886L9.11346 5.52188ZM12.6573 8.26198H12.8755C13.1517 8.26198 13.3755 8.03812 13.3755 7.76198C13.3755 7.5024 13.1777 7.28901 12.9246 7.26436L13.1128 6.56198H13.2868C13.5629 6.56198 13.7868 6.33812 13.7868 6.06198C13.7868 5.8159 13.609 5.61133 13.3749 5.56972C13.4099 5.32296 13.2559 5.08326 13.0091 5.01713C12.7424 4.94566 12.4682 5.10395 12.3967 5.37068L12.3455 5.56198H11.6758C11.7065 5.31797 11.5532 5.08259 11.309 5.01715C11.0422 4.94568 10.7681 5.10397 10.6966 5.3707L10.6453 5.56198H10.3238C10.0477 5.56198 9.82383 5.78584 9.82383 6.06198C9.82383 6.33812 10.0477 6.56198 10.3238 6.56198H10.3774L10.1898 7.26198H9.91257C9.63643 7.26198 9.41257 7.48584 9.41257 7.76198C9.41257 8.03812 9.63643 8.26198 9.91257 8.26198H9.92281C9.86999 8.51921 10.0263 8.77621 10.2833 8.84507C10.55 8.91654 10.8242 8.75825 10.8957 8.49151L10.9572 8.26198H11.6229C11.5701 8.51921 11.7264 8.77619 11.9834 8.84505C12.2501 8.91652 12.5243 8.75823 12.5958 8.49149L12.6573 8.26198ZM11.2251 7.26198L11.4127 6.56198H12.0775L11.89 7.26198H11.2251Z" fill="black"/>
</svg>
