<svg width="16" height="16" viewBox="0 0 16 16" fill="none" xmlns="http://www.w3.org/2000/svg">
    <path fill-rule="evenodd" clip-rule="evenodd" d="M7.5992 7.49785e-06L7.60114 0H8.47765C8.82808 0.00104079 9.17011 0.107793 9.45891 0.306366C9.74771 0.504939 9.96987 0.786094 10.0961 1.11307L10.4683 2.07303L11.6145 2.73196L12.64 2.57568L12.6509 2.5741C12.9927 2.52774 13.3407 2.58396 13.6505 2.73565C13.9604 2.88734 14.2182 3.12769 14.391 3.42623L14.3929 3.42944L14.8177 4.17216C14.9945 4.47454 15.0759 4.8233 15.0512 5.17279C15.0264 5.52292 14.8962 5.85729 14.6778 6.13196C14.6772 6.13271 14.6766 6.13346 14.676 6.13414L14.0446 6.93801V8.25704L14.6974 9.06586C14.9168 9.34096 15.0476 9.67618 15.0725 10.0272C15.0973 10.3767 15.0158 10.7254 14.839 11.0279L14.4143 11.7706L14.4124 11.7738C14.2395 12.0723 13.9817 12.3127 13.6719 12.4644C13.362 12.6161 13.0141 12.6722 12.6723 12.6259L12.6612 12.6243L11.6359 12.468L10.4897 13.127L10.1175 14.087C10.1174 14.0871 10.1175 14.0867 10.1175 14.087C9.99114 14.4136 9.76883 14.6952 9.48025 14.8936C9.19145 15.0922 8.84941 15.199 8.49899 15.2H8.49697H7.60114H7.5992C7.24877 15.199 6.90673 15.0922 6.61793 14.8936C6.32931 14.6952 6.10728 14.4142 5.98096 14.0875C5.98088 14.0873 5.98103 14.0877 5.98096 14.0875L5.60854 13.127L4.46228 12.468L3.4369 12.6243L3.42593 12.6259C3.08409 12.6722 2.73617 12.6161 2.42634 12.4644C2.1165 12.3127 1.85871 12.0723 1.68577 11.7738L1.68392 11.7706L1.25915 11.0278C1.08233 10.7254 1.00091 10.3767 1.02568 10.0272C1.05048 9.67708 1.18069 9.34276 1.39906 9.06804L2.03226 8.26199V6.94295L1.37945 6.13414C1.16003 5.85905 1.02922 5.52384 1.00435 5.17279C0.979581 4.8233 1.061 4.47455 1.23782 4.17218L1.66444 3.42622C1.83737 3.12768 2.09518 2.88734 2.40501 2.73565C2.71484 2.58396 3.06277 2.52774 3.4046 2.5741L3.41556 2.57568L4.44314 2.7323L5.60934 2.07096L5.98073 1.11307C5.98068 1.1132 5.98078 1.11295 5.98073 1.11307C6.10704 0.786259 6.32925 0.504865 6.61793 0.306366C6.90673 0.107793 7.24877 0.0010408 7.5992 7.49785e-06ZM7.60242 1.34778C7.5235 1.34817 7.44652 1.37229 7.38153 1.41695C7.31639 1.46175 7.26644 1.52509 7.23799 1.59862L6.77915 2.78222C6.72291 2.92712 6.61838 3.04815 6.48322 3.12481L4.90487 4.01988C4.77329 4.09449 4.62045 4.12267 4.47091 4.09988L3.21932 3.90912C3.1434 3.89965 3.06635 3.91251 2.99765 3.94614C2.92813 3.98018 2.87033 4.03393 2.83141 4.10056L2.40185 4.85166C2.36169 4.91991 2.34317 4.99865 2.34876 5.07753C2.35431 5.15593 2.38338 5.23088 2.43224 5.29262L3.23054 6.28172C3.32728 6.40152 3.38004 6.5509 3.38004 6.70492V8.49508C3.38004 8.64603 3.32934 8.79264 3.23607 8.91139L2.45451 9.90621C2.40509 9.9682 2.37568 10.0436 2.37009 10.1225C2.3645 10.2014 2.38298 10.2801 2.42313 10.3484L2.42735 10.3555L2.85203 11.0982C2.85227 11.0986 2.8525 11.099 2.85274 11.0994C2.89165 11.1661 2.94946 11.2198 3.01899 11.2538C3.08769 11.2875 3.16473 11.3003 3.24064 11.2909L4.49223 11.1001C4.64311 11.0771 4.79732 11.106 4.92963 11.1821L6.48665 12.0772C6.62018 12.1539 6.72344 12.2741 6.77915 12.4178L7.23799 13.6014C7.26644 13.6749 7.31639 13.7383 7.38153 13.783C7.44652 13.8277 7.5235 13.8518 7.60242 13.8522H8.49577C8.57469 13.8518 8.65167 13.8277 8.71658 13.783C8.78173 13.7383 8.83174 13.6749 8.86012 13.6014L9.31904 12.4178C9.37475 12.2741 9.47793 12.1539 9.61151 12.0772L11.1686 11.1821C11.3009 11.106 11.4551 11.0771 11.6059 11.1001L12.8575 11.2909C12.9334 11.3003 13.0105 11.2875 13.0792 11.2538C13.1487 11.2198 13.2065 11.1661 13.2454 11.0994C13.2457 11.099 13.2459 11.0986 13.2461 11.0982L13.675 10.3484C13.7151 10.2801 13.7337 10.2014 13.7281 10.1225C13.7226 10.0441 13.6934 9.9691 13.6446 9.9074L12.8463 8.91836C12.7496 8.79848 12.6968 8.6491 12.6968 8.49508V6.70492C12.6968 6.55397 12.7475 6.40736 12.8408 6.28861L13.6224 5.29377C13.6718 5.23181 13.7011 5.15642 13.7067 5.07753C13.7124 4.99865 13.6939 4.91989 13.6537 4.85163L13.6495 4.84447L13.2248 4.10178C13.2246 4.10139 13.2243 4.10099 13.2241 4.1006C13.1852 4.03395 13.1274 3.98018 13.0579 3.94614C12.9891 3.91251 12.9121 3.89965 12.8362 3.90912L11.5846 4.09988C11.4337 4.12288 11.2795 4.09397 11.1472 4.01791L9.59017 3.12285C9.45667 3.04607 9.35341 2.92586 9.2977 2.78222L8.83886 1.59862C8.8104 1.52509 8.76046 1.46175 8.69532 1.41695C8.63033 1.37229 8.55335 1.34817 8.47443 1.34778H7.60242ZM6.05392 5.61636C6.58035 5.09039 7.29422 4.795 8.03842 4.795C8.78262 4.795 9.4965 5.09039 10.023 5.61636C10.5493 6.14237 10.8453 6.85587 10.8453 7.6C10.8453 8.34413 10.5493 9.05763 10.023 9.58364C9.4965 10.1096 8.78262 10.405 8.03842 10.405C7.29422 10.405 6.58035 10.1096 6.05392 9.58364C5.52747 9.05763 5.23162 8.34413 5.23162 7.6C5.23162 6.85587 5.52747 6.14237 6.05392 5.61636ZM8.03842 6.14275C7.65131 6.14275 7.28015 6.29647 7.00655 6.56977C6.73302 6.84314 6.57937 7.21371 6.57937 7.6C6.57937 7.98629 6.73302 8.35685 7.00655 8.63023C7.28015 8.90353 7.65131 9.05725 8.03842 9.05725C8.42554 9.05725 8.7967 8.90353 9.0703 8.63023C9.34383 8.35685 9.49747 7.98629 9.49747 7.6C9.49747 7.21371 9.34383 6.84314 9.0703 6.56977C8.7967 6.29647 8.42554 6.14275 8.03842 6.14275Z" fill="#BEC3CC"/>
</svg>
