<svg width="14" height="14" viewBox="0 0 14 14" fill="none" xmlns="http://www.w3.org/2000/svg">
<path opacity="0.2" fill-rule="evenodd" clip-rule="evenodd" d="M7.25 1C10.7018 1 13.5 3.79821 13.5 7.25C13.5 10.7018 10.7018 13.5 7.25 13.5C3.79821 13.5 1 10.7018 1 7.25C1 3.79821 3.79821 1 7.25 1Z" fill="#939FB8"/>
<path fill-rule="evenodd" clip-rule="evenodd" d="M7 0.75C10.4518 0.75 13.25 3.54821 13.25 7C13.25 10.4518 10.4518 13.25 7 13.25C3.54821 13.25 0.75 10.4518 0.75 7C0.75 3.54821 3.54821 0.75 7 0.75Z" stroke="#939FB8" stroke-width="1.2"/>
<path d="M6.153 8.173C5.922 6.446 8.265 6.061 8.265 4.994C8.265 4.323 7.737 3.949 6.868 3.949C6.197 3.949 5.647 4.257 5.108 4.818L4.206 3.993C4.91 3.179 5.878 2.64 7.055 2.64C8.65 2.64 9.816 3.388 9.816 4.851C9.816 6.457 7.407 6.655 7.583 8.173H6.153ZM6.879 11.11C6.307 11.11 5.9 10.703 5.9 10.131C5.9 9.559 6.318 9.163 6.879 9.163C7.429 9.163 7.847 9.559 7.847 10.131C7.847 10.703 7.429 11.11 6.879 11.11Z" fill="#939FB8"/>
</svg>
