<svg width="14" height="14" viewBox="0 0 14 14" fill="none" xmlns="http://www.w3.org/2000/svg">
<path d="M5.4286 2.3619C5.03674 2.3619 4.71907 2.67957 4.71907 3.07143C4.71907 3.46329 5.03674 3.78095 5.4286 3.78095H6.73812V4.98095H3.50002C2.72683 4.98095 2.10002 5.60775 2.10002 6.38095V7.61905C2.10002 8.39225 2.72683 9.01905 3.50002 9.01905H3.51907V9C3.51907 7.56406 4.68313 6.4 6.11907 6.4H7.88098C8.65418 6.4 9.28098 5.7732 9.28098 5V3.7619C9.28098 2.9887 8.65418 2.3619 7.88098 2.3619H5.4286ZM3.51907 10.219H3.50002C2.06409 10.219 0.900024 9.05499 0.900024 7.61905V6.38095C0.900024 4.94501 2.06408 3.78095 3.50002 3.78095H3.65524C3.5674 3.5616 3.51907 3.32216 3.51907 3.07143C3.51907 2.01683 4.374 1.1619 5.4286 1.1619H7.88098C9.31692 1.1619 10.481 2.32596 10.481 3.7619V3.78095H10.5C11.936 3.78095 13.1 4.94501 13.1 6.38095V7.61905C13.1 9.05499 11.936 10.219 10.5 10.219H10.3448C10.4327 10.4384 10.481 10.6778 10.481 10.9286C10.481 11.9832 9.62605 12.8381 8.57145 12.8381H6.11907C4.68313 12.8381 3.51907 11.674 3.51907 10.2381V10.219ZM10.5 9.01905C11.2732 9.01905 11.9 8.39224 11.9 7.61905V6.38095C11.9 5.60775 11.2732 4.98095 10.5 4.98095H10.481V5C10.481 6.43594 9.31692 7.6 7.88098 7.6H6.11907C5.34587 7.6 4.71907 8.2268 4.71907 9V10.2381C4.71907 11.0113 5.34587 11.6381 6.11907 11.6381H8.57145C8.96331 11.6381 9.28098 11.3204 9.28098 10.9286C9.28098 10.5367 8.96331 10.219 8.57145 10.219H6.73812V9.01905H10.5Z" fill="#00ABF2"/>
</svg>
