<svg xmlns="http://www.w3.org/2000/svg" width="64" height="65" fill="none"><path d="M11.5 4.2A7.5 7.5 0 0 0 4 11.7v40a7.5 7.5 0 0 0 7.5 7.5h24a1 1 0 0 0 1-1v-3a1 1 0 0 0-1-1h-24A2.5 2.5 0 0 1 9 51.7v-40a2.5 2.5 0 0 1 2.5-2.5h34a2.5 2.5 0 0 1 2.5 2.5v18a1 1 0 0 0 1 1h3a1 1 0 0 0 1-1v-18a7.5 7.5 0 0 0-7.5-7.5h-34Zm27.7 23.3a2 2 0 0 0 2-2v-2a2 2 0 0 0-2-2h-22a2 2 0 0 0-2 2v2a2 2 0 0 0 2 2h22Zm-10 10a2 2 0 0 1-2 2h-10a2 2 0 0 1-2-2v-2a2 2 0 0 1 2-2h10a2 2 0 0 1 2 2v2Zm14.855 8.7a5.682 5.682 0 0 0 4.01-4.018l.666-2.484c.534-1.996 3.367-1.996 3.902 0l.67 2.501a5.682 5.682 0 0 0 4.019 4.02l2.5.669c1.997.534 1.997 3.367 0 3.902l-2.483.665a5.681 5.681 0 0 0-4.017 4.01l-.69 2.561c-.537 1.993-3.364 1.993-3.9 0l-.685-2.543a5.682 5.682 0 0 0-4.01-4.009l-2.543-.685c-1.992-.537-1.992-3.364 0-3.9l2.56-.69Z" fill="url(#a)"/><defs><linearGradient id="a" x1="4" y1="31.861" x2="61.32" y2="31.861" gradientUnits="userSpaceOnUse"><stop offset=".15" stop-color="#FF7979"/><stop offset=".5" stop-color="#EEA8FF"/><stop offset=".85" stop-color="#E5DCFF"/></linearGradient></defs></svg>