<svg width="160" height="160" fill="none" xmlns="http://www.w3.org/2000/svg"><path fill-rule="evenodd" clip-rule="evenodd" d="M93.674 58.805 83.011 86.582l-.1.329a18.439 18.439 0 0 1-7.359 9.921l-26.615 17.952c-8.497 5.731-20.03 3.489-25.762-5.007-5.73-8.497-3.489-20.03 5.008-25.762l22.54-15.203 8.864-23.092C63.2 36.307 73.76 31.605 83.173 35.218c9.413 3.614 14.115 14.174 10.501 23.587Zm-71.083 16.92 19.925-13.44 7.735-20.149c5.592-14.569 21.937-21.846 36.506-16.253 14.569 5.592 21.846 21.936 16.253 36.505l-3.729 9.715h22.788c15.426 0 27.93 12.505 27.93 27.93 0 15.425-12.504 27.93-27.93 27.93h-83.79c-8.39 0-15.917-3.7-21.037-9.556a28.96 28.96 0 0 1-2.357-3.038c-8.82-13.076-5.37-30.825 7.706-39.644Zm39.516 42.238h59.962c9.903 0 17.93-8.027 17.93-17.93s-8.027-17.93-17.93-17.93H95.442l-2.972 7.742a28.436 28.436 0 0 1-11.326 15.277l-19.037 12.841Z" fill="#fff" fill-opacity=".1"/></svg>