<svg width="24" height="24" fill="none" xmlns="http://www.w3.org/2000/svg"><g clip-path="url(#a)"><path d="M11.4 3a1.2 1.2 0 0 1-1.2-1.2.6.6 0 1 0-1.2 0A1.2 1.2 0 0 1 7.8 3a.6.6 0 0 0 0 1.2A1.2 1.2 0 0 1 9 5.4a.6.6 0 0 0 1.2 0 1.2 1.2 0 0 1 1.2-1.2.6.6 0 0 0 0-1.2Z" fill="#5E9EFF"/><path d="M6.7 7.3a2 2 0 0 1-2-2 .5.5 0 0 0-1 0 2 2 0 0 1-2 2 .5.5 0 0 0 0 1 2 2 0 0 1 2 2 .5.5 0 1 0 1 0 2 2 0 0 1 2-2 .5.5 0 0 0 0-1Z" fill="#2B6EF4"/><path d="M15.429 19.371a5.143 5.143 0 0 1 5.143-5.142 1.029 1.029 0 0 0 0-2.058 5.143 5.143 0 0 1-5.143-5.142 1.029 1.029 0 0 0-2.057 0 5.143 5.143 0 0 1-5.143 5.142 1.029 1.029 0 0 0 0 2.058 5.143 5.143 0 0 1 5.143 5.142 1.029 1.029 0 0 0 2.057 0Z" fill="#E56B2E"/></g><defs><clipPath id="a"><path fill="#fff" d="M0 0h24v24H0z"/></clipPath></defs></svg>