<svg width="33" height="17" fill="none" xmlns="http://www.w3.org/2000/svg"><path fill-rule="evenodd" clip-rule="evenodd" d="M25.521 6.803V2.349a1.37 1.37 0 0 0-1.37-1.37h-4.453a1.37 1.37 0 0 0-1.37 1.37v3.938c0 .454-.18.89-.502 1.211l-1.201 1.2a1.711 1.711 0 0 1-1.211.503h-3.938a1.37 1.37 0 0 0-1.37 1.37v4.453c0 .758.613 1.37 1.37 1.37h4.454a1.37 1.37 0 0 0 1.37-1.37V11.09c0-.454.18-.89.502-1.211l1.204-1.204a1.711 1.711 0 0 1 1.21-.502h3.935a1.37 1.37 0 0 0 1.37-1.37ZM15.416 6.46V2.35a1.37 1.37 0 0 0-1.37-1.371H9.591a1.37 1.37 0 0 0-1.37 1.37v3.94c0 .454-.18.89-.502 1.21l-1.2 1.2a1.711 1.711 0 0 1-1.21.502H1.37A1.37 1.37 0 0 0 0 10.57v4.454c0 .757.613 1.37 1.37 1.37h4.454a1.37 1.37 0 0 0 1.37-1.37v-3.933c0-.454.18-.89.502-1.211l1.206-1.206a1.711 1.711 0 0 1 1.21-.502h3.59c.946 0 1.714-.767 1.714-1.713Zm12.162.867a.155.155 0 0 0-.296 0l-.053.178a6.57 6.57 0 0 1-4.38 4.38l-.178.054a.155.155 0 0 0 0 .296l.178.053a6.57 6.57 0 0 1 4.38 4.38l.053.178a.155.155 0 0 0 .296 0l.054-.178a6.57 6.57 0 0 1 4.38-4.38l.178-.053a.155.155 0 0 0 0-.296l-.178-.054a6.57 6.57 0 0 1-4.38-4.38l-.054-.178Z" fill="#DADDE6"/></svg>