<svg width="16" height="12" fill="none" xmlns="http://www.w3.org/2000/svg"><g clip-path="url(#a)"><path fill-rule="evenodd" clip-rule="evenodd" d="M10.286 1.477v3.231c0 .55-.41.994-.915.994H6.746c-.303 0-.593.13-.808.365l-.803.873c-.215.233-.335.55-.335.879v2.855c0 .55-.41.994-.914.994H.914c-.505 0-.914-.445-.914-.994V7.442c0-.549.41-.994.914-.994h2.628c.303 0 .593-.13.808-.364l.8-.871c.216-.233.336-.55.336-.879V1.477c0-.55.409-.995.914-.995h2.971c.506 0 .915.445.915.995Zm2.113 3.369a.107.107 0 0 0-.204 0l-.037.122a4.531 4.531 0 0 1-3.02 3.021l-.123.037c-.101.03-.101.174 0 .204l.122.037a4.531 4.531 0 0 1 3.02 3.021l.038.123c.03.1.173.1.204 0l.037-.123a4.531 4.531 0 0 1 3.02-3.02l.123-.038c.101-.03.101-.173 0-.204l-.122-.037a4.531 4.531 0 0 1-3.02-3.02l-.038-.123Z" fill="url(#b)"/></g><defs><linearGradient id="b" x1="15.655" y1="5.964" x2=".008" y2="5.7" gradientUnits="userSpaceOnUse"><stop offset=".33" stop-color="#A35BFF"/><stop offset=".66" stop-color="#E465A2"/><stop offset="1" stop-color="#FD563F"/></linearGradient><clipPath id="a"><path fill="#fff" transform="translate(0 .482)" d="M0 0h16v11.034H0z"/></clipPath></defs></svg>