<svg width="16" height="16" fill="none" xmlns="http://www.w3.org/2000/svg"><path fill-rule="evenodd" clip-rule="evenodd" d="M7.6 0h.878a1.741 1.741 0 0 1 1.618 1.113l.372.96 1.146.659 1.026-.156.01-.002a1.741 1.741 0 0 1 1.741.852l.002.003.425.743a1.74 1.74 0 0 1-.14 1.96l-.002.002-.631.804v1.319l.652.809a1.74 1.74 0 0 1 .142 1.962l-.425.743-.002.003a1.74 1.74 0 0 1-1.74.852l-.01-.002-1.026-.156-1.146.659-.373.96A1.742 1.742 0 0 1 8.5 15.2h-.9a1.74 1.74 0 0 1-1.618-1.112l-.372-.961-1.147-.659-1.025.156-.011.002a1.742 1.742 0 0 1-1.74-.852l-.002-.003-.425-.743a1.739 1.739 0 0 1 .14-1.96l.633-.806v-1.32l-.653-.808a1.739 1.739 0 0 1-.141-1.962l.426-.746a1.74 1.74 0 0 1 1.74-.852l.012.002 1.027.156 1.166-.661.372-.958A1.741 1.741 0 0 1 7.599 0Zm.002 1.348a.394.394 0 0 0-.364.25l-.459 1.184a.674.674 0 0 1-.296.343l-1.578.895a.674.674 0 0 1-.434.08l-1.252-.19a.393.393 0 0 0-.388.19l-.43.752a.39.39 0 0 0 .031.44l.799.99c.096.12.149.269.149.423v1.79c0 .151-.05.298-.144.416l-.781.995a.391.391 0 0 0-.032.442l.004.007.425.743v.001a.391.391 0 0 0 .389.192l1.251-.19a.674.674 0 0 1 .438.081l1.557.895a.674.674 0 0 1 .292.34l.459 1.184a.392.392 0 0 0 .364.251h.894a.393.393 0 0 0 .364-.25l.459-1.184a.673.673 0 0 1 .293-.34l1.557-.896a.673.673 0 0 1 .437-.082l1.252.19a.394.394 0 0 0 .388-.192l.429-.75a.391.391 0 0 0-.03-.44l-.799-.99a.674.674 0 0 1-.15-.423v-1.79c0-.151.052-.298.145-.416l.781-.995a.391.391 0 0 0 .032-.442l-.005-.008-.424-.742V4.1a.392.392 0 0 0-.389-.192l-1.251.19a.674.674 0 0 1-.438-.081L9.59 3.123a.674.674 0 0 1-.292-.34l-.46-1.184a.392.392 0 0 0-.364-.251h-.872ZM6.054 5.616A2.808 2.808 0 0 1 10.845 7.6a2.805 2.805 0 0 1-2.807 2.805A2.808 2.808 0 0 1 5.232 7.6c0-.744.295-1.458.822-1.984Zm1.984.527A1.46 1.46 0 0 0 6.58 7.6a1.457 1.457 0 0 0 1.46 1.457A1.46 1.46 0 0 0 9.496 7.6a1.457 1.457 0 0 0-1.459-1.457Z" fill="#DADDE5"/></svg>