<svg width="15" height="15" fill="none" xmlns="http://www.w3.org/2000/svg"><path d="M7.563 1.813a.875.875 0 0 1-.875-.875.437.437 0 1 0-.875 0 .875.875 0 0 1-.875.875.437.437 0 1 0 0 .875.875.875 0 0 1 .875.874.437.437 0 1 0 .875 0 .875.875 0 0 1 .875-.874.437.437 0 1 0 0-.876ZM4.135 4.948A1.458 1.458 0 0 1 2.677 3.49a.365.365 0 0 0-.73 0A1.458 1.458 0 0 1 .49 4.948a.365.365 0 1 0 0 .73 1.458 1.458 0 0 1 1.458 1.457.365.365 0 0 0 .73 0 1.458 1.458 0 0 1 1.457-1.458.365.365 0 0 0 0-.73Z" fill="#5E9EFF"/><path d="M10.5 13.75A3.75 3.75 0 0 1 14.25 10a.75.75 0 1 0 0-1.5 3.75 3.75 0 0 1-3.75-3.75.75.75 0 1 0-1.5 0A3.75 3.75 0 0 1 5.25 8.5a.75.75 0 0 0 0 1.5A3.75 3.75 0 0 1 9 13.75a.75.75 0 1 0 1.5 0Z" fill="#E56B2E"/></svg>