<svg xmlns="http://www.w3.org/2000/svg" width="16" height="16" fill="none"><path fill-rule="evenodd" clip-rule="evenodd" d="M9.667 13.333a.333.333 0 0 1 .333.334v.666a.333.333 0 0 1-.333.334H6.333A.333.333 0 0 1 6 14.333v-.666a.333.333 0 0 1 .333-.334h3.334ZM9 1a.333.333 0 0 1 .333.333v.507c2.3.611 4 2.767 4 5.332V11h1a.334.334 0 0 1 .334.333V12a.333.333 0 0 1-.334.333H1.667A.333.333 0 0 1 1.333 12v-.667A.333.333 0 0 1 1.667 11h1V7.172c0-2.565 1.7-4.72 4-5.332v-.507A.333.333 0 0 1 7 1h2ZM8 3C5.79 3 4 4.869 4 7.174V11h8V7.174C12 4.869 10.209 3 8 3Z" fill="#ADB0B8"/></svg>