<svg width="16" height="16" viewBox="0 0 16 16" fill="none" xmlns="http://www.w3.org/2000/svg">
<path d="M11.43 1.83993C12.9377 1.83993 14.16 3.06219 14.16 4.56993V5.06993H15.7V4.56993C15.7 2.21167 13.7882 0.299927 11.43 0.299927H10.93V1.83993H11.43ZM4.56999 14.1599C3.06225 14.1599 1.83999 12.9376 1.83999 11.4299V10.9299H0.299988V11.4299C0.299988 13.7882 2.21173 15.6999 4.56999 15.6999H5.06999V14.1599H4.56999ZM2 8C2 8 4.5 12 8 12C11.5 12 14 8 14 8C14 8 11.5 4 8 4C4.5 4 2 8 2 8ZM3.7364 8C3.97579 7.70673 4.2833 7.3618 4.64701 7.01948C5.61225 6.11102 6.78018 5.4 8 5.4C9.21982 5.4 10.3878 6.11102 11.353 7.01948C11.7167 7.3618 12.0242 7.70673 12.2636 8C12.0242 8.29327 11.7167 8.6382 11.353 8.98052C10.3878 9.88898 9.21982 10.6 8 10.6C6.78018 10.6 5.61225 9.88898 4.64701 8.98052C4.2833 8.6382 3.97579 8.29327 3.7364 8ZM8 9C8.55229 9 9 8.55229 9 8C9 7.44772 8.55229 7 8 7C7.44772 7 7 7.44772 7 8C7 8.55229 7.44772 9 8 9Z" fill="white"/>
</svg>
