<svg xmlns="http://www.w3.org/2000/svg" width="14" height="14" viewBox="0 0 14 14" fill="none">
  <path opacity="0.2" fill-rule="evenodd" clip-rule="evenodd" d="M2.1001 5.63369V2.79185L7.00264 1.36108L11.9001 2.79173V5.63522C11.9001 8.77133 9.93514 11.5629 7.00086 12.6287C4.06572 11.5629 2.1001 8.77063 2.1001 5.63369ZM5.52104 4.70226C5.35664 4.41455 4.99012 4.3146 4.70241 4.479C4.4147 4.64341 4.31475 5.00992 4.47915 5.29763L6.47915 8.79763C6.58598 8.98458 6.78478 9.09995 7.0001 9.09995C7.21541 9.09995 7.41422 8.98458 7.52104 8.79763L9.52104 5.29763C9.68545 5.00992 9.58549 4.64341 9.29778 4.479C9.01007 4.3146 8.64356 4.41455 8.47915 4.70226L7.0001 7.29061L5.52104 4.70226Z" fill="black"/>
  <path fill-rule="evenodd" clip-rule="evenodd" d="M7.17077 0.160102C7.06096 0.128023 6.94426 0.128008 6.83444 0.160059L1.33181 1.76595C1.07586 1.84065 0.899902 2.07529 0.899902 2.34192V5.63369C0.899902 9.35434 3.28114 12.6574 6.81108 13.8332C6.93418 13.8742 7.06726 13.8742 7.19036 13.8332C10.7194 12.6573 13.0999 9.35499 13.0999 5.63522V2.34192C13.0999 2.07535 12.924 1.84074 12.6681 1.76599L7.17077 0.160102ZM2.0999 5.63369V2.79185L7.00245 1.36108L11.8999 2.79173V5.63522C11.8999 8.77133 9.93495 11.5629 7.00066 12.6287C4.06553 11.5629 2.0999 8.77063 2.0999 5.63369ZM5.52085 4.70226C5.35644 4.41455 4.98993 4.3146 4.70222 4.479C4.41451 4.64341 4.31455 5.00992 4.47896 5.29763L6.47896 8.79763C6.58578 8.98458 6.78459 9.09995 6.9999 9.09995C7.21522 9.09995 7.41402 8.98458 7.52085 8.79763L9.52085 5.29763C9.68525 5.00992 9.5853 4.64341 9.29759 4.479C9.00988 4.3146 8.64336 4.41455 8.47896 4.70226L6.9999 7.29061L5.52085 4.70226Z" fill="black"/>
</svg>
