<svg xmlns="http://www.w3.org/2000/svg" width="14" height="12" viewBox="0 0 14 12" fill="none">
  <path fill-rule="evenodd" clip-rule="evenodd" d="M2.83169 0.400024C1.67189 0.400024 0.731691 1.34023 0.731691 2.50002V9.39846C0.672341 10.5655 1.60308 11.6 2.83014 11.6H10.7704C11.7227 11.6 12.5557 10.9592 12.8001 10.0389L13.7165 6.58725C13.9099 5.85899 13.5708 5.14108 12.9759 4.79332V4.00605C12.9759 2.84625 12.0357 1.90605 10.8759 1.90605H6.88697C6.75323 1.90605 6.62833 1.83921 6.55415 1.72793L6.14386 1.1125C5.84712 0.667386 5.34755 0.400024 4.81258 0.400024H2.83169ZM11.7759 4.57666V4.00605C11.7759 3.509 11.373 3.10605 10.8759 3.10605H6.88697C6.35201 3.10605 5.85243 2.83869 5.55569 2.39357L5.1454 1.77814C5.07122 1.66686 4.94632 1.60002 4.81258 1.60002H2.83169C2.33463 1.60002 1.93169 2.00297 1.93169 2.50002V5.37494C2.32098 4.88244 2.92193 4.57666 3.57976 4.57666H11.7759ZM1.93131 9.5559C1.93156 9.54869 1.93169 9.54145 1.93169 9.53418V9.44153C1.93555 9.38452 1.94493 9.32683 1.96028 9.26901L2.70989 6.4457C2.81462 6.05126 3.17165 5.77666 3.57976 5.77666H12.1701C12.4327 5.77666 12.6241 6.02547 12.5567 6.27931L11.6403 9.73092C11.5355 10.1254 11.1785 10.4 10.7704 10.4H2.83014C2.33942 10.4 1.95927 10.0139 1.93131 9.5559Z" fill="black"/>
  <path opacity="0.2" fill-rule="evenodd" clip-rule="evenodd" d="M11.7757 4.00605V4.57666H3.5796C2.92177 4.57666 2.32082 4.88244 1.93154 5.37494V2.50002C1.93154 2.00296 2.33448 1.60002 2.83154 1.60002H4.81243C4.94617 1.60002 5.07106 1.66686 5.14525 1.77814L5.55554 2.39357C5.85228 2.83869 6.35185 3.10605 6.88682 3.10605H10.8757C11.3728 3.10605 11.7757 3.50899 11.7757 4.00605ZM1.93154 9.53418C1.93154 9.54145 1.93141 9.54869 1.93115 9.5559C1.95912 10.0139 2.33926 10.4 2.82999 10.4H10.7703C11.1784 10.4 11.5354 10.1254 11.6401 9.73092L12.5566 6.2793C12.6239 6.02547 12.4326 5.77666 12.1699 5.77666H3.5796C3.1715 5.77666 2.81447 6.05126 2.70974 6.4457L1.96013 9.26901C1.94478 9.32682 1.93539 9.38452 1.93154 9.44153V9.53418Z" fill="black"/>
</svg>
