<svg xmlns="http://www.w3.org/2000/svg" width="14" height="14" viewBox="0 0 14 14" fill="none">
  <path d="M1.3499 6.99999C1.3499 3.87958 3.87949 1.34999 6.99991 1.34999C10.1203 1.34999 12.6499 3.87958 12.6499 6.99999C12.6499 10.1204 10.1203 12.65 6.99991 12.65C3.87949 12.65 1.3499 10.1204 1.3499 6.99999ZM6.99991 0.149994C3.21675 0.149994 0.149902 3.21684 0.149902 6.99999C0.149902 10.7831 3.21675 13.85 6.99991 13.85C10.783 13.85 13.8499 10.7831 13.8499 6.99999C13.8499 3.21684 10.783 0.149994 6.99991 0.149994ZM4.99988 3.11716V10.5H6.05945V7.38962C6.05945 6.53513 6.54285 6.0029 7.31921 6.0029C8.09558 6.0029 8.46179 6.43747 8.46179 7.31638V10.5H9.51648V7.06735C9.51648 5.8027 8.86218 5.0947 7.67566 5.0947C6.90417 5.0947 6.39636 5.43649 6.13757 6.0029H6.05945V3.11716H4.99988Z" fill="black"/>
</svg>
