<svg xmlns="http://www.w3.org/2000/svg" width="14" height="14" viewBox="0 0 14 14" fill="none">
  <path d="M2.16973 2.69999L6.62937 11.0185L11.089 2.69999H8.9793L7.30116 6.29601C7.189 6.53635 6.95063 6.69267 6.6855 6.69974C6.42036 6.70681 6.174 6.56343 6.04919 6.3294L4.1135 2.69999H2.16973ZM7.07004 11.8405L7.06973 11.8399L7.07004 11.8405ZM0.541154 2.62523C0.219725 2.02567 0.65407 1.29999 1.33435 1.29999H4.5335C4.79202 1.29999 5.02949 1.44247 5.15115 1.67058L6.62507 4.43418L7.89917 1.70397C8.01418 1.45752 8.26153 1.29999 8.5335 1.29999H11.9244C12.6047 1.29999 13.039 2.02568 12.7176 2.62523L7.42257 12.5019C7.08321 13.135 6.17553 13.135 5.83617 12.5019L0.541154 2.62523Z" fill="black"/>
</svg>
