<svg xmlns="http://www.w3.org/2000/svg" width="14" height="10" viewBox="0 0 14 10" fill="none">
  <path d="M9.11046 4.01129C8.72937 3.79665 8.56323 3.5109 8.56323 3.14426V3.13889C8.56323 2.40842 9.23462 1.9841 10.1423 1.9841C10.401 1.98262 10.6353 2.02183 10.8412 2.09266C10.6353 2.02185 10.4011 1.98265 10.1424 1.98412C9.23467 1.98412 8.56329 2.40844 8.56329 3.13891V3.14428C8.56329 3.51091 8.72941 3.79666 9.11046 4.01129ZM12.1496 3.11959C12.2034 3.13553 12.2594 3.14428 12.3176 3.14428C12.6688 3.14428 12.953 2.83964 12.8248 2.51266C12.6009 1.94179 12.1324 1.46318 11.4785 1.18815C12.1323 1.46318 12.6009 1.94178 12.8247 2.51263C12.9529 2.83962 12.6688 3.14426 12.3176 3.14426C12.2594 3.14426 12.2033 3.13552 12.1496 3.11959ZM11.8641 4.81998C12.7379 5.20544 13.1125 5.78954 13.1125 6.65158V6.65695C13.1125 8.13937 11.9578 9.0632 10.1531 9.0632C9.5882 9.0632 9.08817 8.9637 8.66632 8.78508C9.08818 8.96372 9.58823 9.06323 10.1531 9.06323C11.9578 9.06323 13.1126 8.1394 13.1126 6.65698V6.65161C13.1126 5.78954 12.738 5.20544 11.8641 4.81998ZM8.03593 6.84875C8.23724 6.93257 8.40338 7.11716 8.52974 7.30414C8.64436 7.47375 8.80848 7.61999 9.01214 7.73502C8.80851 7.61999 8.64441 7.47376 8.5298 7.30416C8.40343 7.11717 8.23727 6.93256 8.03593 6.84875ZM10.8052 5.68397C10.6955 5.65115 10.5767 5.62101 10.4485 5.59348L10.4485 5.5935C10.5768 5.62103 10.6955 5.65115 10.8052 5.68397ZM9.59991 5.41088L9.59985 5.41086C9.44596 5.37829 9.30065 5.34194 9.16371 5.30176C9.30067 5.34195 9.446 5.37831 9.59991 5.41088ZM7.81367 4.68184C8.19859 5.06817 8.78231 5.34007 9.57906 5.50869L10.4276 5.69127C10.9339 5.79997 11.2762 5.94715 11.4908 6.13015C11.7002 6.30881 11.7934 6.52612 11.7934 6.79662V6.802C11.7934 7.12538 11.6367 7.40012 11.36 7.5974C11.0813 7.79607 10.6801 7.91586 10.2015 7.91586C9.45376 7.91586 8.87951 7.64305 8.61265 7.24817C8.43983 6.99244 8.16945 6.702 7.8088 6.702C7.60741 6.702 7.42293 6.78959 7.30553 6.92851C7.18665 7.06919 7.13708 7.26304 7.21166 7.46201C7.59528 8.48552 8.66643 9.16323 10.1531 9.16323C11.0715 9.16323 11.8357 8.92822 12.3725 8.49374C12.9116 8.05739 13.2126 7.42657 13.2126 6.65698V6.65161C13.2126 6.05533 13.0387 5.57577 12.645 5.20206C12.2557 4.8325 11.661 4.57615 10.8401 4.40002L9.9968 4.21202C9.5011 4.10599 9.16676 3.96279 8.95755 3.78567C8.75348 3.6129 8.66329 3.40367 8.66329 3.14428V3.13891C8.66329 2.80872 8.81318 2.54957 9.06988 2.36945C9.32973 2.18712 9.70316 2.08412 10.143 2.08412C10.8048 2.08034 11.2866 2.35334 11.5313 2.72331C11.6997 2.97806 11.9678 3.24428 12.3176 3.24428C12.5215 3.24428 12.7087 3.15601 12.8274 3.01564C12.9477 2.87332 12.9967 2.67709 12.9179 2.47615C12.546 1.5279 11.537 0.836761 10.1585 0.836761C9.31867 0.836761 8.59431 1.07279 8.07706 1.48786C7.5583 1.90413 7.25223 2.49792 7.24942 3.19799V3.20336C7.24942 3.79693 7.42589 4.29264 7.81367 4.68184ZM0.811405 7.53958C1.09928 8.49865 1.91992 9.16323 3.14312 9.16323C3.92276 9.16323 4.55501 8.93281 4.99239 8.49472C5.42976 8.05664 5.66011 7.42309 5.66011 6.64086V1.72631C5.66011 1.33885 5.34601 1.02475 4.95855 1.02475C4.57109 1.02475 4.25699 1.33885 4.25699 1.72631V6.63012C4.25699 7.05569 4.15314 7.36792 3.96847 7.57297C3.78535 7.7763 3.50939 7.88901 3.13238 7.88901C2.6813 7.88901 2.38489 7.67477 2.22518 7.37118C2.07421 7.08421 1.80471 6.78793 1.4345 6.78793C1.2344 6.78793 1.05031 6.87303 0.929704 7.00954C0.807883 7.14742 0.751041 7.33848 0.811405 7.53958ZM2.09779 8.86331C2.39893 8.99212 2.74867 9.06323 3.14312 9.06323C4.66314 9.06323 5.56011 8.16625 5.56011 6.64086V1.72631C5.56011 1.47842 5.41018 1.26555 5.19605 1.17345C5.41015 1.26557 5.56006 1.47842 5.56006 1.72629V6.64084C5.56006 8.16623 4.66308 9.0632 3.14306 9.0632C2.74864 9.0632 2.39891 8.9921 2.09779 8.86331ZM2.65568 7.89959C2.42074 7.80158 2.24814 7.62969 2.13662 7.41771C2.02906 7.21326 1.86817 7.02194 1.6654 6.93578C1.86819 7.02192 2.02911 7.21327 2.13668 7.41774C2.24819 7.6297 2.42077 7.80157 2.65568 7.89959Z" fill="black"/>
</svg>
