<svg xmlns="http://www.w3.org/2000/svg" width="14" height="14" viewBox="0 0 14 14" fill="none">
  <path d="M7.54168 12.95C7.35011 12.95 7.16691 12.8715 7.03479 12.7328L2.03479 7.48277C1.84167 7.28 1.78798 6.98165 1.89828 6.72427C2.00859 6.46689 2.26166 6.30001 2.54168 6.30001L4.99958 6.30001L4.99958 1.75001C4.99958 1.36341 5.31298 1.05001 5.69958 1.05001L9.38379 1.05001C9.77039 1.05001 10.0838 1.36341 10.0838 1.75001L10.0838 6.30001L12.5417 6.30001C12.8217 6.30001 13.0748 6.46689 13.1851 6.72427C13.2954 6.98165 13.2417 7.28 13.0486 7.48277L8.04858 12.7328C7.91646 12.8715 7.73326 12.95 7.54168 12.95ZM10.9083 7.70001L9.38379 7.70001C8.99719 7.70001 8.68379 7.38661 8.68379 7.00001L8.68379 2.45001L6.39958 2.45001L6.39958 7.00001C6.39958 7.38661 6.08618 7.70001 5.69958 7.70001L4.17502 7.70001L7.54168 11.235L10.9083 7.70001Z" fill="black"/>
</svg>
