<svg xmlns="http://www.w3.org/2000/svg" width="14" height="12" viewBox="0 0 14 12" fill="none">
  <path d="M6.41087 1.52143C6.49576 1.14426 6.25883 0.769696 5.88166 0.684807C5.5045 0.599919 5.12993 0.836855 5.04505 1.21402L4.6467 2.98389H2.07834C1.69174 2.98389 1.37834 3.29729 1.37834 3.68389C1.37834 4.07049 1.69174 4.38389 2.07834 4.38389H4.3316L3.60412 7.61613H1.4998C1.1132 7.61613 0.799805 7.92953 0.799805 8.31613C0.799805 8.70273 1.1132 9.01613 1.4998 9.01613H3.28903L2.95987 10.4786C2.87498 10.8557 3.11192 11.2303 3.48908 11.3152C3.86625 11.4001 4.24081 11.1632 4.3257 10.786L4.72404 9.01613H7.92133L7.59218 10.4786C7.50729 10.8557 7.74423 11.2303 8.12139 11.3152C8.49855 11.4001 8.87312 11.1632 8.95801 10.786L9.35635 9.01613H11.9213C12.3079 9.01613 12.6213 8.70273 12.6213 8.31613C12.6213 7.92953 12.3079 7.61613 11.9213 7.61613H9.67144L10.3989 4.38389H12.4998C12.8864 4.38389 13.1998 4.07049 13.1998 3.68389C13.1998 3.29729 12.8864 2.98389 12.4998 2.98389H10.714L11.0432 1.52143C11.1281 1.14426 10.8911 0.769696 10.514 0.684807C10.1368 0.599919 9.76224 0.836855 9.67735 1.21402L9.27901 2.98389H6.08172L6.41087 1.52143ZM8.23643 7.61613H5.03914L5.76662 4.38389H8.96391L8.23643 7.61613Z" fill="black"/>
</svg>
