<svg xmlns="http://www.w3.org/2000/svg" width="14" height="12" viewBox="0 0 14 12" fill="none">
  <path d="M0.67334 2.23897C0.67334 1.30009 1.43445 0.538971 2.37334 0.538971H11.6266C12.5655 0.538971 13.3266 1.30009 13.3266 2.23897V9.76095C13.3266 10.6998 12.5655 11.461 11.6266 11.461H9.17432C9.16748 11.4611 9.16063 11.4611 9.15378 11.461H2.37334C1.43445 11.461 0.67334 10.6998 0.67334 9.76095V8.16412V2.23897ZM11.6266 10.061C11.7923 10.061 11.9266 9.92664 11.9266 9.76095V2.23897C11.9266 2.07328 11.7923 1.93897 11.6266 1.93897H2.37334C2.20766 1.93897 2.07334 2.07329 2.07334 2.23897V6.47417L2.41461 6.13291C3.27376 5.27375 4.66673 5.27375 5.52588 6.13291L9.45393 10.061H11.6266ZM2.07334 9.76095C2.07334 9.92664 2.20765 10.061 2.37334 10.061H7.47403L4.53593 7.12285C4.22351 6.81044 3.71698 6.81044 3.40456 7.12285L2.07334 8.45407V9.76095ZM9.14849 5.53599C9.61793 5.53599 9.99849 5.15543 9.99849 4.68599C9.99849 4.21655 9.61793 3.83599 9.14849 3.83599C8.67905 3.83599 8.29849 4.21655 8.29849 4.68599C8.29849 5.15543 8.67905 5.53599 9.14849 5.53599Z" fill="black"/>
</svg>
