<svg xmlns="http://www.w3.org/2000/svg" width="14" height="12" viewBox="0 0 14 12" fill="none">
  <path d="M4.075 0.299988C4.4616 0.299988 4.775 0.613388 4.775 0.999988C4.775 1.28237 4.60779 1.5257 4.36698 1.63637C4.27811 1.67721 4.17921 1.69999 4.075 1.69999C3.92269 1.69999 3.77441 1.74105 3.6825 1.80999C3.64233 1.84012 3.60845 1.87821 3.582 1.93375C3.55487 1.99073 3.525 2.0886 3.525 2.24999V2.9496V4.49999C3.525 4.88974 3.36175 5.20811 3.18452 5.4385C3.09492 5.55498 2.99453 5.65874 2.89265 5.74999C2.99453 5.84124 3.09492 5.94499 3.18452 6.06147C3.36175 6.29187 3.525 6.61024 3.525 6.99999V9.74999C3.525 9.91138 3.55487 10.0092 3.582 10.0662C3.60845 10.1218 3.64233 10.1599 3.6825 10.19C3.77441 10.2589 3.92269 10.3 4.075 10.3C4.4616 10.3 4.775 10.6134 4.775 11C4.775 11.3866 4.4616 11.7 4.075 11.7C3.72731 11.7 3.25059 11.6161 2.8425 11.31C2.40049 10.9785 2.125 10.4499 2.125 9.74999V7.00234C2.12354 6.9955 2.11513 6.96743 2.07485 6.91507C2.01667 6.83944 1.92209 6.75366 1.79858 6.6672C1.67865 6.58325 1.55422 6.51441 1.45726 6.46593C1.40967 6.44213 1.37083 6.4243 1.34526 6.41298C1.33253 6.40734 1.32324 6.40338 1.31798 6.40117L1.31327 6.39921C1.0485 6.29248 0.875 6.03559 0.875 5.74999C0.875 5.46439 1.0485 5.20749 1.31327 5.10076L1.31471 5.10018L1.31798 5.0988C1.32324 5.09659 1.33253 5.09263 1.34526 5.08699C1.37083 5.07567 1.40967 5.05784 1.45726 5.03404C1.55422 4.98557 1.67865 4.91672 1.79858 4.83278C1.92209 4.74631 2.01667 4.66054 2.07485 4.58491C2.11513 4.53254 2.12354 4.50447 2.125 4.49764V2.24999C2.125 1.55011 2.40049 1.02149 2.8425 0.689988C3.25059 0.383921 3.72731 0.299988 4.075 0.299988ZM9.92507 0.299988C9.53847 0.299988 9.22507 0.613388 9.22507 0.999988C9.22507 1.28237 9.39228 1.5257 9.63309 1.63637C9.72196 1.67721 9.82086 1.69999 9.92507 1.69999C10.0774 1.69999 10.2257 1.74105 10.3176 1.80999C10.3577 1.84012 10.3916 1.87821 10.4181 1.93375C10.4452 1.99073 10.4751 2.0886 10.4751 2.24999V2.9496V4.49999C10.4751 4.88974 10.6383 5.20811 10.8155 5.4385C10.9052 5.55498 11.0055 5.65874 11.1074 5.74999C11.0055 5.84124 10.9052 5.94499 10.8155 6.06147C10.6383 6.29187 10.4751 6.61024 10.4751 6.99999V9.74999C10.4751 9.91138 10.4452 10.0092 10.4181 10.0662C10.3916 10.1218 10.3577 10.1599 10.3176 10.19C10.2257 10.2589 10.0774 10.3 9.92507 10.3C9.53847 10.3 9.22507 10.6134 9.22507 11C9.22507 11.3866 9.53847 11.7 9.92507 11.7C10.2728 11.7 10.7495 11.6161 11.1576 11.31C11.5996 10.9785 11.8751 10.4499 11.8751 9.74999V7.00234C11.8765 6.9955 11.8849 6.96743 11.9252 6.91507C11.9834 6.83944 12.078 6.75366 12.2015 6.6672C12.3214 6.58325 12.4459 6.51441 12.5428 6.46593C12.5904 6.44213 12.6292 6.4243 12.6548 6.41298C12.661 6.41022 12.6664 6.40787 12.671 6.40592C12.6757 6.40389 12.6794 6.4023 12.6821 6.40117L12.6868 6.39921C12.9516 6.29248 13.1251 6.03559 13.1251 5.74999C13.1251 5.46439 12.9516 5.20749 12.6868 5.10076L12.6854 5.10018L12.6821 5.0988C12.6768 5.09659 12.6675 5.09263 12.6548 5.08699C12.6292 5.07567 12.5904 5.05784 12.5428 5.03404C12.4459 4.98557 12.3214 4.91672 12.2015 4.83278C12.078 4.74631 11.9834 4.66054 11.9252 4.58491C11.8849 4.53254 11.8765 4.50447 11.8751 4.49764V2.24999C11.8751 1.55011 11.5996 1.02149 11.1576 0.689988C10.7495 0.383921 10.2728 0.299988 9.92507 0.299988Z" fill="black"/>
</svg>
