<svg xmlns="http://www.w3.org/2000/svg" width="14" height="14" viewBox="0 0 14 14" fill="none">
  <path d="M7.37394 0.530901L6.99985 0.232574L6.62576 0.530901L5.83802 1.1591L4.86985 0.880173L4.41007 0.747714L4.17862 1.16649L3.69124 2.04832L2.69003 2.16113L2.21456 2.21471L2.16098 2.69018L2.04817 3.69139L1.16634 4.17877L0.747561 4.41022L0.88002 4.87L1.15894 5.83817L0.530749 6.62591L0.232422 7L0.530749 7.37409L1.15894 8.16183L0.88002 9.13L0.747561 9.58978L1.16634 9.82123L2.04817 10.3086L2.16098 11.3098L2.21456 11.7853L2.69003 11.8389L3.69124 11.9517L4.17862 12.8335L4.41007 13.2523L4.86985 13.1198L5.83802 12.8409L6.62576 13.4691L6.99985 13.7674L7.37394 13.4691L8.16168 12.8409L9.12985 13.1198L9.58963 13.2523L9.82108 12.8335L10.3085 11.9517L11.3097 11.8389L11.7851 11.7853L11.8387 11.3098L11.9515 10.3086L12.8334 9.82123L13.2521 9.58978L13.1197 9.13L12.8408 8.16183L13.4689 7.37409L13.7673 7L13.4689 6.62591L12.8408 5.83817L13.1197 4.87L13.2521 4.41022L12.8334 4.17877L11.9515 3.69139L11.8387 2.69018L11.7851 2.21471L11.3097 2.16113L10.3085 2.04832L9.82108 1.16649L9.58963 0.747714L9.12985 0.880173L8.16168 1.1591L7.37394 0.530901ZM6.34386 2.29056L6.99985 1.76743L7.65583 2.29056L7.89817 2.48381L8.19603 2.39801L9.00227 2.16573L9.40813 2.90007L9.55806 3.17136L9.86608 3.20607L10.6998 3.30001L10.7938 4.13377L10.8285 4.44179L11.0998 4.59172L11.8341 4.99758L11.6018 5.80382L11.516 6.10168L11.7093 6.34402L12.2324 7L11.7093 7.65599L11.516 7.89833L11.6018 8.19618L11.8341 9.00242L11.0998 9.40828L10.8285 9.55822L10.7938 9.86623L10.6998 10.7L9.86608 10.7939L9.55806 10.8286L9.40813 11.0999L9.00227 11.8343L8.19603 11.602L7.89817 11.5162L7.65583 11.7094L6.99985 12.2326L6.34386 11.7094L6.10152 11.5162L5.80367 11.602L4.99743 11.8343L4.59157 11.0999L4.44163 10.8286L4.13362 10.7939L3.29986 10.7L3.20592 9.86623L3.17121 9.55822L2.89992 9.40828L2.16558 9.00242L2.39785 8.19618L2.48366 7.89833L2.2904 7.65599L1.76728 7L2.2904 6.34402L2.48366 6.10168L2.39785 5.80382L2.16558 4.99758L2.89992 4.59172L3.17121 4.44179L3.20592 4.13377L3.29986 3.30001L4.13362 3.20607L4.44163 3.17136L4.59157 2.90007L4.99743 2.16573L5.80367 2.39801L6.10152 2.48381L6.34386 2.29056ZM4.35434 3.4541V10.5H5.82895V7.92188H7.03501L8.34848 10.5H10.0184L8.53403 7.70215C9.33969 7.38477 9.80844 6.6084 9.80844 5.70508V5.69531C9.80844 4.3086 8.89047 3.4541 7.28891 3.4541H4.35434ZM7.12778 6.84766H5.82895V4.60645H7.10825C7.84555 4.60645 8.29965 5.0459 8.29965 5.72461V5.73438C8.29965 6.42774 7.86508 6.84766 7.12778 6.84766Z" fill="black"/>
</svg>
