<svg xmlns="http://www.w3.org/2000/svg" width="14" height="14" viewBox="0 0 14 14" fill="none">
  <path d="M4.22929 3.88843L4.08366 3.97267V7.58356L4.5505 7.23292C5.23291 6.72031 6.08076 6.41669 7.00033 6.41669C8.38253 6.41669 9.53955 5.45547 9.84069 4.16534L9.8875 3.96476L9.71417 3.85355C9.30925 3.59379 9.04199 3.14054 9.04199 2.62502C9.04199 1.81961 9.69492 1.16669 10.5003 1.16669C11.3057 1.16669 11.9587 1.81961 11.9587 2.62502C11.9587 3.18172 11.6468 3.66604 11.1869 3.912L11.0583 3.9808L11.0362 4.12495C10.7356 6.0834 9.04287 7.58335 7.00033 7.58335C5.61812 7.58335 4.4611 8.54457 4.15996 9.8347L4.11315 10.0353L4.28648 10.1465C4.6914 10.4062 4.95866 10.8595 4.95866 11.375C4.95866 12.1804 4.30573 12.8334 3.50033 12.8334C2.69491 12.8334 2.04199 12.1804 2.04199 11.375C2.04199 10.8356 2.33471 10.3642 2.77137 10.1116L2.91699 10.0274V3.97267L2.77137 3.88843C2.33471 3.63585 2.04199 3.16443 2.04199 2.62502C2.04199 1.81961 2.69491 1.16669 3.50033 1.16669C4.30573 1.16669 4.95866 1.81961 4.95866 2.62502C4.95866 3.16443 4.66594 3.63585 4.22929 3.88843Z" fill="black"/>
</svg>
