<svg xmlns="http://www.w3.org/2000/svg" width="14" height="14" viewBox="0 0 14 14" fill="none">
  <g clip-path="url(#clip0_39_40104)">
    <path d="M10.9251 8.5561C10.696 8.67909 10.4389 8.74832 10.1754 8.75777C9.91193 8.76722 9.64999 8.71675 9.41157 8.61049C8.74699 8.32349 8.38796 7.59626 8.5659 6.89313C8.73719 6.09356 9.37615 5.4791 10.1799 5.33832C10.3846 5.28831 10.5984 5.28035 10.8066 5.31497C11.0149 5.34958 11.2129 5.42597 11.3871 5.53898C11.7445 5.76769 11.9932 6.13395 12.0747 6.55088V6.85427C12.0459 7.61026 11.5921 8.28541 10.9021 8.59495C10.3142 8.85941 11.4925 8.25426 10.9251 8.5561ZM13.9605 6.16284C13.8452 5.31502 13.3511 4.56599 12.6182 4.12646C12.2367 3.87974 11.8049 3.71082 11.3503 3.63047C10.8957 3.55011 10.4284 3.56011 9.97815 3.65981C8.94138 3.80998 8.00758 4.36998 7.38584 5.21462C7.10416 5.57414 6.88897 5.97596 6.74923 6.40312H3.76825C3.71882 6.4008 3.66984 6.41302 3.6281 6.43811C3.58635 6.46319 3.5539 6.49989 3.53523 6.54313C3.40344 6.78423 3.17783 7.25872 3.06172 7.53872C2.99912 7.69426 3.06172 7.81872 3.24042 7.81872H5.02569L4.77699 8.15234C4.5975 8.37277 4.35927 8.54434 4.08658 8.64955C3.81389 8.75476 3.5165 8.78983 3.22474 8.75126C2.50832 8.65718 1.97308 8.04426 1.9747 7.32018C1.9319 6.60847 2.28432 5.93018 2.89042 5.55612C3.12689 5.38414 3.41094 5.28019 3.70847 5.25673C4.00602 5.23327 4.30441 5.29129 4.56786 5.42385C4.73916 5.49935 4.88899 5.61752 5.00267 5.7661C5.12618 5.90612 5.13439 5.89831 5.27439 5.85945L6.82664 5.45497C6.94275 5.45497 6.98144 5.38499 6.91972 5.29939C6.70639 4.78097 6.33357 4.33459 5.8492 4.01762C5.49521 3.78701 5.09418 3.62848 4.67167 3.55215C4.24915 3.47582 3.81442 3.48336 3.39516 3.57428C2.36502 3.74306 1.43786 4.29918 0.802872 5.12909C0.1872 5.89186 -0.0911366 6.85005 0.0263473 7.80234C0.0672926 8.19819 0.192991 8.58214 0.395828 8.93081C0.598665 9.27948 0.874419 9.58566 1.20639 9.83087C1.92449 10.3543 2.82042 10.5698 3.69825 10.4298C4.75397 10.2952 5.70758 9.73364 6.33751 8.87495C6.48808 8.67181 6.61795 8.45565 6.72541 8.22941C6.86944 8.80803 7.18648 9.32918 7.63364 9.72272C8.26126 10.233 9.06486 10.5094 9.89331 10.4998C10.1338 10.4998 10.3898 10.4609 10.6691 10.4143C11.5202 10.254 12.2966 9.84592 12.8891 9.24749C13.7447 8.45726 14.1441 7.28903 13.953 6.13948C13.7876 5.1423 14.098 7.16303 13.9613 6.16278L13.9605 6.16284Z" fill="black"/>
  </g>
  <defs>
    <clipPath id="clip0_39_40104">
      <rect width="14" height="14" fill="white"/>
    </clipPath>
  </defs>
</svg>
