<svg xmlns="http://www.w3.org/2000/svg" width="12" height="10" viewBox="0 0 12 10" fill="none">
  <path d="M0.967285 1.19994C0.967285 0.81334 1.28069 0.499939 1.66729 0.499939H10.3322C10.7188 0.499939 11.0322 0.81334 11.0322 1.19994C11.0322 1.58654 10.7188 1.89994 10.3322 1.89994H1.66729C1.28069 1.89994 0.967285 1.58654 0.967285 1.19994ZM0.967285 4.99999C0.967285 4.61339 1.28069 4.29999 1.66729 4.29999H10.3322C10.7188 4.29999 11.0322 4.61339 11.0322 4.99999C11.0322 5.38659 10.7188 5.69999 10.3322 5.69999H1.66729C1.28069 5.69999 0.967285 5.38659 0.967285 4.99999ZM1.66729 8.10004C1.28069 8.10004 0.967285 8.41344 0.967285 8.80004C0.967285 9.18664 1.28069 9.50004 1.66729 9.50004H6.48115C6.86775 9.50004 7.18115 9.18664 7.18115 8.80004C7.18115 8.41344 6.86775 8.10004 6.48115 8.10004H1.66729Z" fill="black"/>
</svg>
