<svg xmlns="http://www.w3.org/2000/svg" width="14" height="14" viewBox="0 0 14 14" fill="none">
  <path d="M8.48555 2.29501C8.75892 2.02164 8.75892 1.57843 8.48555 1.30506C8.21218 1.03169 7.76897 1.03169 7.4956 1.30506L1.30512 7.49554C1.03176 7.76891 1.03176 8.21212 1.30512 8.48549C1.57849 8.75885 2.02171 8.75885 2.29507 8.48549L8.48555 2.29501ZM4.19983 1.54316C4.4732 1.81652 4.4732 2.25974 4.19983 2.53311L2.53317 4.19977C2.2598 4.47314 1.81659 4.47314 1.54322 4.19977C1.26985 3.92641 1.26985 3.48319 1.54322 3.20982L3.20988 1.54316C3.48325 1.26979 3.92647 1.26979 4.19983 1.54316ZM12.5332 9.87649C12.8065 10.1499 12.8065 10.5931 12.5332 10.8664L10.8665 12.5331C10.5931 12.8065 10.1499 12.8065 9.87655 12.5331C9.60318 12.2597 9.60318 11.8165 9.87655 11.5432L11.5432 9.87649C11.8166 9.60312 12.2598 9.60312 12.5332 9.87649ZM12.7713 5.59078C13.0446 5.86414 13.0446 6.30736 12.7713 6.58073L6.58079 12.7712C6.30742 13.0446 5.8642 13.0446 5.59084 12.7712C5.31747 12.4978 5.31747 12.0546 5.59084 11.7813L11.7813 5.59078C12.0547 5.31741 12.4979 5.31741 12.7713 5.59078ZM12.2951 2.7712C12.5684 2.49783 12.5684 2.05462 12.2951 1.78125C12.0217 1.50789 11.5785 1.50789 11.3051 1.78125L1.78131 11.3051C1.50795 11.5784 1.50795 12.0216 1.78131 12.295C2.05468 12.5684 2.4979 12.5684 2.77126 12.295L12.2951 2.7712Z" fill="black"/>
</svg>
