<svg xmlns="http://www.w3.org/2000/svg" width="14" height="14" viewBox="0 0 14 14" fill="none">
  <path d="M4.4115 3.58552C4.27041 3.04943 4.21894 2.63782 4.23249 2.36201C4.2352 2.3069 4.23998 2.26328 4.24538 2.22918C4.27761 2.24155 4.31777 2.25922 4.36685 2.28444C4.61249 2.4106 4.94322 2.66098 5.33694 3.05122C5.58612 3.29819 5.84896 3.58954 6.11882 3.91939C5.95543 4.14672 5.79245 4.38362 5.63091 4.62895C5.33766 4.64618 5.051 4.66888 4.77241 4.69672C4.62169 4.2981 4.50079 3.9248 4.4115 3.58552ZM6.99984 2.79048C6.77019 2.52147 6.54343 2.27586 6.32248 2.05687C5.88055 1.61886 5.43275 1.25804 5.00649 1.0391C4.61339 0.837194 4.03913 0.65815 3.51354 0.961601C2.98795 1.26505 2.85587 1.8519 2.83418 2.29328C2.81065 2.7719 2.89924 3.34013 3.0576 3.94185C3.13678 4.24269 3.2361 4.56188 3.35424 4.89526C3.00649 4.95963 2.68044 5.0332 2.38034 5.11504C1.78006 5.27876 1.24367 5.48615 0.840931 5.74584C0.46953 5.98532 0.0273438 6.39312 0.0273438 7.00002C0.0273437 7.60692 0.46953 8.01472 0.840931 8.2542C1.24367 8.51389 1.78006 8.72128 2.38034 8.885C2.68045 8.96684 3.00652 9.04042 3.35428 9.10479C3.23615 9.43815 3.13683 9.75731 3.05766 10.0581C2.8993 10.6599 2.81072 11.2281 2.83424 11.7067C2.85594 12.1481 2.98801 12.7349 3.5136 13.0384C4.03919 13.3418 4.61345 13.1628 5.00655 12.9609C5.43281 12.7419 5.88061 12.3811 6.32254 11.9431C6.54347 11.7241 6.77021 11.4785 6.99983 11.2096C7.22946 11.4785 7.4562 11.7241 7.67713 11.9431C8.11906 12.3811 8.56686 12.7419 8.99312 12.9609C9.38622 13.1628 9.96048 13.3418 10.4861 13.0384C11.0117 12.7349 11.1437 12.1481 11.1654 11.7067C11.189 11.2281 11.1004 10.6599 10.942 10.0581C10.8628 9.75731 10.7635 9.43815 10.6454 9.1048C10.9932 9.04043 11.3193 8.96685 11.6194 8.885C12.2197 8.72128 12.7561 8.51389 13.1588 8.2542C13.5302 8.01472 13.9724 7.60692 13.9724 7.00002C13.9724 6.39312 13.5302 5.98532 13.1588 5.74584C12.7561 5.48615 12.2197 5.27876 11.6194 5.11504C11.3193 5.03319 10.9932 4.95962 10.6454 4.89524C10.7636 4.56187 10.8629 4.24268 10.9421 3.94185C11.1004 3.34013 11.189 2.7719 11.1655 2.29328C11.1438 1.8519 11.0117 1.26505 10.4861 0.961601C9.96054 0.65815 9.38628 0.837194 8.99318 1.0391C8.56692 1.25804 8.11912 1.61886 7.67719 2.05687C7.45624 2.27586 7.22948 2.52147 6.99984 2.79048ZM5.84136 7.00005C5.93229 6.83275 6.02672 6.66414 6.12458 6.49464C6.22242 6.32517 6.32121 6.15912 6.42061 5.99675C6.61094 5.99185 6.80416 5.98933 6.99987 5.98933C7.19556 5.98933 7.38875 5.99185 7.57906 5.99675C7.67846 6.15911 7.77724 6.32517 7.87509 6.49464C7.97295 6.66414 8.06738 6.83275 8.15831 7.00004C8.0674 7.1673 7.97299 7.33587 7.87515 7.50533C7.77729 7.67483 7.6785 7.84091 7.57908 8.00329C7.38877 8.00819 7.19556 8.01071 6.99987 8.01071C6.80416 8.01071 6.61093 8.00819 6.42058 8.00329C6.32117 7.8409 6.22238 7.67482 6.12452 7.50533C6.02668 7.33587 5.93227 7.1673 5.84136 7.00005ZM4.77245 9.30332C5.05102 9.33116 5.33765 9.35386 5.63088 9.37109C5.79243 9.61643 5.95541 9.85333 6.11881 10.0807C5.84898 10.4105 5.58616 10.7018 5.337 10.9488C4.94328 11.339 4.61255 11.5894 4.36691 11.7155C4.31783 11.7408 4.27767 11.7584 4.24544 11.7708C4.24004 11.7367 4.23526 11.6931 4.23255 11.638C4.219 11.3622 4.27047 10.9506 4.41156 10.4145C4.50085 10.0752 4.62174 9.70192 4.77245 9.30332ZM9.22726 4.69671C8.94867 4.66888 8.66201 4.64618 8.36877 4.62894C8.20722 4.38361 8.04424 4.14672 7.88085 3.91939C8.15071 3.58954 8.41355 3.29819 8.66273 3.05122C9.05645 2.66098 9.38718 2.4106 9.63282 2.28444C9.6819 2.25922 9.72206 2.24155 9.75429 2.22918C9.75969 2.26328 9.76447 2.3069 9.76718 2.36201C9.78073 2.63782 9.72926 3.04943 9.58817 3.58552C9.49888 3.9248 9.37798 4.29809 9.22726 4.69671ZM9.73772 7.00005C9.86941 6.73747 9.99309 6.47786 10.1083 6.22268C10.5288 6.29146 10.9126 6.37341 11.251 6.46571C11.7859 6.61157 12.1681 6.7728 12.4001 6.92245C12.4465 6.95235 12.4819 6.9783 12.5087 7.00002C12.4819 7.02174 12.4465 7.04769 12.4001 7.07759C12.1681 7.22724 11.7859 7.38847 11.251 7.53433C10.9126 7.62664 10.5288 7.70858 10.1082 7.77736C9.99307 7.5222 9.8694 7.26261 9.73772 7.00005ZM7.88086 10.0807C8.04425 9.85333 8.20723 9.61643 8.36878 9.3711C8.66201 9.35386 8.94865 9.33117 9.22722 9.30333C9.37793 9.70193 9.49882 10.0752 9.58811 10.4145C9.7292 10.9506 9.78067 11.3622 9.76712 11.638C9.76441 11.6931 9.75963 11.7367 9.75423 11.7708C9.722 11.7584 9.68184 11.7408 9.63276 11.7155C9.38712 11.5894 9.05639 11.339 8.66267 10.9488C8.41351 10.7018 8.15069 10.4105 7.88086 10.0807ZM4.26195 7.00005C4.13027 7.26261 4.00661 7.52219 3.89143 7.77735C3.47088 7.70857 3.08716 7.62663 2.74871 7.53433C2.21389 7.38847 1.83169 7.22724 1.59961 7.07759C1.55323 7.04769 1.51785 7.02174 1.49102 7.00002C1.51785 6.9783 1.55323 6.95235 1.59961 6.92245C1.83169 6.7728 2.21389 6.61157 2.74871 6.46571C3.08715 6.37341 3.47086 6.29147 3.8914 6.22269C4.00658 6.47787 4.13026 6.73747 4.26195 7.00005ZM4.27496 2.12098C4.27501 2.12104 4.27444 2.12215 4.27312 2.1241C4.27425 2.12189 4.27491 2.12091 4.27496 2.12098ZM4.14051 2.20067C4.13815 2.20084 4.13691 2.20078 4.13688 2.2007C4.13685 2.20062 4.13802 2.20054 4.14051 2.20067ZM9.72465 11.879C9.7246 11.8789 9.72516 11.8778 9.72649 11.8759L9.72502 11.8785C9.7248 11.8789 9.72467 11.879 9.72465 11.879ZM9.8591 11.7993C9.86145 11.7991 9.8627 11.7992 9.86273 11.7993C9.86276 11.7994 9.86159 11.7994 9.8591 11.7993ZM12.5876 7.07974C12.5876 7.07975 12.5869 7.07871 12.5859 7.07658C12.5872 7.07867 12.5877 7.07973 12.5876 7.07974ZM12.5859 6.92346C12.5869 6.92133 12.5876 6.92029 12.5876 6.9203C12.5877 6.9203 12.5876 6.92058 12.5873 6.92114L12.5859 6.92346ZM1.4121 6.9203C1.41218 6.92029 1.41286 6.92133 1.41389 6.92346C1.41254 6.92137 1.41202 6.92031 1.4121 6.9203ZM1.41389 7.07658C1.41286 7.07871 1.41219 7.07975 1.4121 7.07974C1.41202 7.07973 1.41253 7.07867 1.41389 7.07658ZM9.72471 2.12098C9.72466 2.12104 9.72523 2.12215 9.72655 2.1241C9.72542 2.12189 9.72476 2.12091 9.72471 2.12098ZM9.85916 2.20067C9.86152 2.20084 9.86276 2.20078 9.86279 2.2007C9.86282 2.20062 9.86165 2.20054 9.85916 2.20067ZM4.27318 11.8759C4.2745 11.8778 4.27507 11.8789 4.27502 11.879C4.27499 11.879 4.27462 11.8785 4.27397 11.8774C4.27374 11.877 4.27348 11.8765 4.27318 11.8759ZM4.14057 11.7993C4.13821 11.7991 4.13697 11.7992 4.13694 11.7993C4.13691 11.7994 4.13808 11.7994 4.14057 11.7993Z" fill="black"/>
</svg>
