<svg xmlns="http://www.w3.org/2000/svg" width="14" height="14" viewBox="0 0 14 14" fill="none">
  <path opacity="0.2" fill-rule="evenodd" clip-rule="evenodd" d="M2.36635 5.22418C1.85025 5.91721 1.50535 6.58327 1.31932 6.98692C1.28562 7.06004 1.28901 7.14042 1.33531 7.21587C1.67333 7.76666 2.39367 8.83217 3.39697 9.75332C4.40632 10.68 5.63484 11.4 6.99988 11.4C8.36493 11.4 9.59344 10.68 10.6028 9.75331C11.6061 8.83217 12.3264 7.76665 12.6644 7.21586C12.7107 7.14042 12.7141 7.06004 12.6804 6.98693C12.4143 6.40954 11.8232 5.29528 10.8709 4.33316C9.924 3.37642 8.65254 2.60002 6.99988 2.60002C6.56736 2.60002 6.16095 2.6532 5.77963 2.74887C4.4119 3.2202 3.21854 4.28048 2.36635 5.22418ZM4.49988 7.00002C4.49988 5.61932 5.61918 4.50002 6.99988 4.50002C8.38058 4.50002 9.49988 5.61932 9.49988 7.00002C9.49988 8.38072 8.38058 9.50002 6.99988 9.50002C5.61918 9.50002 4.49988 8.38072 4.49988 7.00002ZM6.99988 5.50002C6.17146 5.50002 5.49988 6.1716 5.49988 7.00002C5.49988 7.82844 6.17146 8.50002 6.99988 8.50002C7.8283 8.50002 8.49988 7.82844 8.49988 7.00002C8.49988 6.1716 7.8283 5.50002 6.99988 5.50002Z" fill="black"/>
  <path fill-rule="evenodd" clip-rule="evenodd" d="M6.99972 1.40002C4.93159 1.40002 3.37103 2.38241 2.27578 3.48901C1.18584 4.59023 0.524652 5.84385 0.229324 6.48466C0.0244458 6.92922 0.0605508 7.43316 0.312388 7.84353C0.678773 8.44055 1.46657 9.6102 2.58524 10.6373C3.69784 11.6588 5.2051 12.6 6.99972 12.6C8.79434 12.6 10.3016 11.6588 11.4142 10.6373C12.5328 9.61019 13.3206 8.44053 13.687 7.84352C13.9388 7.43316 13.9749 6.92922 13.7701 6.48468C13.4748 5.84387 12.8136 4.59025 11.7237 3.48902C10.6284 2.38242 9.06785 1.40002 6.99972 1.40002ZM1.31915 6.98693C1.58525 6.40954 2.17641 5.29527 3.12866 4.33316C4.07559 3.37642 5.34706 2.60002 6.99972 2.60002C8.65238 2.60002 9.92384 3.37642 10.8708 4.33316C11.823 5.29528 12.4142 6.40955 12.6802 6.98693C12.7139 7.06004 12.7105 7.14042 12.6642 7.21587C12.3262 7.76666 11.6059 8.83217 10.6026 9.75332C9.59328 10.68 8.36477 11.4 6.99972 11.4C5.63467 11.4 4.40616 10.68 3.3968 9.75332C2.39351 8.83217 1.67317 7.76666 1.33515 7.21587C1.28885 7.14042 1.28546 7.06004 1.31915 6.98693ZM6.99972 4.50002C5.61902 4.50002 4.49972 5.61932 4.49972 7.00002C4.49972 8.38073 5.61902 9.50002 6.99972 9.50002C8.38042 9.50002 9.49972 8.38073 9.49972 7.00002C9.49972 5.61932 8.38042 4.50002 6.99972 4.50002ZM5.49972 7.00002C5.49972 6.17161 6.1713 5.50002 6.99972 5.50002C7.82814 5.50002 8.49972 6.17161 8.49972 7.00002C8.49972 7.82844 7.82814 8.50002 6.99972 8.50002C6.1713 8.50002 5.49972 7.82844 5.49972 7.00002Z" fill="black"/>
</svg>
