<svg xmlns="http://www.w3.org/2000/svg" width="14" height="14" viewBox="0 0 14 14" fill="none">
  <path opacity="0.2" fill-rule="evenodd" clip-rule="evenodd" d="M1.3501 6.99999C1.3501 3.87958 3.87968 1.34999 7.0001 1.34999C10.1205 1.34999 12.6501 3.87958 12.6501 6.99999C12.6501 10.1204 10.1205 12.65 7.0001 12.65C3.87968 12.65 1.3501 10.1204 1.3501 6.99999ZM7.36296 6.14795C6.73097 6.63641 6.02097 7.18517 6.1531 8.17299H7.5831C7.49448 7.4087 8.06117 6.97902 8.64575 6.53578C9.22222 6.09868 9.8161 5.64839 9.8161 4.85099C9.8161 3.38799 8.6501 2.63999 7.0551 2.63999C5.8781 2.63999 4.9101 3.17899 4.2061 3.99299L5.1081 4.81799C5.6471 4.25699 6.1971 3.94899 6.8681 3.94899C7.7371 3.94899 8.2651 4.32299 8.2651 4.99399C8.2651 5.45068 7.83587 5.78243 7.36296 6.14795ZM5.9001 10.131C5.9001 10.703 6.3071 11.11 6.8791 11.11C7.4291 11.11 7.8471 10.703 7.8471 10.131C7.8471 9.55899 7.4291 9.16299 6.8791 9.16299C6.3181 9.16299 5.9001 9.55899 5.9001 10.131Z" fill="black"/>
  <path fill-rule="evenodd" clip-rule="evenodd" d="M1.3499 6.99999C1.3499 3.87958 3.87949 1.34999 6.99991 1.34999C10.1203 1.34999 12.6499 3.87958 12.6499 6.99999C12.6499 10.1204 10.1203 12.65 6.99991 12.65C3.87949 12.65 1.3499 10.1204 1.3499 6.99999ZM6.99991 0.149994C3.21675 0.149994 0.149902 3.21684 0.149902 6.99999C0.149902 10.7831 3.21675 13.85 6.99991 13.85C10.783 13.85 13.8499 10.7831 13.8499 6.99999C13.8499 3.21684 10.783 0.149994 6.99991 0.149994ZM7.36276 6.14795C6.73077 6.63641 6.02077 7.18517 6.1529 8.17299H7.5829C7.49429 7.4087 8.06097 6.97902 8.64555 6.53578C9.22203 6.09868 9.8159 5.64839 9.8159 4.85099C9.8159 3.38799 8.6499 2.63999 7.0549 2.63999C5.8779 2.63999 4.9099 3.17899 4.2059 3.99299L5.1079 4.81799C5.6469 4.25699 6.1969 3.94899 6.8679 3.94899C7.7369 3.94899 8.2649 4.32299 8.2649 4.99399C8.2649 5.45069 7.83567 5.78244 7.36276 6.14795ZM5.8999 10.131C5.8999 10.703 6.3069 11.11 6.8789 11.11C7.4289 11.11 7.8469 10.703 7.8469 10.131C7.8469 9.55899 7.4289 9.16299 6.8789 9.16299C6.3179 9.16299 5.8999 9.55899 5.8999 10.131Z" fill="black"/>
</svg>
