<svg xmlns="http://www.w3.org/2000/svg" width="14" height="14" viewBox="0 0 14 14" fill="none">
  <path opacity="0.2" fill-rule="evenodd" clip-rule="evenodd" d="M7.0002 1.44853L5.50447 2.94427C5.39194 3.05679 5.23933 3.12 5.0802 3.12H3.1202V5.08C3.1202 5.23913 3.05699 5.39175 2.94447 5.50427L1.44873 7L2.94447 8.49574C3.05699 8.60826 3.1202 8.76087 3.1202 8.92V10.88H5.0802C5.23933 10.88 5.39194 10.9432 5.50447 11.0557L7.0002 12.5515L8.49594 11.0557C8.60846 10.9432 8.76107 10.88 8.9202 10.88H10.8802V8.92C10.8802 8.76087 10.9434 8.60826 11.0559 8.49574L12.5517 7L11.0559 5.50427C10.9434 5.39175 10.8802 5.23913 10.8802 5.08V3.12H8.9202C8.76107 3.12 8.60846 3.05679 8.49594 2.94427L7.0002 1.44853ZM4.3752 6.85C4.3752 5.4831 5.4833 4.375 6.8502 4.375C8.2171 4.375 9.3252 5.4831 9.3252 6.85C9.3252 8.21691 8.2171 9.325 6.8502 9.325C5.4833 9.325 4.3752 8.21691 4.3752 6.85ZM6.8502 5.575C6.14604 5.575 5.5752 6.14584 5.5752 6.85C5.5752 7.55416 6.14604 8.125 6.8502 8.125C7.55436 8.125 8.1252 7.55416 8.1252 6.85C8.1252 6.14584 7.55436 5.575 6.8502 5.575Z" fill="black"/>
  <path fill-rule="evenodd" clip-rule="evenodd" d="M7.42426 0.175736C7.18995 -0.0585787 6.81005 -0.0585787 6.57574 0.175736L4.83147 1.92H2.52C2.18863 1.92 1.92 2.18863 1.92 2.52V4.83147L0.175736 6.57574C-0.0585787 6.81005 -0.0585787 7.18995 0.175736 7.42426L1.92 9.16853V11.48C1.92 11.8114 2.18863 12.08 2.52 12.08H4.83147L6.57574 13.8243C6.81005 14.0586 7.18995 14.0586 7.42426 13.8243L9.16853 12.08H11.48C11.8114 12.08 12.08 11.8114 12.08 11.48V9.16853L13.8243 7.42426C14.0586 7.18995 14.0586 6.81005 13.8243 6.57574L12.08 4.83147V2.52C12.08 2.18863 11.8114 1.92 11.48 1.92H9.16853L7.42426 0.175736ZM5.50426 2.94426L7 1.44853L8.49574 2.94426C8.60826 3.05679 8.76087 3.12 8.92 3.12H10.88V5.08C10.88 5.23913 10.9432 5.39174 11.0557 5.50426L12.5515 7L11.0557 8.49574C10.9432 8.60826 10.88 8.76087 10.88 8.92V10.88H8.92C8.76087 10.88 8.60826 10.9432 8.49574 11.0557L7 12.5515L5.50426 11.0557C5.39174 10.9432 5.23913 10.88 5.08 10.88H3.12V8.92C3.12 8.76087 3.05679 8.60826 2.94426 8.49574L1.44853 7L2.94426 5.50426C3.05679 5.39174 3.12 5.23913 3.12 5.08V3.12H5.08C5.23913 3.12 5.39174 3.05679 5.50426 2.94426ZM6.85 4.375C5.4831 4.375 4.375 5.4831 4.375 6.85C4.375 8.2169 5.4831 9.325 6.85 9.325C8.2169 9.325 9.325 8.2169 9.325 6.85C9.325 5.4831 8.2169 4.375 6.85 4.375ZM5.575 6.85C5.575 6.14584 6.14584 5.575 6.85 5.575C7.55416 5.575 8.125 6.14584 8.125 6.85C8.125 7.55416 7.55416 8.125 6.85 8.125C6.14584 8.125 5.575 7.55416 5.575 6.85Z" fill="black"/>
</svg>
