<svg xmlns="http://www.w3.org/2000/svg" width="14" height="14" viewBox="0 0 14 14" fill="none">
  <path d="M7.85005 0.331638C7.32407 0.0279625 6.67603 0.0279633 6.15005 0.331639L1.65005 2.92971C1.12407 3.23339 0.800049 3.79461 0.800049 4.40196V9.59811C0.800049 10.2055 1.12407 10.7667 1.65005 11.0704L6.15005 13.6684C6.67603 13.9721 7.32407 13.9721 7.85005 13.6684L12.35 11.0704C12.876 10.7667 13.2 10.2055 13.2 9.59811V4.40196C13.2 3.79461 12.876 3.23339 12.35 2.92971L7.85005 0.331638ZM6.85005 1.54407C6.94287 1.49048 7.05723 1.49048 7.15005 1.54407L11.65 4.14215C11.7429 4.19574 11.8 4.29478 11.8 4.40196V9.59811C11.8 9.70529 11.7429 9.80433 11.65 9.85792L7.15005 12.456C7.05723 12.5096 6.94287 12.5096 6.85005 12.456L2.35005 9.85792C2.25723 9.80433 2.20005 9.70529 2.20005 9.59811V4.40196C2.20005 4.29478 2.25723 4.19574 2.35005 4.14215L6.85005 1.54407ZM5.9001 4.5001C5.9001 4.1135 5.5867 3.8001 5.2001 3.8001C4.8135 3.8001 4.5001 4.1135 4.5001 4.5001V6.99173L4.50005 7.0001L4.5001 7.00847L4.5001 9.5001C4.5001 9.8867 4.8135 10.2001 5.2001 10.2001C5.5867 10.2001 5.9001 9.8867 5.9001 9.5001V7.7001H8.2501V9.5001C8.2501 9.8867 8.5635 10.2001 8.9501 10.2001C9.3367 10.2001 9.6501 9.8867 9.6501 9.5001V4.5001C9.6501 4.1135 9.3367 3.8001 8.9501 3.8001C8.5635 3.8001 8.2501 4.1135 8.2501 4.5001V6.3001H5.9001V4.5001Z" fill="#50C199"/>
</svg>
