<svg xmlns="http://www.w3.org/2000/svg" width="14" height="14" viewBox="0 0 14 14" fill="none">
  <path d="M2 3.53588L1.65 2.92967L2 3.53588ZM2 10.4641L2.35 9.85787L2 10.4641ZM7.5 13.0622L7.85 13.6684L7.5 13.0622ZM6.5 13.0622L6.15 13.6684L6.5 13.0622ZM12 10.4641L11.65 9.85787L12 10.4641ZM12 3.53588L12.35 2.92967L12 3.53588ZM7.5 0.937807L7.15 1.54403L7.5 0.937807ZM6.5 0.937808L6.85 1.54403L6.5 0.937808ZM7.15 1.54403L11.65 4.1421L12.35 2.92967L7.85 0.33159L7.15 1.54403ZM11.8 4.40191V9.59806H13.2V4.40191H11.8ZM11.65 9.85787L7.15 12.4559L7.85 13.6684L12.35 11.0703L11.65 9.85787ZM6.85 12.4559L2.35 9.85787L1.65 11.0703L6.15 13.6684L6.85 12.4559ZM2.2 9.59806V4.40191H0.8V9.59806H2.2ZM2.35 4.1421L6.85 1.54403L6.15 0.33159L1.65 2.92967L2.35 4.1421ZM2.2 4.40191C2.2 4.29473 2.25718 4.19569 2.35 4.1421L1.65 2.92967C1.12402 3.23334 0.8 3.79456 0.8 4.40191H2.2ZM2.35 9.85787C2.25718 9.80428 2.2 9.70524 2.2 9.59806H0.8C0.8 10.2054 1.12402 10.7666 1.65 11.0703L2.35 9.85787ZM7.15 12.4559C7.05718 12.5095 6.94282 12.5095 6.85 12.4559L6.15 13.6684C6.67598 13.9721 7.32402 13.9721 7.85 13.6684L7.15 12.4559ZM11.8 9.59806C11.8 9.70524 11.7428 9.80428 11.65 9.85787L12.35 11.0703C12.876 10.7666 13.2 10.2054 13.2 9.59806H11.8ZM11.65 4.1421C11.7428 4.19569 11.8 4.29473 11.8 4.40191H13.2C13.2 3.79456 12.876 3.23334 12.35 2.92967L11.65 4.1421ZM7.85 0.33159C7.32402 0.0279137 6.67598 0.0279145 6.15 0.33159L6.85 1.54403C6.94282 1.49044 7.05718 1.49044 7.15 1.54403L7.85 0.33159Z" fill="#166EF3"/>
  <mask id="path-2-inside-1_13209_69545" fill="white">
    <path d="M9.45746 5.04999C9.09407 4.53102 8.57573 4.14042 7.9767 3.93416C7.37768 3.7279 6.72874 3.71657 6.12289 3.9018C5.51703 4.08703 4.98537 4.45931 4.60409 4.96527C4.22282 5.47124 4.01151 6.08492 4.00046 6.71836C3.9894 7.3518 4.17916 7.97248 4.54254 8.49145C4.90593 9.01041 5.42427 9.40101 6.02329 9.60727C6.62232 9.81353 7.27126 9.82486 7.87711 9.63963C8.48297 9.4544 9.01463 9.08213 9.39591 8.57616L8.30013 7.75044C8.09324 8.025 7.80473 8.22701 7.47596 8.32753C7.1472 8.42804 6.79505 8.42189 6.46999 8.30997C6.14494 8.19804 5.86366 7.98608 5.66647 7.70447C5.46928 7.42285 5.36631 7.08604 5.37231 6.7423C5.37831 6.39857 5.49297 6.06556 5.69987 5.791C5.90676 5.51644 6.19527 5.31442 6.52404 5.21391C6.8528 5.11339 7.20495 5.11954 7.53001 5.23147C7.85506 5.34339 8.13634 5.55535 8.33353 5.83697L9.45746 5.04999Z"/>
  </mask>
  <path d="M9.45746 5.04999C9.09407 4.53102 8.57573 4.14042 7.9767 3.93416C7.37768 3.7279 6.72874 3.71657 6.12289 3.9018C5.51703 4.08703 4.98537 4.45931 4.60409 4.96527C4.22282 5.47124 4.01151 6.08492 4.00046 6.71836C3.9894 7.3518 4.17916 7.97248 4.54254 8.49145C4.90593 9.01041 5.42427 9.40101 6.02329 9.60727C6.62232 9.81353 7.27126 9.82486 7.87711 9.63963C8.48297 9.4544 9.01463 9.08213 9.39591 8.57616L8.30013 7.75044C8.09324 8.025 7.80473 8.22701 7.47596 8.32753C7.1472 8.42804 6.79505 8.42189 6.46999 8.30997C6.14494 8.19804 5.86366 7.98608 5.66647 7.70447C5.46928 7.42285 5.36631 7.08604 5.37231 6.7423C5.37831 6.39857 5.49297 6.06556 5.69987 5.791C5.90676 5.51644 6.19527 5.31442 6.52404 5.21391C6.8528 5.11339 7.20495 5.11954 7.53001 5.23147C7.85506 5.34339 8.13634 5.55535 8.33353 5.83697L9.45746 5.04999Z" fill="#D9D9D9" stroke="#166EF3" stroke-width="2.8" mask="url(#path-2-inside-1_13209_69545)"/>
</svg>
