<svg width="14" height="12" viewBox="0 0 14 12" fill="none" xmlns="http://www.w3.org/2000/svg">
<path d="M3.97424 3.94661L3.60835 4.28612C3.49027 4.39568 3.48337 4.58023 3.59293 4.69831L3.59446 4.69994L3.59821 4.70385L4.89615 6.02448L3.59821 7.34512C3.48558 7.46028 3.48764 7.64494 3.60281 7.75757L3.60835 7.76285L3.97424 8.10236C4.08948 8.20929 4.26873 8.20565 4.37953 8.09413L6.23355 6.23006C6.34657 6.11631 6.34657 5.93266 6.23355 5.81891L4.37953 3.95483C4.26873 3.84332 4.08948 3.83968 3.97424 3.94661Z" fill="#737780"/>
<path d="M7.29159 6.87499C7.1305 6.87499 6.99992 7.00557 6.99992 7.16666V7.74999C6.99992 7.91107 7.1305 8.04166 7.29159 8.04166H9.91659C10.0777 8.04166 10.2083 7.91107 10.2083 7.74999V7.16666C10.2083 7.00557 10.0777 6.87499 9.91659 6.87499H7.29159Z" fill="#737780"/>
<path fill-rule="evenodd" clip-rule="evenodd" d="M12.8333 0.166656C13.1554 0.166656 13.4166 0.427824 13.4166 0.74999V11.25C13.4166 11.5722 13.1554 11.8333 12.8333 11.8333H1.16659C0.844419 11.8333 0.583252 11.5722 0.583252 11.25V0.74999C0.583252 0.427824 0.844419 0.166656 1.16659 0.166656H12.8333ZM12.2499 1.33332H1.74992V10.6667H12.2499V1.33332Z" fill="#737780"/>
</svg>
