<svg xmlns="http://www.w3.org/2000/svg" width="12" height="14" viewBox="0 0 12 14" fill="none">
  <path opacity="0.2" d="M1 2.40137C1 1.84908 1.44772 1.40137 2 1.40137H6.74092C7.27135 1.40137 7.78006 1.61208 8.15513 1.98715L10.0493 3.88128C10.4243 4.25635 10.635 4.76506 10.635 5.29549V11.7882C10.635 12.3405 10.1873 12.7882 9.63504 12.7882H2C1.44772 12.7882 1 12.3405 1 11.7882L1 2.40137Z" fill="#939FB8"/>
  <path d="M1 2.40149C1 1.8492 1.44772 1.40149 2 1.40149H6.74092C7.27135 1.40149 7.78006 1.6122 8.15513 1.98728L10.0493 3.8814C10.4243 4.25647 10.635 4.76518 10.635 5.29561V11.7884C10.635 12.3406 10.1873 12.7884 9.63504 12.7884H2C1.44772 12.7884 1 12.3406 1 11.7884L1 2.40149Z" stroke="#939FB8" stroke-width="1.2"/>
  <path d="M7.40435 5.00729H11L7.20435 1.21167V4.80729C7.20435 4.91775 7.29389 5.00729 7.40435 5.00729Z" fill="#939FB8"/>
</svg>
