<svg xmlns="http://www.w3.org/2000/svg" width="14" height="14" viewBox="0 0 14 14" fill="none">
  <path fill-rule="evenodd" clip-rule="evenodd" d="M3.95727 1.675C3.96178 1.66775 3.97061 1.66185 3.98164 1.66185H10.016C10.027 1.66185 10.0358 1.6678 10.0404 1.6751L10.6697 2.78223H3.26226L3.95727 1.675ZM1.67324 3.28776L3.07151 1.04458C3.27449 0.718967 3.61662 0.524658 3.98164 0.524658H10.016C10.3828 0.524658 10.7264 0.720902 10.929 1.04919L12.6875 3.89966L12.652 3.89576C12.8022 4.18285 12.8872 4.50949 12.8872 4.85598V7.02936C12.8872 7.5017 12.6791 7.96571 12.3245 8.28082C12.6743 8.67021 12.8872 9.18522 12.8872 9.74986V11.7983C12.8872 12.6366 12.2317 13.4487 11.2648 13.4487H2.57887C1.61193 13.4487 0.956421 12.6366 0.956421 11.7983V9.74986C0.956421 9.18522 1.1693 8.67021 1.51919 8.28082C1.16453 7.96571 0.956421 7.5017 0.956421 7.02936V4.85598C0.956421 4.22956 1.23417 3.668 1.67324 3.28776ZM10.8135 3.98098C11.2967 3.98098 11.6885 4.37273 11.6885 4.85598V7.02936C11.6885 7.27878 11.4988 7.48098 11.2648 7.48098H2.57887C2.34486 7.48098 2.15517 7.27878 2.15517 7.02936V4.85598C2.15517 4.37273 2.54692 3.98098 3.03017 3.98098H10.8135ZM10.6885 8.74989C11.2408 8.74989 11.6885 9.19765 11.6885 9.74986V11.7983C11.6885 12.0477 11.4988 12.2499 11.2648 12.2499H2.57887C2.34486 12.2499 2.15517 12.0477 2.15517 11.7983V9.74986C2.15517 9.19765 2.60288 8.74989 3.15516 8.74989H10.6885ZM3.99047 9.84375C3.60386 9.84375 3.29047 10.1572 3.29047 10.5437C3.29047 10.9303 3.60386 11.2437 3.99047 11.2437H4.82333C5.20994 11.2437 5.52333 10.9303 5.52333 10.5437C5.52333 10.1572 5.20994 9.84375 4.82333 9.84375H3.99047ZM3.29025 5.77483C3.29025 5.38823 3.60365 5.07482 3.99025 5.07482H4.82313C5.20972 5.07482 5.52313 5.38823 5.52313 5.77483C5.52313 6.16143 5.20972 6.47482 4.82313 6.47482H3.99025C3.60365 6.47482 3.29025 6.16143 3.29025 5.77483Z" fill="#939FB8"/>
  <path opacity="0.2" fill-rule="evenodd" clip-rule="evenodd" d="M1.67324 3.28776L3.07151 1.04458C3.27449 0.718967 3.61662 0.524658 3.98164 0.524658H10.016C10.3828 0.524658 10.7264 0.720902 10.929 1.04919L12.6875 3.89966L12.652 3.89576C12.8022 4.18285 12.8872 4.50949 12.8872 4.85598V7.02936C12.8872 7.5017 12.6791 7.96571 12.3245 8.28082C12.6743 8.67021 12.8872 9.18522 12.8872 9.74986V11.7983C12.8872 12.6366 12.2317 13.4487 11.2648 13.4487H2.57887C1.61193 13.4487 0.956421 12.6366 0.956421 11.7983V9.74986C0.956421 9.18522 1.1693 8.67021 1.51919 8.28082C1.16453 7.96571 0.956421 7.5017 0.956421 7.02936V4.85598C0.956421 4.22956 1.23417 3.668 1.67324 3.28776Z" fill="#939FB8"/>
</svg>
