<svg xmlns="http://www.w3.org/2000/svg" width="12" height="12" viewBox="0 0 12 12" fill="none">
  <mask id="mask0_219_151972" style="mask-type:luminance" maskUnits="userSpaceOnUse" x="0" y="0" width="12" height="12">
    <path d="M0.0543823 0.12207H11.8095V11.8772H0.0543823V0.12207Z" fill="white"/>
  </mask>
  <g mask="url(#mask0_219_151972)">
    <path d="M4.6885 2.1201C4.60587 1.95323 4.43579 1.84766 4.24959 1.84766H1.52349C1.25297 1.84766 1.03368 2.06696 1.03369 2.33748L1.03378 4.01889H10.8286V3.3055C10.8286 2.89973 10.4997 2.57081 10.0939 2.57081H4.9117L4.6885 2.1201Z" fill="#ADB0B8"/>
    <path d="M10.3418 3.40137H1.52379C1.25329 3.40137 1.034 3.62066 1.034 3.89116V9.9181C1.034 10.1886 1.25329 10.4079 1.52379 10.4079H10.3418C10.6123 10.4079 10.8316 10.1886 10.8316 9.9181V3.89116C10.8316 3.62066 10.6123 3.40137 10.3418 3.40137Z" fill="#737780"/>
  </g>
</svg>
