<svg xmlns="http://www.w3.org/2000/svg" width="14" height="14" viewBox="0 0 14 14" fill="none">
  <path fill-rule="evenodd" clip-rule="evenodd" d="M3.95715 1.675C3.96166 1.66775 3.97049 1.66185 3.98152 1.66185H10.0159C10.0269 1.66185 10.0357 1.6678 10.0403 1.6751L10.6696 2.78223H3.26213L3.95715 1.675ZM1.67312 3.28776L3.07139 1.04458C3.27437 0.718967 3.6165 0.524658 3.98152 0.524658H10.0159C10.3827 0.524658 10.7263 0.720902 10.9288 1.04919L12.6874 3.89966L12.6519 3.89576C12.8021 4.18285 12.8871 4.50949 12.8871 4.85598V7.02936C12.8871 7.5017 12.679 7.96571 12.3244 8.28082C12.6742 8.67021 12.8871 9.18522 12.8871 9.74986V11.7983C12.8871 12.6366 12.2316 13.4487 11.2647 13.4487H2.57875C1.61181 13.4487 0.956299 12.6366 0.956299 11.7983V9.74986C0.956299 9.18522 1.16918 8.67021 1.51907 8.28082C1.16441 7.96571 0.956299 7.5017 0.956299 7.02936V4.85598C0.956299 4.22956 1.23405 3.668 1.67312 3.28776ZM10.8133 3.98098C11.2966 3.98098 11.6883 4.37273 11.6883 4.85598V7.02936C11.6883 7.27878 11.4986 7.48098 11.2647 7.48098H2.57875C2.34474 7.48098 2.15505 7.27878 2.15505 7.02936V4.85598C2.15505 4.37273 2.5468 3.98098 3.03005 3.98098H10.8133ZM10.6884 8.74989C11.2407 8.74989 11.6883 9.19765 11.6883 9.74986V11.7983C11.6883 12.0477 11.4986 12.2499 11.2647 12.2499H2.57875C2.34474 12.2499 2.15505 12.0477 2.15505 11.7983V9.74986C2.15505 9.19765 2.60276 8.74989 3.15504 8.74989H10.6884ZM3.99034 9.84375C3.60374 9.84375 3.29034 10.1572 3.29034 10.5437C3.29034 10.9303 3.60374 11.2437 3.99034 11.2437H4.82321C5.20981 11.2437 5.52321 10.9303 5.52321 10.5437C5.52321 10.1572 5.20981 9.84375 4.82321 9.84375H3.99034ZM3.29013 5.77483C3.29013 5.38823 3.60353 5.07482 3.99013 5.07482H4.823C5.2096 5.07482 5.523 5.38823 5.523 5.77483C5.523 6.16143 5.2096 6.47482 4.823 6.47482H3.99013C3.60353 6.47482 3.29013 6.16143 3.29013 5.77483Z" fill="#8D93A6"/>
  <path opacity="0.2" fill-rule="evenodd" clip-rule="evenodd" d="M1.67312 3.28776L3.07139 1.04458C3.27437 0.718967 3.6165 0.524658 3.98152 0.524658H10.0159C10.3827 0.524658 10.7263 0.720902 10.9288 1.04919L12.6874 3.89966L12.6519 3.89576C12.8021 4.18285 12.8871 4.50949 12.8871 4.85598V7.02936C12.8871 7.5017 12.679 7.96571 12.3244 8.28082C12.6742 8.67021 12.8871 9.18522 12.8871 9.74986V11.7983C12.8871 12.6366 12.2316 13.4487 11.2647 13.4487H2.57875C1.61181 13.4487 0.956299 12.6366 0.956299 11.7983V9.74986C0.956299 9.18522 1.16918 8.67021 1.51907 8.28082C1.16441 7.96571 0.956299 7.5017 0.956299 7.02936V4.85598C0.956299 4.22956 1.23405 3.668 1.67312 3.28776Z" fill="#8D93A6"/>
</svg>
