<svg xmlns="http://www.w3.org/2000/svg" width="14" height="14" viewBox="0 0 14 14" fill="none">
  <path d="M7.4969 13.6684L9.50901 12.5067L8.28047 11.5995L6.7969 12.456C6.70408 12.5096 6.58972 12.5096 6.4969 12.456L1.9969 9.85792C1.90408 9.80433 1.8469 9.70529 1.8469 9.59811V4.40196C1.8469 4.29478 1.90408 4.19574 1.9969 4.14215L6.4969 1.54407C6.58972 1.49048 6.70408 1.49048 6.7969 1.54407L8.258 2.38764L9.48211 1.4778L7.4969 0.331638C6.97092 0.0279625 6.32288 0.0279633 5.7969 0.331639L1.2969 2.92971C0.770917 3.23339 0.446899 3.79461 0.446899 4.40196V9.59811C0.446899 10.2055 0.770918 10.7667 1.2969 11.0704L5.7969 13.6684C6.32288 13.9721 6.97092 13.9721 7.4969 13.6684ZM11.495 6.18287C11.1084 6.18287 10.795 5.86947 10.795 5.48287V4.82467H10.1367C9.75008 4.82467 9.43668 4.51126 9.43668 4.12467C9.43668 3.73807 9.75008 3.42467 10.1367 3.42467H10.795V2.76641C10.795 2.37981 11.1084 2.06641 11.495 2.06641C11.8816 2.06641 12.195 2.37981 12.195 2.76641V3.42467H12.8531C13.2397 3.42467 13.5531 3.73807 13.5531 4.12467C13.5531 4.51126 13.2397 4.82467 12.8531 4.82467H12.195V5.48287C12.195 5.86947 11.8816 6.18287 11.495 6.18287ZM11.495 11.9335C11.1084 11.9335 10.795 11.6201 10.795 11.2335V10.5753H10.1367C9.75008 10.5753 9.43668 10.2619 9.43668 9.87528C9.43668 9.48868 9.75008 9.17528 10.1367 9.17528H10.795V8.51702C10.795 8.13042 11.1084 7.81702 11.495 7.81702C11.8816 7.81702 12.195 8.13042 12.195 8.51702V9.17528H12.8531C13.2397 9.17528 13.5531 9.48868 13.5531 9.87528C13.5531 10.2619 13.2397 10.5753 12.8531 10.5753H12.195V11.2335C12.195 11.6201 11.8816 11.9335 11.495 11.9335ZM9.20978 5.31797C8.84639 4.79901 8.32805 4.40841 7.72902 4.20215C7.13 3.99589 6.48106 3.98456 5.8752 4.16979C5.26935 4.35502 4.73769 4.72729 4.35641 5.23326C3.97514 5.73922 3.76383 6.3529 3.75278 6.98634C3.74172 7.61978 3.93148 8.24047 4.29486 8.75943C4.65825 9.27839 5.17659 9.669 5.77561 9.87526C6.37464 10.0815 7.02358 10.0928 7.62943 9.90762C8.23529 9.72239 8.76695 9.35011 9.14823 8.84415L8.05245 8.01842C7.84555 8.29298 7.55705 8.495 7.22828 8.59551C6.89952 8.69602 6.54737 8.68988 6.22231 8.57795C5.89726 8.46602 5.61598 8.25406 5.41879 7.97245C5.2216 7.69084 5.11863 7.35402 5.12463 7.01029C5.13063 6.66655 5.24529 6.33354 5.45219 6.05898C5.65908 5.78442 5.94759 5.58241 6.27636 5.48189C6.60512 5.38138 6.95727 5.38753 7.28233 5.49945C7.60738 5.61138 7.88866 5.82334 8.08585 6.10495L9.20978 5.31797Z" fill="#967EF5"/>
</svg>
