<svg xmlns="http://www.w3.org/2000/svg" width="14" height="12" viewBox="0 0 14 12" fill="none">
  <path d="M2.25008 6.29171L1.50046 9.11502C1.24773 10.0669 1.96536 10.9999 2.95023 10.9999H10.8905C11.5707 10.9999 12.1657 10.5423 12.3403 9.88487L13.2567 6.43325C13.4252 5.79866 12.9468 5.17664 12.2902 5.17664H3.69985C3.01967 5.17664 2.42462 5.63431 2.25008 6.29171Z" stroke="#8D93A6" stroke-width="1.2" stroke-linecap="round"/>
  <path d="M12.496 5.01608V4.00603C12.496 3.1776 11.8244 2.50603 10.996 2.50603H7.00706C6.67271 2.50603 6.36048 2.33893 6.17501 2.06073L5.76472 1.4453C5.57926 1.1671 5.26703 1 4.93267 1L2.95178 1C2.12336 1 1.45178 1.67157 1.45178 2.5V9.53416" stroke="#8D93A6" stroke-width="1.2" stroke-linecap="round"/>
  <path opacity="0.2" fill-rule="evenodd" clip-rule="evenodd" d="M10.996 2.50603H7.0071C6.67275 2.50603 6.36052 2.33893 6.17505 2.06073L5.76477 1.4453C5.5793 1.1671 5.26707 1 4.93272 1H2.95182C2.1234 1 1.45182 1.67157 1.45182 2.5V7.29986C1.45182 7.641 1.5625 7.94729 1.74536 8.19289L1.50051 9.11508C1.24777 10.067 1.9654 11 2.95027 11H10.8905C11.5707 11 12.1658 10.5423 12.3403 9.88493L13.2567 6.43331C13.4252 5.79872 12.9468 5.1767 12.2902 5.1767H11.9375C12.2848 4.8963 12.496 4.46906 12.496 4.00784C12.496 3.17941 11.8245 2.50603 10.996 2.50603Z" fill="#8D93A6"/>
</svg>
