<svg xmlns="http://www.w3.org/2000/svg" width="14" height="8" viewBox="0 0 14 8" fill="none">
  <path d="M10.9251 5.5561C10.696 5.67909 10.4389 5.74832 10.1754 5.75777C9.91193 5.76722 9.64999 5.71675 9.41157 5.61049C8.74699 5.32349 8.38796 4.59626 8.5659 3.89313C8.73719 3.09356 9.37615 2.4791 10.1799 2.33832C10.3846 2.28831 10.5984 2.28035 10.8066 2.31497C11.0149 2.34958 11.2129 2.42597 11.3871 2.53898C11.7445 2.76769 11.9932 3.13395 12.0747 3.55088V3.85427C12.0459 4.61026 11.5921 5.28541 10.9021 5.59495C10.3142 5.85941 11.4925 5.25426 10.9251 5.5561ZM13.9605 3.16284C13.8452 2.31502 13.3511 1.56599 12.6182 1.12646C12.2367 0.879744 11.8049 0.71082 11.3503 0.630467C10.8957 0.550114 10.4284 0.560111 9.97815 0.659812C8.94138 0.809983 8.00758 1.36998 7.38584 2.21462C7.10416 2.57414 6.88897 2.97596 6.74923 3.40312H3.76825C3.71882 3.4008 3.66984 3.41302 3.6281 3.43811C3.58635 3.46319 3.5539 3.49989 3.53523 3.54313C3.40344 3.78423 3.17783 4.25872 3.06172 4.53872C2.99912 4.69426 3.06172 4.81872 3.24042 4.81872H5.02569L4.77699 5.15234C4.5975 5.37277 4.35927 5.54434 4.08658 5.64955C3.81389 5.75476 3.5165 5.78983 3.22474 5.75126C2.50832 5.65718 1.97308 5.04426 1.9747 4.32018C1.9319 3.60847 2.28432 2.93018 2.89042 2.55612C3.12689 2.38414 3.41094 2.28019 3.70847 2.25673C4.00602 2.23327 4.30441 2.29129 4.56786 2.42385C4.73916 2.49935 4.88899 2.61752 5.00267 2.7661C5.12618 2.90612 5.13439 2.89831 5.27439 2.85945L6.82664 2.45497C6.94275 2.45497 6.98144 2.38499 6.91972 2.29939C6.70639 1.78097 6.33357 1.33459 5.8492 1.01762C5.49521 0.787008 5.09418 0.628479 4.67167 0.552151C4.24915 0.475816 3.81442 0.483356 3.39516 0.574279C2.36502 0.743056 1.43786 1.29918 0.802872 2.12909C0.1872 2.89186 -0.0911366 3.85005 0.0263473 4.80234C0.0672926 5.19819 0.192991 5.58214 0.395828 5.93081C0.598665 6.27948 0.874419 6.58566 1.20639 6.83087C1.92449 7.35433 2.82042 7.56979 3.69825 7.42979C4.75397 7.29518 5.70758 6.73364 6.33751 5.87495C6.48808 5.67181 6.61795 5.45565 6.72541 5.22941C6.86944 5.80803 7.18648 6.32918 7.63364 6.72272C8.26126 7.23302 9.06486 7.50938 9.89331 7.49979C10.1338 7.49979 10.3898 7.46087 10.6691 7.41425C11.5202 7.25395 12.2966 6.84592 12.8891 6.24749C13.7447 5.45726 14.1441 4.28903 13.953 3.13948C13.7876 2.1423 14.098 4.16303 13.9613 3.16278L13.9605 3.16284Z" fill="#43ACB3"/>
</svg>
