<svg width="14" height="14" viewBox="0 0 14 14" fill="none" xmlns="http://www.w3.org/2000/svg">
<g clip-path="url(#clip0_13238_55966)">
<path d="M7 1L8.03008 1.82145L9.2961 1.45672L9.93341 2.60984L11.2426 2.75736L11.3902 4.06659L12.5433 4.7039L12.1785 5.96992L13 7L12.1785 8.03008L12.5433 9.2961L11.3902 9.93341L11.2426 11.2426L9.93341 11.3902L9.2961 12.5433L8.03008 12.1785L7 13L5.96992 12.1785L4.7039 12.5433L4.06659 11.3902L2.75736 11.2426L2.60984 9.93341L1.45672 9.2961L1.82145 8.03008L1 7L1.82145 5.96992L1.45672 4.7039L2.60984 4.06659L2.75736 2.75736L4.06659 2.60984L4.7039 1.45672L5.96992 1.82145L7 1Z" stroke="#E4A137" stroke-width="1.2"/>
<path d="M4.35449 10.5V3.4541H7.28906C8.89062 3.4541 9.80859 4.30859 9.80859 5.69531V5.70508C9.80859 6.6084 9.33984 7.38477 8.53418 7.70215L10.0186 10.5H8.34863L7.03516 7.92188H5.8291V10.5H4.35449ZM5.8291 6.84766H7.12793C7.86523 6.84766 8.2998 6.42773 8.2998 5.73438V5.72461C8.2998 5.0459 7.8457 4.60645 7.1084 4.60645H5.8291V6.84766Z" fill="#E4A137"/>
</g>
<defs>
<clipPath id="clip0_13238_55966">
<rect width="14" height="14" fill="white"/>
</clipPath>
</defs>
</svg>
