<svg width="14" height="14" viewBox="0 0 14 14" fill="none" xmlns="http://www.w3.org/2000/svg">
<g clip-path="url(#clip0_12957_118143)">
<path d="M7.00005 13.2C8.84768 13.2 7.72418 10.4522 8.86005 9.17005C9.82923 8.07603 13.2 8.57658 13.2 7.00005C13.2 3.57588 10.4242 0.800049 7.00005 0.800049C3.57588 0.800049 0.800049 3.57588 0.800049 7.00005C0.800049 10.4242 3.57588 13.2 7.00005 13.2Z" stroke="#967EF5" stroke-width="1.4" stroke-linejoin="round"/>
<path fill-rule="evenodd" clip-rule="evenodd" d="M8.43032 4.8969C8.89977 4.8969 9.28032 4.51635 9.28032 4.0469C9.28032 3.57744 8.89977 3.1969 8.43032 3.1969C7.96086 3.1969 7.58032 3.57744 7.58032 4.0469C7.58032 4.51635 7.96086 4.8969 8.43032 4.8969ZM4.85 6.0903C5.31946 6.0903 5.7 5.70976 5.7 5.2403C5.7 4.77085 5.31946 4.3903 4.85 4.3903C4.38054 4.3903 4 4.77085 4 5.2403C4 5.70976 4.38054 6.0903 4.85 6.0903ZM5.99838 9.119C5.99838 9.58845 5.61783 9.969 5.14838 9.969C4.67892 9.969 4.29838 9.58845 4.29838 9.119C4.29838 8.64954 4.67892 8.269 5.14838 8.269C5.61783 8.269 5.99838 8.64954 5.99838 9.119Z" fill="#967EF5"/>
</g>
<defs>
<clipPath id="clip0_12957_118143">
<rect width="14" height="14" fill="white"/>
</clipPath>
</defs>
</svg>
