<svg width="16" height="16" viewBox="0 0 16 16" fill="none" xmlns="http://www.w3.org/2000/svg">
<path d="M3.25853 1.05846C2.0435 1.05846 1.05853 2.04343 1.05853 3.25846V5.45965C1.05853 6.67468 2.0435 7.65965 3.25853 7.65965H5.45972C6.67475 7.65965 7.65972 6.67468 7.65972 5.45965V3.25846C7.65972 2.04343 6.67475 1.05846 5.45972 1.05846H3.25853ZM2.45853 3.25846C2.45853 2.81663 2.8167 2.45846 3.25853 2.45846H5.45972C5.90155 2.45846 6.25972 2.81663 6.25972 3.25846V5.45965C6.25972 5.90148 5.90155 6.25965 5.45972 6.25965H3.25853C2.8167 6.25965 2.45853 5.90148 2.45853 5.45965V3.25846ZM3.25853 8.86025C2.0435 8.86025 1.05853 9.84522 1.05853 11.0602V13.2614C1.05853 14.4765 2.0435 15.4614 3.25853 15.4614H5.45972C6.67475 15.4614 7.65972 14.4765 7.65972 13.2614V11.0602C7.65972 9.84522 6.67475 8.86025 5.45972 8.86025H3.25853ZM2.45853 11.0602C2.45853 10.6184 2.8167 10.2602 3.25853 10.2602H5.45972C5.90155 10.2602 6.25972 10.6184 6.25972 11.0602V13.2614C6.25972 13.7033 5.90155 14.0614 5.45972 14.0614H3.25853C2.8167 14.0614 2.45853 13.7033 2.45853 13.2614V11.0602ZM8.86032 3.25846C8.86032 2.04343 9.84529 1.05846 11.0603 1.05846H13.2615C14.4765 1.05846 15.4615 2.04343 15.4615 3.25846V5.45965C15.4615 6.67468 14.4765 7.65965 13.2615 7.65965H11.0603C9.8453 7.65965 8.86032 6.67468 8.86032 5.45965V3.25846ZM11.0603 2.45846C10.6185 2.45846 10.2603 2.81663 10.2603 3.25846V5.45965C10.2603 5.90148 10.6185 6.25965 11.0603 6.25965H13.2615C13.7033 6.25965 14.0615 5.90148 14.0615 5.45965V3.25846C14.0615 2.81663 13.7033 2.45846 13.2615 2.45846H11.0603ZM11.0603 8.86025C9.84529 8.86025 8.86032 9.84522 8.86032 11.0602V13.2614C8.86032 14.4765 9.8453 15.4614 11.0603 15.4614H13.2615C14.4765 15.4614 15.4615 14.4765 15.4615 13.2614V11.0602C15.4615 9.84522 14.4765 8.86025 13.2615 8.86025H11.0603ZM10.2603 11.0602C10.2603 10.6184 10.6185 10.2602 11.0603 10.2602H13.2615C13.7033 10.2602 14.0615 10.6184 14.0615 11.0602V13.2614C14.0615 13.7033 13.7033 14.0614 13.2615 14.0614H11.0603C10.6185 14.0614 10.2603 13.7033 10.2603 13.2614V11.0602Z" fill="white"/>
</svg>
