<svg width="120" height="120" viewBox="0 0 120 120" fill="none"
	xmlns="http://www.w3.org/2000/svg">
	<path fill-rule="evenodd" clip-rule="evenodd" d="M37.0848 22.2424L0.75 43.2219L21.2049 72.2695L21.2058 44.8457L43.8107 31.7938L37.0848 22.2424ZM57.5397 51.29L57.5397 52.3376L58.0642 52.0348L57.5397 51.29Z" fill="url(#paint0_radial_164_9436)"/>
	<path fill-rule="evenodd" clip-rule="evenodd" d="M57.5406 23.8662L21.2058 44.8457L41.6607 73.8933L41.6616 46.4696L64.2666 33.4176L57.5406 23.8662ZM77.9955 52.9138L77.9955 53.9614L78.5199 53.6586L77.9955 52.9138Z" fill="url(#paint1_radial_164_9436)"/>
	<path fill-rule="evenodd" clip-rule="evenodd" d="M77.9964 25.4902L41.6616 46.4697L62.1165 75.5173L62.1174 48.0936L84.7224 35.0417L77.9964 25.4902ZM98.4513 54.5378L98.4513 55.5854L98.9758 55.2826L98.4513 54.5378Z" fill="url(#paint2_radial_164_9436)"/>
	<path d="M62.1174 48.0935L98.4522 27.1141L119.432 56.9064L83.0967 77.8859L62.1174 48.0935Z" fill="url(#paint3_radial_164_9436)"/>
	<circle cx="60" cy="52.5" r="33.75" fill="#737780"/>
	<mask id="mask0_164_9436" style="mask-type:alpha" maskUnits="userSpaceOnUse" x="26" y="18" width="68" height="69">
		<circle cx="60" cy="52.5" r="33.75" fill="#111314"/>
	</mask>
	<g mask="url(#mask0_164_9436)">
		<path fill-rule="evenodd" clip-rule="evenodd" d="M0.75 43.2219L37.0848 22.2424L43.8107 31.7938L21.2058 44.8457L21.2049 72.2695L0.75 43.2219ZM84.7224 35.0416L77.9964 25.4902L64.2666 33.4177L57.5406 23.8663L43.8107 31.7938L21.2058 44.8458L41.6607 73.8934L41.6616 46.4697L62.1165 75.5172L62.1174 48.0936L83.0967 77.886L119.432 56.9065L98.4522 27.1142L84.7224 35.0416Z" fill="#A3A7AF"/>
	</g>
	<circle cx="60" cy="52.5" r="30" fill="#111314"/>
	<mask id="mask1_164_9436" style="mask-type:alpha" maskUnits="userSpaceOnUse" x="30" y="22" width="60" height="61">
		<circle cx="60" cy="52.5" r="30" fill="#111314"/>
	</mask>
	<g mask="url(#mask1_164_9436)">
		<path fill-rule="evenodd" clip-rule="evenodd" d="M37.0848 22.2424L0.75 43.2219L21.2049 72.2695L21.2058 44.8457L43.8107 31.7938L37.0848 22.2424ZM57.5397 51.29L57.5397 52.3376L58.0642 52.0348L57.5397 51.29Z" fill="url(#paint4_radial_164_9436)"/>
		<path fill-rule="evenodd" clip-rule="evenodd" d="M57.5406 23.8662L21.2058 44.8457L41.6607 73.8933L41.6616 46.4696L64.2666 33.4176L57.5406 23.8662ZM77.9955 52.9138L77.9955 53.9614L78.5199 53.6586L77.9955 52.9138Z" fill="url(#paint5_radial_164_9436)"/>
		<path fill-rule="evenodd" clip-rule="evenodd" d="M77.9964 25.4902L41.6616 46.4697L62.1165 75.5173L62.1174 48.0936L84.7224 35.0417L77.9964 25.4902ZM98.4513 54.5378L98.4513 55.5854L98.9758 55.2826L98.4513 54.5378Z" fill="url(#paint6_radial_164_9436)"/>
		<path d="M62.1174 48.0935L98.4522 27.1141L119.432 56.9064L83.0967 77.8859L62.1174 48.0935Z" fill="url(#paint7_radial_164_9436)"/>
	</g>
	<rect opacity="0.5" x="13.2695" y="101.711" width="35.2873" height="3.90925" transform="rotate(-45 13.2695 101.711)" fill="#737780"/>
	<path d="M12.412 100.854C12.1845 100.626 12.1845 100.257 12.412 100.03L30.3595 82.0822C31.8239 80.6177 34.1983 80.6177 35.6628 82.0822C37.1273 83.5466 37.1273 85.921 35.6628 87.3855L17.7153 105.333C17.4878 105.561 17.1188 105.561 16.8913 105.333L12.412 100.854Z" fill="#737780"/>
	<path d="M99 78.75L99.4146 88.5829C99.4549 89.5392 100.595 90.0115 101.3 89.3638L108.546 82.7041L101.886 89.9501C101.238 90.6549 101.711 91.7951 102.667 91.8354L112.5 92.25L102.667 92.6646C101.711 92.7049 101.238 93.8451 101.886 94.5499L108.546 101.796L101.3 95.1362C100.595 94.4885 99.4549 94.9608 99.4146 95.9171L99 105.75L98.5854 95.9171C98.5451 94.9608 97.4049 94.4885 96.7001 95.1362L89.4541 101.796L96.1138 94.5499C96.7615 93.8451 96.2892 92.7049 95.3329 92.6646L85.5 92.25L95.3329 91.8354C96.2892 91.7951 96.7615 90.6549 96.1138 89.9501L89.4541 82.7041L96.7001 89.3638C97.4049 90.0115 98.5451 89.5392 98.5854 88.5829L99 78.75Z" fill="#ADB0B8"/>
	<path d="M13.5 0L13.9146 9.8329C13.9549 10.7892 15.0951 11.2615 15.7999 10.6138L23.0459 3.95406L16.3862 11.2001C15.7385 11.9049 16.2108 13.0451 17.1671 13.0854L27 13.5L17.1671 13.9146C16.2108 13.9549 15.7385 15.0951 16.3862 15.7999L23.0459 23.0459L15.7999 16.3862C15.0951 15.7385 13.9549 16.2108 13.9146 17.1671L13.5 27L13.0854 17.1671C13.0451 16.2108 11.9049 15.7385 11.2001 16.3862L3.95406 23.0459L10.6138 15.7999C11.2615 15.0951 10.7892 13.9549 9.8329 13.9146L0 13.5L9.8329 13.0854C10.7892 13.0451 11.2615 11.9049 10.6138 11.2001L3.95406 3.95406L11.2001 10.6138C11.9049 11.2615 13.0451 10.7892 13.0854 9.8329L13.5 0Z" fill="#ADB0B8"/>
	<defs>
		<radialGradient id="paint0_radial_164_9436" cx="0" cy="0" r="1" gradientUnits="userSpaceOnUse" gradientTransform="translate(58.5104 57.9168) rotate(-162.937) scale(70.857 126.192)">
			<stop stop-color="#41454D"/>
			<stop offset="1" stop-color="#41454D" stop-opacity="0.24"/>
		</radialGradient>
		<radialGradient id="paint1_radial_164_9436" cx="0" cy="0" r="1" gradientUnits="userSpaceOnUse" gradientTransform="translate(78.9661 59.5406) rotate(-162.937) scale(70.857 126.192)">
			<stop stop-color="#41454D"/>
			<stop offset="1" stop-color="#41454D" stop-opacity="0.24"/>
		</radialGradient>
		<radialGradient id="paint2_radial_164_9436" cx="0" cy="0" r="1" gradientUnits="userSpaceOnUse" gradientTransform="translate(99.422 61.1646) rotate(-162.937) scale(70.857 126.192)">
			<stop stop-color="#41454D"/>
			<stop offset="1" stop-color="#41454D" stop-opacity="0.24"/>
		</radialGradient>
		<radialGradient id="paint3_radial_164_9436" cx="0" cy="0" r="1" gradientUnits="userSpaceOnUse" gradientTransform="translate(119.878 44.6258) rotate(162.241) scale(71.1285 105.305)">
			<stop stop-color="#41454D"/>
			<stop offset="1" stop-color="#41454D" stop-opacity="0.24"/>
		</radialGradient>
		<radialGradient id="paint4_radial_164_9436" cx="0" cy="0" r="1" gradientUnits="userSpaceOnUse" gradientTransform="translate(58.5104 57.9168) rotate(-162.937) scale(70.857 126.192)">
			<stop stop-color="#41454D"/>
			<stop offset="1" stop-color="#41454D" stop-opacity="0.24"/>
		</radialGradient>
		<radialGradient id="paint5_radial_164_9436" cx="0" cy="0" r="1" gradientUnits="userSpaceOnUse" gradientTransform="translate(78.9661 59.5406) rotate(-162.937) scale(70.857 126.192)">
			<stop stop-color="#41454D"/>
			<stop offset="1" stop-color="#41454D" stop-opacity="0.24"/>
		</radialGradient>
		<radialGradient id="paint6_radial_164_9436" cx="0" cy="0" r="1" gradientUnits="userSpaceOnUse" gradientTransform="translate(99.422 61.1646) rotate(-162.937) scale(70.857 126.192)">
			<stop stop-color="#41454D"/>
			<stop offset="1" stop-color="#41454D" stop-opacity="0.24"/>
		</radialGradient>
		<radialGradient id="paint7_radial_164_9436" cx="0" cy="0" r="1" gradientUnits="userSpaceOnUse" gradientTransform="translate(119.878 44.6258) rotate(162.241) scale(71.1285 105.305)">
			<stop stop-color="#41454D"/>
			<stop offset="1" stop-color="#41454D" stop-opacity="0.24"/>
		</radialGradient>
	</defs>
</svg>
