<svg xmlns="http://www.w3.org/2000/svg" width="12" height="12" fill="none"><path fill-rule="evenodd" clip-rule="evenodd" d="M7.647.5a.5.5 0 0 1 .354.146L10.354 3a.5.5 0 0 1 .146.354V11a.5.5 0 0 1-.5.5H2a.5.5 0 0 1-.5-.5V1A.5.5 0 0 1 2 .5h5.647ZM3.084 4.874l.328-.304a.261.261 0 0 1 .363.007l1.662 1.671a.261.261 0 0 1 0 .369l-1.662 1.67c-.1.1-.26.104-.363.008l-.328-.304-.005-.005a.261.261 0 0 1-.004-.37l1.163-1.184L3.075 5.25l-.004-.004-.001-.001a.261.261 0 0 1 .014-.37Zm3.04 2.582c0-.144.117-.261.261-.261H8.74c.144 0 .261.117.261.261v.523a.261.261 0 0 1-.261.262H6.385a.261.261 0 0 1-.261-.262v-.523Z" fill="#CC4B53"/><path d="M10.5 3.375H8.125a.5.5 0 0 1-.5-.5V.5h.022a.5.5 0 0 1 .354.146L10.354 3a.5.5 0 0 1 .146.354v.022Z" fill="#B3363E"/></svg>