<svg xmlns="http://www.w3.org/2000/svg" width="96" height="63" fill="none"><g filter="url(#a)"><path fill-rule="evenodd" clip-rule="evenodd" d="M79 18a3 3 0 0 0-3-3H20a3 3 0 0 0-3 3v18a3 3 0 0 0 3 3h21.757a3 3 0 0 1 2.122.879l3.414 3.414a1 1 0 0 0 1.414 0l3.414-3.414A3 3 0 0 1 54.243 39H76a3 3 0 0 0 3-3V18Z" fill="#181818"/><path d="M79.5 18a3.5 3.5 0 0 0-3.5-3.5H20a3.5 3.5 0 0 0-3.5 3.5v18a3.5 3.5 0 0 0 3.5 3.5h21.757a2.5 2.5 0 0 1 1.768.732l3.414 3.414a1.5 1.5 0 0 0 2.122 0l3.414-3.414a2.5 2.5 0 0 1 1.768-.732H76a3.5 3.5 0 0 0 3.5-3.5V18Z" stroke="#333"/></g><defs><filter id="a" x="0" y="0" width="96" height="62.586" filterUnits="userSpaceOnUse" color-interpolation-filters="sRGB"><feFlood flood-opacity="0" result="BackgroundImageFix"/><feColorMatrix in="SourceAlpha" values="0 0 0 0 0 0 0 0 0 0 0 0 0 0 0 0 0 0 127 0" result="hardAlpha"/><feOffset dy="2"/><feGaussianBlur stdDeviation="8"/><feColorMatrix values="0 0 0 0 0 0 0 0 0 0 0 0 0 0 0 0 0 0 0.36 0"/><feBlend in2="BackgroundImageFix" result="effect1_dropShadow_3111_421327"/><feBlend in="SourceGraphic" in2="effect1_dropShadow_3111_421327" result="shape"/></filter></defs></svg>