<svg xmlns="http://www.w3.org/2000/svg" width="16" height="16" fill="none"><path fill-rule="evenodd" clip-rule="evenodd" d="M7.838 1.4a4.99 4.99 0 0 1 1.737.278.6.6 0 0 1-.395 1.133 3.789 3.789 0 0 0-3.206.336 3.698 3.698 0 0 0-1.342 1.41 3.624 3.624 0 0 0 .172 3.72c.363.548.87.993 1.467 1.285a.6.6 0 0 1 .336.539V11.4H9.26v-1.3a.6.6 0 0 1 .338-.539c.213-.103.414-.226.602-.366a.6.6 0 0 1 .718.961c-.146.11-.3.211-.458.304v1.065c0 .288-.116.562-.32.763-.203.2-.477.312-.761.312h-2.89c-.283 0-.558-.111-.761-.312-.204-.2-.32-.475-.32-.763V10.46a4.908 4.908 0 0 1-1.604-1.52 4.824 4.824 0 0 1-.228-4.948A4.898 4.898 0 0 1 5.35 2.12a4.978 4.978 0 0 1 2.487-.72Zm3.927.838a.533.533 0 0 1 .548.408c.167.696.42 1.083.762 1.383.363.319.84.56 1.551.918l.067.033a.533.533 0 0 1-.024.964c-1.085.483-1.572.944-1.835 1.318a2.85 2.85 0 0 0-.302.568l-.056.138v.002c-.061.151-.131.327-.211.477a.533.533 0 0 1-.998-.167c-.091-.573-.455-1.145-.927-1.59-.487-.458-.984-.686-1.251-.7a.533.533 0 0 1-.059-1.06c.581-.097 1.118-.45 1.534-.912.421-.468.658-.982.701-1.315a.533.533 0 0 1 .5-.465ZM6.007 13.4a.6.6 0 1 0 0 1.2H9.86a.6.6 0 1 0 0-1.2H6.007Z" fill="url(#a)"/><defs><linearGradient id="a" x1="2.38" y1="24.971" x2="14.9" y2="26.011" gradientUnits="userSpaceOnUse"><stop stop-color="#4891FF"/><stop offset=".271" stop-color="#94BFFF"/><stop offset=".479" stop-color="#FFC69D"/><stop offset=".656" stop-color="#FF8A4F"/><stop offset=".844" stop-color="#C25EFF"/></linearGradient></defs></svg>