<svg width="14" height="14" viewBox="0 -1 14 14" fill="none" xmlns="http://www.w3.org/2000/svg"><path fill-rule="evenodd" clip-rule="evenodd" d="M10 5.495a4.978 4.978 0 1 1-9.955 0 4.978 4.978 0 0 1 9.956 0Z" fill="#141414" fill-opacity=".08"/><path d="M5 9.997a5 5 0 1 0 0-10 5 5 0 0 0 0 10Z" fill="#387BFF"/><path fill-rule="evenodd" clip-rule="evenodd" d="M5 9.164A4.167 4.167 0 1 0 5 .83a4.167 4.167 0 0 0 0 8.333Zm5-4.167a5 5 0 1 1-10 0 5 5 0 0 1 10 0Z" fill="#1664FF"/><path fill-rule="evenodd" clip-rule="evenodd" d="M5.558 4.122c.067 0 .121.054.121.121v2.59h.56c.067 0 .121.055.121.122v.657a.121.121 0 0 1-.12.121H4.214a.121.121 0 0 1-.121-.12v-.658c0-.067.054-.121.12-.121h.556V5.022h-.19a.121.121 0 0 1-.122-.121v-.658c0-.067.054-.12.121-.12h.98Zm-.1-1.363c.068 0 .122.054.122.121v.663a.121.121 0 0 1-.121.121h-.691a.121.121 0 0 1-.121-.12V2.88c0-.067.054-.121.12-.121h.692Z" fill="#141414" fill-opacity=".2"/><path fill-rule="evenodd" clip-rule="evenodd" d="M5.31 3.873c.066 0 .12.054.12.121v2.59h.56c.067 0 .121.055.121.122v.657a.121.121 0 0 1-.12.121H3.965a.121.121 0 0 1-.121-.12v-.658c0-.067.054-.121.12-.121h.556V4.773h-.19a.121.121 0 0 1-.122-.121v-.658c0-.067.054-.12.121-.12h.98Zm-.1-1.363c.067 0 .12.054.12.121v.663a.121.121 0 0 1-.12.121h-.692a.121.121 0 0 1-.12-.12V2.63c0-.067.054-.121.12-.121h.692Z" fill="#fff"/></svg>