<svg xmlns="http://www.w3.org/2000/svg" width="14" height="12" fill="none"><path d="M12.826 4.172V9.5a1.5 1.5 0 0 1-1.5 1.5H2.674a1.5 1.5 0 0 1-1.5-1.5v-7a1.5 1.5 0 0 1 1.5-1.5h2.187a1 1 0 0 1 .845.465l.47.743a1 1 0 0 0 .845.464h4.305a1.5 1.5 0 0 1 1.5 1.5Z" stroke="#8D93A6" stroke-width="1.2" stroke-linecap="round"/><path opacity=".2" d="M11.826 3.172V8.5a1.5 1.5 0 0 1-1.5 1.5H1.674a1.5 1.5 0 0 1-1.5-1.5v-7a1.5 1.5 0 0 1 1.5-1.5h2.187a1 1 0 0 1 .845.465l.47.743a1 1 0 0 0 .845.464h4.305a1.5 1.5 0 0 1 1.5 1.5Z" fill="#8D93A6"/></svg>