<svg xmlns="http://www.w3.org/2000/svg" width="12" height="12" fill="none"><path fill-rule="evenodd" clip-rule="evenodd" d="M1.779 1.77a.65.65 0 0 0-.01.903l1.078 1.09c.244.25.664.25.902.01a.656.656 0 0 0 .01-.908L2.682 1.78c-.244-.244-.664-.254-.902-.01Zm8.245 9.462a.815.815 0 0 0 1.146 0 .831.831 0 0 0 0-1.147L6.25 5.123a.82.82 0 0 0-1.146 0 .82.82 0 0 0 0 1.142l4.921 4.967Zm-8.266-1.018a.654.654 0 0 1 .01-.903l1.084-1.08a.66.66 0 0 1 .908.011.654.654 0 0 1-.01.903L2.665 10.23a.654.654 0 0 1-.908-.016Zm6.477-7.349a.656.656 0 0 0 .01.908.648.648 0 0 0 .903-.01l1.084-1.085c.243-.239.238-.659-.01-.908-.24-.244-.66-.234-.903.01L8.235 2.865ZM6 0c.347 0 .638.296.638.644v1.583c0 .347-.29.638-.638.638a.649.649 0 0 1-.643-.638V.644C5.357.296 5.653 0 6 0ZM0 6c0-.348.29-.638.638-.638H2.22c.347 0 .643.29.643.638a.649.649 0 0 1-.643.638H.638A.644.644 0 0 1 0 6Zm12 0a.649.649 0 0 1-.643.638H9.78A.649.649 0 0 1 9.137 6c0-.348.296-.638.643-.638h1.577c.347 0 .643.29.643.638ZM6 9.135c.347 0 .638.296.638.644v1.577c0 .348-.29.644-.638.644a.653.653 0 0 1-.643-.644V9.78c0-.348.296-.644.643-.644Z" fill="url(#a)"/><defs><linearGradient id="a" x1="-.621" y1="21.429" x2="11.895" y2="22.573" gradientUnits="userSpaceOnUse"><stop stop-color="#4891FF"/><stop offset=".271" stop-color="#94BFFF"/><stop offset=".479" stop-color="#FFC69D"/><stop offset=".656" stop-color="#FF8A4F"/><stop offset=".844" stop-color="#C25EFF"/></linearGradient></defs></svg>