<svg width="33" height="33" fill="none" xmlns="http://www.w3.org/2000/svg"><g filter="url(#a)"><path fill-rule="evenodd" clip-rule="evenodd" d="m19.177 12.17.721.722a.583.583 0 0 1 0 .824l-2.319 2.319 2.32 2.319a.583.583 0 0 1 0 .824l-.722.721a.583.583 0 0 1-.824 0l-2.32-2.32-2.317 2.32a.583.583 0 0 1-.824 0l-.721-.722a.583.583 0 0 1 0-.824l2.316-2.318-2.316-2.318a.583.583 0 0 1 0-.824l.72-.721a.583.583 0 0 1 .825 0l2.317 2.317 2.32-2.318a.583.583 0 0 1 .824 0Z" fill="#CC4B53"/></g><defs><filter id="a" x="0" y="0" width="32.069" height="32.07" filterUnits="userSpaceOnUse" color-interpolation-filters="sRGB"><feFlood flood-opacity="0" result="BackgroundImageFix"/><feColorMatrix in="SourceAlpha" values="0 0 0 0 0 0 0 0 0 0 0 0 0 0 0 0 0 0 127 0" result="hardAlpha"/><feOffset/><feGaussianBlur stdDeviation="6"/><feComposite in2="hardAlpha" operator="out"/><feColorMatrix values="0 0 0 0 0.8 0 0 0 0 0.294118 0 0 0 0 0.32549 0 0 0 0.6 0"/><feBlend in2="BackgroundImageFix" result="effect1_dropShadow_2940_162195"/><feBlend in="SourceGraphic" in2="effect1_dropShadow_2940_162195" result="shape"/></filter></defs></svg>