<svg width="16" height="17" fill="none" xmlns="http://www.w3.org/2000/svg"><path fill-rule="evenodd" clip-rule="evenodd" d="M8 3a5.5 5.5 0 1 1 0 11A5.5 5.5 0 0 1 8 3ZM6.511 9c.051 1.15.279 2.2.631 2.976.177.389.375.682.566.86.131.122.225.164.292.164.067 0 .16-.042.292-.164.191-.178.389-.471.566-.86.352-.776.58-1.826.63-2.976H6.512Zm-.152 3.65.028.052-.084-.033A4.504 4.504 0 0 1 3.527 9H5.51c.06 1.454.376 2.744.85 3.65ZM12.473 9H10.49c-.061 1.482-.389 2.794-.877 3.702A4.504 4.504 0 0 0 12.473 9ZM9.64 4.35l-.028-.052.084.033A4.504 4.504 0 0 1 12.473 8H10.49c-.06-1.454-.376-2.744-.85-3.65Zm-3.254-.052-.03.011A4.503 4.503 0 0 0 3.527 8H5.51c.059-1.433.367-2.707.829-3.61l.048-.092Zm1.321-.134C7.839 4.043 7.933 4 8 4l.019.001c.065.007.154.052.273.163.191.178.389.472.566.86.352.777.58 1.827.63 2.976H6.512c.051-1.15.279-2.2.631-2.975.177-.39.375-.683.566-.86Z" fill="#9D9D9D"/></svg>